<svg xmlns="http://www.w3.org/2000/svg" version="1.1" style="font-family:Lato,'Helvetica Neue',Helvetica,Arial,sans-serif;font-size:18px;background-color:#fff;text-rendering:geometricPrecision;-webkit-font-smoothing:antialiased" width="850" height="600" viewBox="0 0 850 600"><g class="HeaderView"><g transform="matrix(.29 0 0 .29 774 15)"><svg className="owidLog" width="210" height="120" viewBox="0 0 210 120" fill="none" xmlns="http://www.w3.org/2000/svg"><g clip-path="url(#a)"><path d="M0 0h210v107.89H0V0z" fill="#002147"/><path d="M40.98 32.25c0 2.36-.38 4.53-1.12 6.51a14.26 14.26 0 0 1-8.1 8.4c-1.9.78-4.02 1.17-6.34 1.17a16.6 16.6 0 0 1-6.33-1.17 14.31 14.31 0 0 1-8.08-8.4 18.29 18.29 0 0 1-1.12-6.51c0-2.36.38-4.53 1.12-6.5.75-1.97 1.8-3.67 3.17-5.1a14.32 14.32 0 0 1 4.9-3.34c1.92-.8 4.03-1.19 6.34-1.19 2.32 0 4.43.4 6.34 1.19 1.92.8 3.56 1.9 4.93 3.34a14.87 14.87 0 0 1 3.17 5.1 18.1 18.1 0 0 1 1.12 6.5zm-4.38 0c0-1.94-.26-3.68-.8-5.22a10.91 10.91 0 0 0-2.24-3.89 9.68 9.68 0 0 0-3.52-2.46 11.95 11.95 0 0 0-4.62-.86c-1.68 0-3.21.28-4.6.86a9.88 9.88 0 0 0-3.54 2.46 10.91 10.91 0 0 0-2.24 3.9c-.53 1.53-.8 3.27-.8 5.2 0 1.94.27 3.68.8 5.22a11.17 11.17 0 0 0 2.24 3.9 10.01 10.01 0 0 0 3.55 2.44c1.38.56 2.9.83 4.6.83s3.24-.27 4.61-.83a9.8 9.8 0 0 0 3.52-2.44 11.17 11.17 0 0 0 2.25-3.9c.53-1.54.8-3.28.8-5.21zm26.22-6.54V48H60.5c-.56 0-.9-.27-1.05-.81l-.31-2.4a12.45 12.45 0 0 1-3.26 2.6c-1.2.64-2.58.96-4.13.96-1.22 0-2.3-.2-3.24-.6a6.52 6.52 0 0 1-2.33-1.7 7.37 7.37 0 0 1-1.43-2.67c-.3-1.04-.46-2.2-.46-3.45V25.7h3.91v14.22c0 1.68.38 2.99 1.15 3.91.77.93 1.96 1.39 3.54 1.39 1.16 0 2.24-.27 3.23-.82a10.42 10.42 0 0 0 2.8-2.28V25.7h3.91zm8.61 4.47a9.94 9.94 0 0 1 2.6-3.56 5.64 5.64 0 0 1 3.76-1.3c.47 0 .92.05 1.34.15.44.1.83.27 1.17.49l-.3 2.92c-.09.37-.3.55-.66.55-.2 0-.5-.04-.9-.13a6.21 6.21 0 0 0-3.24.18 4.23 4.23 0 0 0-1.47.92c-.42.4-.81.9-1.17 1.5-.33.58-.64 1.26-.92 2.02V48H67.7V25.71h2.25c.42 0 .72.08.88.25.16.16.27.44.33.83l.26 3.39zm61.16-13.7L122.75 48h-3.82l-7.99-24.05a21.95 21.95 0 0 1-.42-1.58 38.36 38.36 0 0 1-.44 1.58L102.05 48h-3.83L88.4 16.47h3.54c.38 0 .7.1.95.29.26.2.43.43.5.73l6.52 21.9.28 1.28.29 1.46.3-1.46.38-1.27 7.41-21.91c.1-.25.26-.48.51-.69.27-.22.58-.33.95-.33h1.23c.38 0 .69.1.92.29a1.77 1.77 0 0 1 .53.73l7.4 21.9a28.4 28.4 0 0 1 .68 2.62 29.52 29.52 0 0 1 .52-2.61l6.54-21.91a1.31 1.31 0 0 1 .48-.7c.27-.21.58-.32.95-.32h3.32zm9.35 8.88c1.63 0 3.1.27 4.4.82a9.43 9.43 0 0 1 5.46 5.94c.5 1.4.74 2.98.74 4.73 0 1.76-.25 3.34-.74 4.75a9.43 9.43 0 0 1-5.46 5.92c-1.3.52-2.77.79-4.4.79-1.64 0-3.12-.27-4.44-.8a9.42 9.42 0 0 1-3.35-2.3c-.92-1-1.63-2.2-2.13-3.61-.49-1.41-.73-3-.73-4.75s.24-3.33.73-4.73c.5-1.43 1.2-2.64 2.13-3.63a9.4 9.4 0 0 1 3.35-2.31c1.32-.55 2.8-.82 4.44-.82zm0 19.89c2.2 0 3.84-.73 4.93-2.2 1.08-1.48 1.63-3.54 1.63-6.18 0-2.66-.55-4.72-1.63-6.2-1.09-1.49-2.73-2.23-4.93-2.23-1.12 0-2.09.2-2.93.57a5.71 5.71 0 0 0-2.06 1.65 7.5 7.5 0 0 0-1.24 2.67c-.26 1.04-.4 2.22-.4 3.54 0 2.64.55 4.7 1.64 6.18 1.1 1.47 2.76 2.2 4.99 2.2zm17.97-15.07a9.94 9.94 0 0 1 2.6-3.56 5.64 5.64 0 0 1 3.76-1.3c.47 0 .91.05 1.34.15.44.1.83.27 1.16.49l-.28 2.92c-.09.37-.31.55-.66.55-.2 0-.5-.04-.9-.13a6.2 6.2 0 0 0-3.24.18 4.23 4.23 0 0 0-1.47.92c-.43.4-.82.9-1.17 1.5a13.1 13.1 0 0 0-.92 2.02V48h-3.94V25.71h2.24c.43 0 .72.08.88.25.17.16.28.44.33.83l.27 3.39zm15.04-14.59V48h-3.92V15.6h3.92zm19.55 15.43a6.22 6.22 0 0 0-2.38-2.05 6.7 6.7 0 0 0-2.86-.6c-2.07 0-3.66.75-4.77 2.23-1.12 1.48-1.68 3.6-1.68 6.33 0 1.46.13 2.7.38 3.74a7.29 7.29 0 0 0 1.1 2.56 4.35 4.35 0 0 0 1.78 1.45c.7.3 1.5.46 2.4.46 1.29 0 2.41-.3 3.36-.88a9.6 9.6 0 0 0 2.67-2.49V31.02zm3.91-15.43V48h-2.33c-.56 0-.9-.27-1.06-.81l-.35-2.71a12.13 12.13 0 0 1-3.25 2.77 8.28 8.28 0 0 1-4.23 1.06 7.31 7.31 0 0 1-6.14-2.9c-.73-.96-1.3-2.15-1.69-3.57a18.35 18.35 0 0 1 .07-9.48 11.29 11.29 0 0 1 1.89-3.7 8.7 8.7 0 0 1 7.06-3.34 7.96 7.96 0 0 1 6.12 2.62V15.59h3.91zM46.61 70.71V93H42.7V70.71h3.91zm.84-7c0 .39-.08.75-.24 1.09a2.81 2.81 0 0 1-1.52 1.47 2.67 2.67 0 0 1-2.16 0 2.9 2.9 0 0 1-1.45-1.47 2.67 2.67 0 0 1 0-2.16c.15-.35.35-.65.6-.9.25-.27.53-.47.85-.62a2.67 2.67 0 0 1 2.16 0c.35.15.65.35.9.62.27.25.47.55.62.9.16.34.24.7.24 1.08zm7.97 10.24c.49-.54 1-1.04 1.54-1.48a9.85 9.85 0 0 1 3.66-1.84 8.96 8.96 0 0 1 5.43.35c.94.4 1.72.97 2.33 1.71a7.36 7.36 0 0 1 1.43 2.67c.32 1.04.49 2.19.49 3.45V93h-3.94V78.81c0-1.69-.4-3-1.17-3.92-.76-.93-1.93-1.4-3.5-1.4a6.6 6.6 0 0 0-3.25.83c-1 .56-1.92 1.31-2.77 2.27V93h-3.94V70.71h2.35c.56 0 .9.28 1.04.82l.3 2.42zm57.7 3.3c0 2.36-.37 4.5-1.11 6.44a14.3 14.3 0 0 1-3.17 4.98 14.1 14.1 0 0 1-4.93 3.2c-1.9.76-4.02 1.13-6.33 1.13H85.8V61.47h11.77c2.31 0 4.42.39 6.33 1.15a13.8 13.8 0 0 1 8.1 8.18 17.75 17.75 0 0 1 1.12 6.45zm-4.37 0c0-1.94-.26-3.67-.8-5.2a10.94 10.94 0 0 0-2.23-3.87 9.57 9.57 0 0 0-3.53-2.42 12.23 12.23 0 0 0-4.61-.83h-7.5v24.62h7.5c1.7 0 3.24-.28 4.61-.84a9.7 9.7 0 0 0 3.53-2.4 10.94 10.94 0 0 0 2.24-3.87c.53-1.53.8-3.26.8-5.2zm19.8 5.72c-1.8.06-3.34.2-4.62.44-1.26.22-2.3.51-3.1.88-.8.36-1.37.8-1.74 1.3-.35.5-.53 1.05-.53 1.67 0 .58.1 1.1.3 1.52a3 3 0 0 0 .76 1.05c.34.27.73.46 1.17.6a6.13 6.13 0 0 0 1.45.17 7.28 7.28 0 0 0 3.5-.81 11.95 11.95 0 0 0 2.82-2.2v-4.62zm-12.65-9.11a12.73 12.73 0 0 1 3.98-2.66c1.43-.59 3-.88 4.73-.88 1.25 0 2.36.2 3.33.61a6.81 6.81 0 0 1 3.94 4.38c.33 1.04.5 2.19.5 3.43V93h-1.74a1.8 1.8 0 0 1-.88-.18c-.2-.13-.36-.38-.48-.74l-.44-2.12-1.72 1.46a9.48 9.48 0 0 1-3.74 1.7c-.69.15-1.46.23-2.3.23-.87 0-1.69-.12-2.45-.35a5.34 5.34 0 0 1-3.34-2.93 6.64 6.64 0 0 1-.49-2.64c0-.88.25-1.72.73-2.53a6.33 6.33 0 0 1 2.35-2.17c1.09-.63 2.5-1.15 4.25-1.54 1.75-.41 3.89-.65 6.42-.7v-1.75c0-1.73-.37-3.03-1.12-3.91-.75-.9-1.84-1.34-3.28-1.34-.97 0-1.78.12-2.44.37-.64.23-1.2.5-1.7.81l-1.23.82c-.33.23-.67.35-1 .35-.27 0-.5-.07-.69-.2a2.1 2.1 0 0 1-.48-.53l-.7-1.25zm27.67 19.5c-1.76 0-3.12-.5-4.07-1.48-.94-.98-1.41-2.4-1.41-4.25V74h-2.68a.9.9 0 0 1-.6-.2c-.16-.14-.24-.36-.24-.66v-1.56l3.65-.46.9-6.89a.9.9 0 0 1 .29-.52.88.88 0 0 1 .62-.22H142v7.67h6.44V74H142v13.38c0 .94.22 1.63.68 2.09.45.45 1.04.68 1.76.68a3.21 3.21 0 0 0 1.85-.53l.55-.35c.16-.12.3-.18.41-.18.2 0 .4.13.55.38l1.15 1.87a7.45 7.45 0 0 1-2.44 1.5 8.53 8.53 0 0 1-2.95.52zm19.68-10.4c-1.8.07-3.34.21-4.62.45-1.26.22-2.3.51-3.1.88-.8.36-1.37.8-1.74 1.3-.35.5-.53 1.05-.53 1.67 0 .58.1 1.1.3 1.52a2.9 2.9 0 0 0 .76 1.05c.34.27.73.46 1.17.6a6.13 6.13 0 0 0 1.45.17 7.3 7.3 0 0 0 3.5-.81 12.04 12.04 0 0 0 2.82-2.2v-4.62zm-12.65-9.1a12.72 12.72 0 0 1 3.99-2.66c1.42-.59 3-.88 4.72-.88 1.25 0 2.36.2 3.33.61a6.81 6.81 0 0 1 3.94 4.38c.33 1.04.5 2.19.5 3.43V93h-1.74a1.8 1.8 0 0 1-.88-.18c-.2-.13-.36-.38-.48-.74l-.44-2.12-1.72 1.46a9.48 9.48 0 0 1-3.74 1.7c-.69.15-1.46.23-2.3.23-.87 0-1.69-.12-2.45-.35a5.33 5.33 0 0 1-3.34-2.93 6.62 6.62 0 0 1-.49-2.64c0-.88.25-1.72.73-2.53a6.33 6.33 0 0 1 2.35-2.17c1.09-.63 2.5-1.15 4.25-1.54a31.2 31.2 0 0 1 6.42-.7v-1.75c0-1.73-.37-3.03-1.12-3.91-.75-.9-1.84-1.34-3.28-1.34-.97 0-1.78.12-2.44.37-.64.23-1.2.5-1.7.81l-1.22.82c-.34.23-.68.35-1.02.35-.26 0-.49-.07-.68-.2a1.88 1.88 0 0 1-.48-.53l-.7-1.25zM40.98 32.25c0 2.36-.38 4.53-1.12 6.51a14.26 14.26 0 0 1-8.1 8.4c-1.9.78-4.02 1.17-6.34 1.17a16.6 16.6 0 0 1-6.33-1.17 14.31 14.31 0 0 1-8.08-8.4 18.29 18.29 0 0 1-1.12-6.51c0-2.36.38-4.53 1.12-6.5.75-1.97 1.8-3.67 3.17-5.1a14.32 14.32 0 0 1 4.9-3.34c1.92-.8 4.03-1.19 6.34-1.19 2.32 0 4.43.4 6.34 1.19 1.92.8 3.56 1.9 4.93 3.34a14.87 14.87 0 0 1 3.17 5.1 18.1 18.1 0 0 1 1.12 6.5zm-4.38 0c0-1.94-.26-3.68-.8-5.22a10.91 10.91 0 0 0-2.24-3.89 9.68 9.68 0 0 0-3.52-2.46 11.95 11.95 0 0 0-4.62-.86c-1.68 0-3.21.28-4.6.86a9.88 9.88 0 0 0-3.54 2.46 10.91 10.91 0 0 0-2.24 3.9c-.53 1.53-.8 3.27-.8 5.2 0 1.94.27 3.68.8 5.22a11.17 11.17 0 0 0 2.24 3.9 10.01 10.01 0 0 0 3.55 2.44c1.38.56 2.9.83 4.6.83s3.24-.27 4.61-.83a9.8 9.8 0 0 0 3.52-2.44 11.17 11.17 0 0 0 2.25-3.9c.53-1.54.8-3.28.8-5.21zm26.22-6.54V48H60.5c-.56 0-.9-.27-1.05-.81l-.31-2.4a12.45 12.45 0 0 1-3.26 2.6c-1.2.64-2.58.96-4.13.96-1.22 0-2.3-.2-3.24-.6a6.52 6.52 0 0 1-2.33-1.7 7.37 7.37 0 0 1-1.43-2.67c-.3-1.04-.46-2.2-.46-3.45V25.7h3.91v14.22c0 1.68.38 2.99 1.15 3.91.77.93 1.96 1.39 3.54 1.39 1.16 0 2.24-.27 3.23-.82a10.42 10.42 0 0 0 2.8-2.28V25.7h3.91zm8.61 4.47a9.94 9.94 0 0 1 2.6-3.56 5.64 5.64 0 0 1 3.76-1.3c.47 0 .92.05 1.34.15.44.1.83.27 1.17.49l-.3 2.92c-.09.37-.3.55-.66.55-.2 0-.5-.04-.9-.13a6.21 6.21 0 0 0-3.24.18 4.23 4.23 0 0 0-1.47.92c-.42.4-.81.9-1.17 1.5-.33.58-.64 1.26-.92 2.02V48H67.7V25.71h2.25c.42 0 .72.08.88.25.16.16.27.44.33.83l.26 3.39zm61.16-13.7L122.75 48h-3.82l-7.99-24.05a21.95 21.95 0 0 1-.42-1.58 38.36 38.36 0 0 1-.44 1.58L102.05 48h-3.83L88.4 16.47h3.54c.38 0 .7.1.95.29.26.2.43.43.5.73l6.52 21.9.28 1.28.29 1.46.3-1.46.38-1.27 7.41-21.91c.1-.25.26-.48.51-.69.27-.22.58-.33.95-.33h1.23c.38 0 .69.1.92.29a1.77 1.77 0 0 1 .53.73l7.4 21.9a28.4 28.4 0 0 1 .68 2.62 29.52 29.52 0 0 1 .52-2.61l6.54-21.91a1.31 1.31 0 0 1 .48-.7c.27-.21.58-.32.95-.32h3.32zm9.35 8.88c1.63 0 3.1.27 4.4.82a9.43 9.43 0 0 1 5.46 5.94c.5 1.4.74 2.98.74 4.73 0 1.76-.25 3.34-.74 4.75a9.43 9.43 0 0 1-5.46 5.92c-1.3.52-2.77.79-4.4.79-1.64 0-3.12-.27-4.44-.8a9.42 9.42 0 0 1-3.35-2.3c-.92-1-1.63-2.2-2.13-3.61-.49-1.41-.73-3-.73-4.75s.24-3.33.73-4.73c.5-1.43 1.2-2.64 2.13-3.63a9.4 9.4 0 0 1 3.35-2.31c1.32-.55 2.8-.82 4.44-.82zm0 19.89c2.2 0 3.84-.73 4.93-2.2 1.08-1.48 1.63-3.54 1.63-6.18 0-2.66-.55-4.72-1.63-6.2-1.09-1.49-2.73-2.23-4.93-2.23-1.12 0-2.09.2-2.93.57a5.71 5.71 0 0 0-2.06 1.65 7.5 7.5 0 0 0-1.24 2.67c-.26 1.04-.4 2.22-.4 3.54 0 2.64.55 4.7 1.64 6.18 1.1 1.47 2.76 2.2 4.99 2.2zm17.97-15.07a9.94 9.94 0 0 1 2.6-3.56 5.64 5.64 0 0 1 3.76-1.3c.47 0 .91.05 1.34.15.44.1.83.27 1.16.49l-.28 2.92c-.09.37-.31.55-.66.55-.2 0-.5-.04-.9-.13a6.2 6.2 0 0 0-3.24.18 4.23 4.23 0 0 0-1.47.92c-.43.4-.82.9-1.17 1.5a13.1 13.1 0 0 0-.92 2.02V48h-3.94V25.71h2.24c.43 0 .72.08.88.25.17.16.28.44.33.83l.27 3.39zm15.04-14.59V48h-3.92V15.6h3.92zm19.55 15.43a6.22 6.22 0 0 0-2.38-2.05 6.7 6.7 0 0 0-2.86-.6c-2.07 0-3.66.75-4.77 2.23-1.12 1.48-1.68 3.6-1.68 6.33 0 1.46.13 2.7.38 3.74a7.29 7.29 0 0 0 1.1 2.56 4.35 4.35 0 0 0 1.78 1.45c.7.3 1.5.46 2.4.46 1.29 0 2.41-.3 3.36-.88a9.6 9.6 0 0 0 2.67-2.49V31.02zm3.91-15.43V48h-2.33c-.56 0-.9-.27-1.06-.81l-.35-2.71a12.13 12.13 0 0 1-3.25 2.77 8.28 8.28 0 0 1-4.23 1.06 7.31 7.31 0 0 1-6.14-2.9c-.73-.96-1.3-2.15-1.69-3.57a18.35 18.35 0 0 1 .07-9.48 11.29 11.29 0 0 1 1.89-3.7 8.7 8.7 0 0 1 7.06-3.34 7.96 7.96 0 0 1 6.12 2.62V15.59h3.91zM46.61 70.71V93H42.7V70.71h3.91zm.84-7c0 .39-.08.75-.24 1.09a2.81 2.81 0 0 1-1.52 1.47 2.67 2.67 0 0 1-2.16 0 2.9 2.9 0 0 1-1.45-1.47 2.67 2.67 0 0 1 0-2.16c.15-.35.35-.65.6-.9.25-.27.53-.47.85-.62a2.67 2.67 0 0 1 2.16 0c.35.15.65.35.9.62.27.25.47.55.62.9.16.34.24.7.24 1.08zm7.97 10.24c.49-.54 1-1.04 1.54-1.48a9.85 9.85 0 0 1 3.66-1.84 8.96 8.96 0 0 1 5.43.35c.94.4 1.72.97 2.33 1.71a7.36 7.36 0 0 1 1.43 2.67c.32 1.04.49 2.19.49 3.45V93h-3.94V78.81c0-1.69-.4-3-1.17-3.92-.76-.93-1.93-1.4-3.5-1.4a6.6 6.6 0 0 0-3.25.83c-1 .56-1.92 1.31-2.77 2.27V93h-3.94V70.71h2.35c.56 0 .9.28 1.04.82l.3 2.42zm57.7 3.3c0 2.36-.37 4.5-1.11 6.44a14.3 14.3 0 0 1-3.17 4.98 14.1 14.1 0 0 1-4.93 3.2c-1.9.76-4.02 1.13-6.33 1.13H85.8V61.47h11.77c2.31 0 4.42.39 6.33 1.15a13.8 13.8 0 0 1 8.1 8.18 17.75 17.75 0 0 1 1.12 6.45zm-4.37 0c0-1.94-.26-3.67-.8-5.2a10.94 10.94 0 0 0-2.23-3.87 9.57 9.57 0 0 0-3.53-2.42 12.23 12.23 0 0 0-4.61-.83h-7.5v24.62h7.5c1.7 0 3.24-.28 4.61-.84a9.7 9.7 0 0 0 3.53-2.4 10.94 10.94 0 0 0 2.24-3.87c.53-1.53.8-3.26.8-5.2zm19.8 5.72c-1.8.06-3.34.2-4.62.44-1.26.22-2.3.51-3.1.88-.8.36-1.37.8-1.74 1.3-.35.5-.53 1.05-.53 1.67 0 .58.1 1.1.3 1.52a3 3 0 0 0 .76 1.05c.34.27.73.46 1.17.6a6.13 6.13 0 0 0 1.45.17 7.28 7.28 0 0 0 3.5-.81 11.95 11.95 0 0 0 2.82-2.2v-4.62zm-12.65-9.11a12.73 12.73 0 0 1 3.98-2.66c1.43-.59 3-.88 4.73-.88 1.25 0 2.36.2 3.33.61a6.81 6.81 0 0 1 3.94 4.38c.33 1.04.5 2.19.5 3.43V93h-1.74a1.8 1.8 0 0 1-.88-.18c-.2-.13-.36-.38-.48-.74l-.44-2.12-1.72 1.46a9.48 9.48 0 0 1-3.74 1.7c-.69.15-1.46.23-2.3.23-.87 0-1.69-.12-2.45-.35a5.34 5.34 0 0 1-3.34-2.93 6.64 6.64 0 0 1-.49-2.64c0-.88.25-1.72.73-2.53a6.33 6.33 0 0 1 2.35-2.17c1.09-.63 2.5-1.15 4.25-1.54 1.75-.41 3.89-.65 6.42-.7v-1.75c0-1.73-.37-3.03-1.12-3.91-.75-.9-1.84-1.34-3.28-1.34-.97 0-1.78.12-2.44.37-.64.23-1.2.5-1.7.81l-1.23.82c-.33.23-.67.35-1 .35-.27 0-.5-.07-.69-.2a2.1 2.1 0 0 1-.48-.53l-.7-1.25zm27.67 19.5c-1.76 0-3.12-.5-4.07-1.48-.94-.98-1.41-2.4-1.41-4.25V74h-2.68a.9.9 0 0 1-.6-.2c-.16-.14-.24-.36-.24-.66v-1.56l3.65-.46.9-6.89a.9.9 0 0 1 .29-.52.88.88 0 0 1 .62-.22H142v7.67h6.44V74H142v13.38c0 .94.22 1.63.68 2.09.45.45 1.04.68 1.76.68a3.21 3.21 0 0 0 1.85-.53l.55-.35c.16-.12.3-.18.41-.18.2 0 .4.13.55.38l1.15 1.87a7.45 7.45 0 0 1-2.44 1.5 8.53 8.53 0 0 1-2.95.52zm19.68-10.4c-1.8.07-3.34.21-4.62.45-1.26.22-2.3.51-3.1.88-.8.36-1.37.8-1.74 1.3-.35.5-.53 1.05-.53 1.67 0 .58.1 1.1.3 1.52a2.9 2.9 0 0 0 .76 1.05c.34.27.73.46 1.17.6a6.13 6.13 0 0 0 1.45.17 7.3 7.3 0 0 0 3.5-.81 12.04 12.04 0 0 0 2.82-2.2v-4.62zm-12.65-9.1a12.72 12.72 0 0 1 3.99-2.66c1.42-.59 3-.88 4.72-.88 1.25 0 2.36.2 3.33.61a6.81 6.81 0 0 1 3.94 4.38c.33 1.04.5 2.19.5 3.43V93h-1.74a1.8 1.8 0 0 1-.88-.18c-.2-.13-.36-.38-.48-.74l-.44-2.12-1.72 1.46a9.48 9.48 0 0 1-3.74 1.7c-.69.15-1.46.23-2.3.23-.87 0-1.69-.12-2.45-.35a5.33 5.33 0 0 1-3.34-2.93 6.62 6.62 0 0 1-.49-2.64c0-.88.25-1.72.73-2.53a6.33 6.33 0 0 1 2.35-2.17c1.09-.63 2.5-1.15 4.25-1.54a31.2 31.2 0 0 1 6.42-.7v-1.75c0-1.73-.37-3.03-1.12-3.91-.75-.9-1.84-1.34-3.28-1.34-.97 0-1.78.12-2.44.37-.64.23-1.2.5-1.7.81l-1.22.82c-.34.23-.68.35-1.02.35-.26 0-.49-.07-.68-.2a1.88 1.88 0 0 1-.48-.53l-.7-1.25zM40.98 32.25c0 2.36-.38 4.53-1.12 6.51a14.26 14.26 0 0 1-8.1 8.4c-1.9.78-4.02 1.17-6.34 1.17a16.6 16.6 0 0 1-6.33-1.17 14.31 14.31 0 0 1-8.08-8.4 18.29 18.29 0 0 1-1.12-6.51c0-2.36.38-4.53 1.12-6.5.75-1.97 1.8-3.67 3.17-5.1a14.32 14.32 0 0 1 4.9-3.34c1.92-.8 4.03-1.19 6.34-1.19 2.32 0 4.43.4 6.34 1.19 1.92.8 3.56 1.9 4.93 3.34a14.87 14.87 0 0 1 3.17 5.1 18.1 18.1 0 0 1 1.12 6.5zm-4.38 0c0-1.94-.26-3.68-.8-5.22a10.91 10.91 0 0 0-2.24-3.89 9.68 9.68 0 0 0-3.52-2.46 11.95 11.95 0 0 0-4.62-.86c-1.68 0-3.21.28-4.6.86a9.88 9.88 0 0 0-3.54 2.46 10.91 10.91 0 0 0-2.24 3.9c-.53 1.53-.8 3.27-.8 5.2 0 1.94.27 3.68.8 5.22a11.17 11.17 0 0 0 2.24 3.9 10.01 10.01 0 0 0 3.55 2.44c1.38.56 2.9.83 4.6.83s3.24-.27 4.61-.83a9.8 9.8 0 0 0 3.52-2.44 11.17 11.17 0 0 0 2.25-3.9c.53-1.54.8-3.28.8-5.21zm26.22-6.54V48H60.5c-.56 0-.9-.27-1.05-.81l-.31-2.4a12.45 12.45 0 0 1-3.26 2.6c-1.2.64-2.58.96-4.13.96-1.22 0-2.3-.2-3.24-.6a6.52 6.52 0 0 1-2.33-1.7 7.37 7.37 0 0 1-1.43-2.67c-.3-1.04-.46-2.2-.46-3.45V25.7h3.91v14.22c0 1.68.38 2.99 1.15 3.91.77.93 1.96 1.39 3.54 1.39 1.16 0 2.24-.27 3.23-.82a10.42 10.42 0 0 0 2.8-2.28V25.7h3.91zm8.61 4.47a9.94 9.94 0 0 1 2.6-3.56 5.64 5.64 0 0 1 3.76-1.3c.47 0 .92.05 1.34.15.44.1.83.27 1.17.49l-.3 2.92c-.09.37-.3.55-.66.55-.2 0-.5-.04-.9-.13a6.21 6.21 0 0 0-3.24.18 4.23 4.23 0 0 0-1.47.92c-.42.4-.81.9-1.17 1.5-.33.58-.64 1.26-.92 2.02V48H67.7V25.71h2.25c.42 0 .72.08.88.25.16.16.27.44.33.83l.26 3.39zm61.16-13.7L122.75 48h-3.82l-7.99-24.05a21.95 21.95 0 0 1-.42-1.58 38.36 38.36 0 0 1-.44 1.58L102.05 48h-3.83L88.4 16.47h3.54c.38 0 .7.1.95.29.26.2.43.43.5.73l6.52 21.9.28 1.28.29 1.46.3-1.46.38-1.27 7.41-21.91c.1-.25.26-.48.51-.69.27-.22.58-.33.95-.33h1.23c.38 0 .69.1.92.29a1.77 1.77 0 0 1 .53.73l7.4 21.9a28.4 28.4 0 0 1 .68 2.62 29.52 29.52 0 0 1 .52-2.61l6.54-21.91a1.31 1.31 0 0 1 .48-.7c.27-.21.58-.32.95-.32h3.32zm9.35 8.88c1.63 0 3.1.27 4.4.82a9.43 9.43 0 0 1 5.46 5.94c.5 1.4.74 2.98.74 4.73 0 1.76-.25 3.34-.74 4.75a9.43 9.43 0 0 1-5.46 5.92c-1.3.52-2.77.79-4.4.79-1.64 0-3.12-.27-4.44-.8a9.42 9.42 0 0 1-3.35-2.3c-.92-1-1.63-2.2-2.13-3.61-.49-1.41-.73-3-.73-4.75s.24-3.33.73-4.73c.5-1.43 1.2-2.64 2.13-3.63a9.4 9.4 0 0 1 3.35-2.31c1.32-.55 2.8-.82 4.44-.82zm0 19.89c2.2 0 3.84-.73 4.93-2.2 1.08-1.48 1.63-3.54 1.63-6.18 0-2.66-.55-4.72-1.63-6.2-1.09-1.49-2.73-2.23-4.93-2.23-1.12 0-2.09.2-2.93.57a5.71 5.71 0 0 0-2.06 1.65 7.5 7.5 0 0 0-1.24 2.67c-.26 1.04-.4 2.22-.4 3.54 0 2.64.55 4.7 1.64 6.18 1.1 1.47 2.76 2.2 4.99 2.2zm17.97-15.07a9.94 9.94 0 0 1 2.6-3.56 5.64 5.64 0 0 1 3.76-1.3c.47 0 .91.05 1.34.15.44.1.83.27 1.16.49l-.28 2.92c-.09.37-.31.55-.66.55-.2 0-.5-.04-.9-.13a6.2 6.2 0 0 0-3.24.18 4.23 4.23 0 0 0-1.47.92c-.43.4-.82.9-1.17 1.5a13.1 13.1 0 0 0-.92 2.02V48h-3.94V25.71h2.24c.43 0 .72.08.88.25.17.16.28.44.33.83l.27 3.39zm15.04-14.59V48h-3.92V15.6h3.92zm19.55 15.43a6.22 6.22 0 0 0-2.38-2.05 6.7 6.7 0 0 0-2.86-.6c-2.07 0-3.66.75-4.77 2.23-1.12 1.48-1.68 3.6-1.68 6.33 0 1.46.13 2.7.38 3.74a7.29 7.29 0 0 0 1.1 2.56 4.35 4.35 0 0 0 1.78 1.45c.7.3 1.5.46 2.4.46 1.29 0 2.41-.3 3.36-.88a9.6 9.6 0 0 0 2.67-2.49V31.02zm3.91-15.43V48h-2.33c-.56 0-.9-.27-1.06-.81l-.35-2.71a12.13 12.13 0 0 1-3.25 2.77 8.28 8.28 0 0 1-4.23 1.06 7.31 7.31 0 0 1-6.14-2.9c-.73-.96-1.3-2.15-1.69-3.57a18.35 18.35 0 0 1 .07-9.48 11.29 11.29 0 0 1 1.89-3.7 8.7 8.7 0 0 1 7.06-3.34 7.96 7.96 0 0 1 6.12 2.62V15.59h3.91zM46.61 70.71V93H42.7V70.71h3.91zm.84-7c0 .39-.08.75-.24 1.09a2.81 2.81 0 0 1-1.52 1.47 2.67 2.67 0 0 1-2.16 0 2.9 2.9 0 0 1-1.45-1.47 2.67 2.67 0 0 1 0-2.16c.15-.35.35-.65.6-.9.25-.27.53-.47.85-.62a2.67 2.67 0 0 1 2.16 0c.35.15.65.35.9.62.27.25.47.55.62.9.16.34.24.7.24 1.08zm7.97 10.24c.49-.54 1-1.04 1.54-1.48a9.85 9.85 0 0 1 3.66-1.84 8.96 8.96 0 0 1 5.43.35c.94.4 1.72.97 2.33 1.71a7.36 7.36 0 0 1 1.43 2.67c.32 1.04.49 2.19.49 3.45V93h-3.94V78.81c0-1.69-.4-3-1.17-3.92-.76-.93-1.93-1.4-3.5-1.4a6.6 6.6 0 0 0-3.25.83c-1 .56-1.92 1.31-2.77 2.27V93h-3.94V70.71h2.35c.56 0 .9.28 1.04.82l.3 2.42zm57.7 3.3c0 2.36-.37 4.5-1.11 6.44a14.3 14.3 0 0 1-3.17 4.98 14.1 14.1 0 0 1-4.93 3.2c-1.9.76-4.02 1.13-6.33 1.13H85.8V61.47h11.77c2.31 0 4.42.39 6.33 1.15a13.8 13.8 0 0 1 8.1 8.18 17.75 17.75 0 0 1 1.12 6.45zm-4.37 0c0-1.94-.26-3.67-.8-5.2a10.94 10.94 0 0 0-2.23-3.87 9.57 9.57 0 0 0-3.53-2.42 12.23 12.23 0 0 0-4.61-.83h-7.5v24.62h7.5c1.7 0 3.24-.28 4.61-.84a9.7 9.7 0 0 0 3.53-2.4 10.94 10.94 0 0 0 2.24-3.87c.53-1.53.8-3.26.8-5.2zm19.8 5.72c-1.8.06-3.34.2-4.62.44-1.26.22-2.3.51-3.1.88-.8.36-1.37.8-1.74 1.3-.35.5-.53 1.05-.53 1.67 0 .58.1 1.1.3 1.52a3 3 0 0 0 .76 1.05c.34.27.73.46 1.17.6a6.13 6.13 0 0 0 1.45.17 7.28 7.28 0 0 0 3.5-.81 11.95 11.95 0 0 0 2.82-2.2v-4.62zm-12.65-9.11a12.73 12.73 0 0 1 3.98-2.66c1.43-.59 3-.88 4.73-.88 1.25 0 2.36.2 3.33.61a6.81 6.81 0 0 1 3.94 4.38c.33 1.04.5 2.19.5 3.43V93h-1.74a1.8 1.8 0 0 1-.88-.18c-.2-.13-.36-.38-.48-.74l-.44-2.12-1.72 1.46a9.48 9.48 0 0 1-3.74 1.7c-.69.15-1.46.23-2.3.23-.87 0-1.69-.12-2.45-.35a5.34 5.34 0 0 1-3.34-2.93 6.64 6.64 0 0 1-.49-2.64c0-.88.25-1.72.73-2.53a6.33 6.33 0 0 1 2.35-2.17c1.09-.63 2.5-1.15 4.25-1.54 1.75-.41 3.89-.65 6.42-.7v-1.75c0-1.73-.37-3.03-1.12-3.91-.75-.9-1.84-1.34-3.28-1.34-.97 0-1.78.12-2.44.37-.64.23-1.2.5-1.7.81l-1.23.82c-.33.23-.67.35-1 .35-.27 0-.5-.07-.69-.2a2.1 2.1 0 0 1-.48-.53l-.7-1.25zm27.67 19.5c-1.76 0-3.12-.5-4.07-1.48-.94-.98-1.41-2.4-1.41-4.25V74h-2.68a.9.9 0 0 1-.6-.2c-.16-.14-.24-.36-.24-.66v-1.56l3.65-.46.9-6.89a.9.9 0 0 1 .29-.52.88.88 0 0 1 .62-.22H142v7.67h6.44V74H142v13.38c0 .94.22 1.63.68 2.09.45.45 1.04.68 1.76.68a3.21 3.21 0 0 0 1.85-.53l.55-.35c.16-.12.3-.18.41-.18.2 0 .4.13.55.38l1.15 1.87a7.45 7.45 0 0 1-2.44 1.5 8.53 8.53 0 0 1-2.95.52zm19.68-10.4c-1.8.07-3.34.21-4.62.45-1.26.22-2.3.51-3.1.88-.8.36-1.37.8-1.74 1.3-.35.5-.53 1.05-.53 1.67 0 .58.1 1.1.3 1.52a2.9 2.9 0 0 0 .76 1.05c.34.27.73.46 1.17.6a6.13 6.13 0 0 0 1.45.17 7.3 7.3 0 0 0 3.5-.81 12.04 12.04 0 0 0 2.82-2.2v-4.62zm-12.65-9.1a12.72 12.72 0 0 1 3.99-2.66c1.42-.59 3-.88 4.72-.88 1.25 0 2.36.2 3.33.61a6.81 6.81 0 0 1 3.94 4.38c.33 1.04.5 2.19.5 3.43V93h-1.74a1.8 1.8 0 0 1-.88-.18c-.2-.13-.36-.38-.48-.74l-.44-2.12-1.72 1.46a9.48 9.48 0 0 1-3.74 1.7c-.69.15-1.46.23-2.3.23-.87 0-1.69-.12-2.45-.35a5.33 5.33 0 0 1-3.34-2.93 6.62 6.62 0 0 1-.49-2.64c0-.88.25-1.72.73-2.53a6.33 6.33 0 0 1 2.35-2.17c1.09-.63 2.5-1.15 4.25-1.54a31.2 31.2 0 0 1 6.42-.7v-1.75c0-1.73-.37-3.03-1.12-3.91-.75-.9-1.84-1.34-3.28-1.34-.97 0-1.78.12-2.44.37-.64.23-1.2.5-1.7.81l-1.22.82c-.34.23-.68.35-1.02.35-.26 0-.49-.07-.68-.2a1.88 1.88 0 0 1-.48-.53l-.7-1.25z" fill="#fff"/><path fill="#D42B21" d="M0 106.79h210V120H0z"/></g><defs><clipPath id="a"><path fill="#fff" d="M0 0h210v120H0z"/></clipPath></defs></svg></g><a href="/grapher/nuclear-primary-energy" style="font-family:&quot;Playfair Display&quot;,Georgia,&quot;Times New Roman&quot;,serif" target="_blank" rel="noopener"><text font-size="25.2" x="15" y="36.9" fill="#555"><tspan x="15" y="36.92">Share of primary energy from nuclear</tspan></text></a></g><g class="LineChart"><defs><clipPath id="b"><path d="M42.56 56h840v484.28h-840z"/></clipPath></defs><path fill="transparent" d="M15 66h820v464.28H15z"/><g class="DualAxisView"><g class="HorizontalAxis"><path stroke="#999" d="M52.6 509.08v5M703.6 509.08v5M226.9 509.08v5M343.2 509.08v5M459.5 509.08v5M575.7 509.08v5"/><text x="52.56" y="530.28" fill="#666" text-anchor="start" font-size="16.2">1965</text><text x="703.61" y="530.28" fill="#666" text-anchor="end" font-size="16.2">2021</text><text x="226.9" y="530.28" fill="#666" text-anchor="middle" font-size="16.2">1980</text><text x="343.2" y="530.28" fill="#666" text-anchor="middle" font-size="16.2">1990</text><text x="459.5" y="530.28" fill="#666" text-anchor="middle" font-size="16.2">2000</text><text x="575.7" y="530.28" fill="#666" text-anchor="middle" font-size="16.2">2010</text></g><g class="VerticalAxis" text-anchor="end" fill="#666" font-size="16.2"><text x="47.56" y="509.1" dy=".32em">0%</text><text x="47.56" y="454.6" dy=".32em">5%</text><text x="47.56" y="400.1" dy=".32em">10%</text><text x="47.56" y="345.6" dy=".32em">15%</text><text x="47.56" y="291.1" dy=".32em">20%</text><text x="47.56" y="236.6" dy=".32em">25%</text><text x="47.56" y="182" dy=".32em">30%</text><text x="47.56" y="127.5" dy=".32em">35%</text><text x="47.56" y="73" dy=".32em">40%</text></g><g class="AxisGridLines horizontalLines"><path stroke="#999" d="M52.56 509.1h651.05"/><path stroke="#ddd" stroke-dasharray="3,2" d="M52.56 454.6h651.05M52.56 400.1h651.05M52.56 345.6h651.05M52.56 291.1h651.05M52.56 236.6h651.05M52.56 182h651.05M52.56 127.5h651.05M52.56 73h651.05"/></g></g><g clip-path="url(#b)"><g class="LineLabels" style="cursor:default"><g class="legendMark"><g class="indicator"><path d="M707.61 111.7h27" stroke="#999" stroke-width=".5" fill="none"/></g><text font-size="13.5" font-weight="400" x="738.6" y="116.7" fill="#2c8465"><tspan x="738.61" y="116.7">France</tspan></text></g><g class="legendMark"><g class="indicator"><path d="M707.61 422.3h13.5v-4.72h13.5" stroke="#999" stroke-width=".5" fill="none"/></g><text font-size="13.5" font-weight="400" x="738.6" y="422.6" fill="#cf0a66"><tspan x="738.61" y="422.57">United States</tspan></text></g><g class="legendMark"><g class="indicator"><path d="M707.61 444.1h20.25v-11.02h6.75" stroke="#999" stroke-width=".5" fill="none"/></g><text font-size="13.5" font-weight="400" x="738.6" y="438.1" fill="#286bbb"><tspan x="738.61" y="438.07">Canada</tspan></text></g><g class="legendMark"><g class="indicator"><path d="M707.61 446.1h20.25v2.48h6.75" stroke="#999" stroke-width=".5" fill="none"/></g><text font-size="13.5" font-weight="400" x="738.6" y="453.6" fill="#c15065"><tspan x="738.61" y="453.57">United Kingdom</tspan></text></g><g class="legendMark"><g class="indicator"><path d="M707.61 455.3h13.5v8.78h13.5" stroke="#999" stroke-width=".5" fill="none"/></g><text font-size="13.5" font-weight="400" x="738.6" y="469.1" fill="#be5915"><tspan x="738.61" y="469.07">Germany</tspan></text></g><g class="legendMark"><g class="indicator"><path d="M707.61 475.1h6.75v4.48h20.25" stroke="#999" stroke-width=".5" fill="none"/></g><text font-size="13.5" font-weight="400" x="738.6" y="484.6" fill="#18470f"><tspan x="738.61" y="484.57">Japan</tspan></text></g><g class="legendMark"><g class="indicator"><path d="M707.61 509.1h13.5v-6.77h13.5" stroke="#999" stroke-width=".5" fill="none"/></g><text font-size="13.5" font-weight="400" x="738.6" y="507.3" fill="#6d3e91"><tspan x="738.61" y="507.32">Italy</tspan></text></g></g><g class="Lines"><g><path stroke-linecap="round" stroke-linejoin="round" stroke="#ddd" d="m52.6 508.8 11.6-.1 11.6.1 11.6-1.4 11.7.7 11.6-.7 11.6-5.2 11.6-3.9 11.7-10.2 11.6 1.4 11.6 2.6 11.6-5.5 11.7-9.7 11.6-5.2 11.6-3.6 11.6-2.4 11.7-2.6 11.6.6 11.6-12.4 11.7-.6 11.6-7.1 11.6-10.9 11.6-3.9 11.7-2.5 11.6 4.3 11.6 4 11.6-11.9 11.7 6.6 11.6-11 11.6-9.6 11.6 11.5 11.7 6.9 11.6 9.4 11.6 8.8 11.6.2 11.7 2.3 11.6-4.2 11.6 3.5 11.6 1.2 11.7-11 11.6-.4 11.6-4.6 11.6 6.7 11.7-2.4 11.6 2.2 11.6.7 11.7.8 11.6-.3 11.6-4.1 11.6-2 11.7 4.7 11.6-.3 11.6 1.6 11.6 1.4 11.7-.4 11.6-1.6 11.6 4.8" fill="none" stroke-width="1"/></g><g><path stroke-linecap="round" stroke-linejoin="round" stroke="#ddd" d="m52.6 509 11.6-.8h11.6l11.6-.4 11.7.1 11.6-3.2 11.6-2.7 11.6-1 11.7.7 11.6-7.6 11.6-5 11.6-6.2 11.7 2 11.6-19.2 11.6-6.2 11.6-10.3 11.7-4.7 11.6-13.8 11.6-7.9 11.7-7.1 11.6-16.8 11.6-3.8 11.6-13.5 11.7 17 11.6-3.7 11.6-1.1 11.6-5.7 11.7-3.5 11.6-15.5 11.6-.7 11.6-8 11.7-2.1 11.6-9.4 11.6-5.7 11.6 7 11.7.8 11.6-1.2 11.6 4.3 11.6 41.9 11.7-25 11.6-2.1 11.6-4.8 11.6 11.5 11.7 11.6 11.6-22.9 11.6 1.1 11.7 59.7 11.6 74.7 11.6 1.7 11.6 7.6 11.7-2.4 11.6-7.1 11.6-5.8 11.6-10.5 11.7-9.4 11.6 10.4 11.6-9.2" fill="none" stroke-width="1"/></g><g><path stroke-linecap="round" stroke-linejoin="round" stroke="#ddd" d="m52.6 508.3 11.6-.4 11.6-.4 11.6-.9 11.7-.1 11.6-1.3 11.6-2.8 11.6-2.3 11.7-4.4 11.6-5.3 11.6-10.4 11.6-1.5 11.7-8.5 11.6-3.1 11.6 3.7 11.6-.9 11.7-4.7 11.6-3.6 11.6-2 11.7-3 11.6-9.2 11.6-4.3 11.6-4.2 11.7-7.6 11.6 1.5 11.6-6.6 11.6-5.3 11.7.4 11.6 3 11.6-2.6 11.6-2.5 11.7 2.8 11.6 6.5 11.6-5.2 11.6-5.3 11.7-1.2 11.6-3.5 11.6.6 11.6 2.9 11.7-.5 11.6 1.4 11.6-.8 11.6-.4 11.7-1.7 11.6-3.4 11.6 2.8 11.7 1.8 11.6.5 11.6.7 11.6.6 11.7-.3 11.6-.5 11.6.9 11.6 3.5 11.7-.5 11.6-4.5 11.6 6.1" fill="none" stroke-width="1"/></g><g><path stroke-linecap="round" stroke-linejoin="round" stroke="#ddd" d="m52.6 497.4 11.6-.2 11.6 3 11.6 2.1 11.7 2.7 11.6-2.9 11.6-.1 11.6-.2 11.7 1.3 11.6-.5 11.6-1 11.6.4 11.7.8 11.6-1.7 11.6 3.4 11.6.6 11.7-1 11.6-7.7 11.6 1.6 11.7-1.9 11.6-.3 11.6-2.8 11.6 15.8 11.7.3H692" fill="none" stroke-width="1"/></g><g><path stroke-linecap="round" stroke-linejoin="round" stroke="#ddd" d="m52.6 509 11.6-.2 11.6-1 11.6-.4 11.7-2.8 11.6-1.1 11.6.3 11.6-2.5 11.7-1.6 11.6-2 11.6-8.5 11.6-2.9 11.7-9.1 11.6-.8 11.6-4.1 11.6-3.8 11.7-8.8 11.6-8.7 11.6-2 11.7-17.4 11.6-22.5 11.6 5.1 11.6-7.3 11.7-10.5 11.6-4.7 11.6 4.9 11.6 1 11.7-11 11.6 3.5 11.6.7 11.6-1.6 11.7-1.9 11.6-8.2 11.6 5.6 11.6-8.3 11.7 1.1 11.6 2 11.6 4.1 11.6.6 11.7-.7 11.6 2.3 11.6.7 11.6 15.8 11.7-4.4 11.6 4.4 11.6.7 11.7 22.1 11.6 8.1 11.6 4.2 11.6-2.6 11.7 5.8 11.6 6.8 11.6 7.1 11.6-.9 11.7-.5 11.6 4.4 11.6-2.2" fill="none" stroke-width="1"/></g><g><path stroke-linecap="round" stroke-linejoin="round" stroke="#ddd" d="m52.6 507 11.6-1.1 11.6-1.3 11.6-1.9 11.7-.3 11.6-3.1 11.6-5.6 11.6-7.1 11.7 1.5 11.6-.3 11.6-6.8 11.6 5.3 11.7-2.8 11.6-15.9 11.6-11.4 11.6-29.2 11.7-60.5 11.6-10.5 11.6-44.8 11.7-55.9 11.6-34.1 11.6-30.7 11.6-8.1 11.7-7.9 11.6-30 11.6-.9 11.6 2.7 11.7-4.7 11.6-32.2 11.6 4 11.6-9.3 11.7-6.3 11.6-3.8 11.6 17 11.6.6 11.7-15.8 11.6 1.9 11.6-17 11.6 2.9L506 83l11.6-2.9 11.6.5 11.6 5.1 11.7 4.2 11.6 7.8 11.6-3.7 11.7-28L599 85.9l11.6 8.6L622.2 66l11.7 4.3 11.6 29.8 11.6 4.3 11.6-4.8 11.7 6.8L692 114l11.6-2.3" fill="none" stroke-width="1"/></g><g><path stroke-linecap="round" stroke-linejoin="round" stroke="#ddd" d="m52.6 488.9 11.6-6.7 11.6-4 11.6-2.7 11.7-2.5 11.6 4.5 11.6-2.5 11.6-1.7 11.7 3.3 11.6-8.6 11.6 1.8 11.6-6.6 11.7-4 11.6 3.8 11.6.8 11.6-2.8 11.7-2.6 11.6-8.8 11.6-7.8 11.7-5.5 11.6-6.3 11.6 4.7 11.6 4.7 11.7-9.3 11.6-10.2 11.6 8.1 11.6-4.1 11.7-8.2 11.6-14h11.6l11.6-.4 11.7-1.6 11.6-6.1 11.6-.3 11.6 4.5 11.7 12.5 11.6-4.2 11.6 1.1 11.6 1.3 11.7 10.9 11.6-.2 11.6 6.3 11.6 12 11.7 11.3 11.6-22.7 11.6 10.5 11.7-12 11.6-.2h11.6l11.6 4.2 11.7-6.6 11.6-2.1 11.6 2 11.6 6.7 11.7 9.6 11.6.4 11.6 7.5" fill="none" stroke-width="1"/></g><g><path fill="none" stroke-linecap="butt" stroke-linejoin="round" stroke="#fff" stroke-width="2.5" d="m52.6 508.8 11.6-.1 11.6.1 11.6-1.4 11.7.7 11.6-.7 11.6-5.2 11.6-3.9 11.7-10.2 11.6 1.4 11.6 2.6 11.6-5.5 11.7-9.7 11.6-5.2 11.6-3.6 11.6-2.4 11.7-2.6 11.6.6 11.6-12.4 11.7-.6 11.6-7.1 11.6-10.9 11.6-3.9 11.7-2.5 11.6 4.3 11.6 4 11.6-11.9 11.7 6.6 11.6-11 11.6-9.6 11.6 11.5 11.7 6.9 11.6 9.4 11.6 8.8 11.6.2 11.7 2.3 11.6-4.2 11.6 3.5 11.6 1.2 11.7-11 11.6-.4 11.6-4.6 11.6 6.7 11.7-2.4 11.6 2.2 11.6.7 11.7.8 11.6-.3 11.6-4.1 11.6-2 11.7 4.7 11.6-.3 11.6 1.6 11.6 1.4 11.7-.4 11.6-1.6 11.6 4.8"/><path stroke-linejoin="round" stroke-width="1.5" stroke="#286BBB" fill="none" stroke-linecap="butt" d="m52.6 508.8 11.6-.1 11.6.1 11.6-1.4 11.7.7 11.6-.7 11.6-5.2 11.6-3.9 11.7-10.2 11.6 1.4 11.6 2.6 11.6-5.5 11.7-9.7 11.6-5.2 11.6-3.6 11.6-2.4 11.7-2.6 11.6.6 11.6-12.4 11.7-.6 11.6-7.1 11.6-10.9 11.6-3.9 11.7-2.5 11.6 4.3 11.6 4 11.6-11.9 11.7 6.6 11.6-11 11.6-9.6 11.6 11.5 11.7 6.9 11.6 9.4 11.6 8.8 11.6.2 11.7 2.3 11.6-4.2 11.6 3.5 11.6 1.2 11.7-11 11.6-.4 11.6-4.6 11.6 6.7 11.7-2.4 11.6 2.2 11.6.7 11.7.8 11.6-.3 11.6-4.1 11.6-2 11.7 4.7 11.6-.3 11.6 1.6 11.6 1.4 11.7-.4 11.6-1.6 11.6 4.8"/><g fill="#286BBB"><circle cx="52.6" cy="508.8" r="1.8"/><circle cx="64.2" cy="508.7" r="1.8"/><circle cx="75.8" cy="508.8" r="1.8"/><circle cx="87.4" cy="507.4" r="1.8"/><circle cx="99.1" cy="508.1" r="1.8"/><circle cx="110.7" cy="507.4" r="1.8"/><circle cx="122.3" cy="502.2" r="1.8"/><circle cx="133.9" cy="498.3" r="1.8"/><circle cx="145.6" cy="488.1" r="1.8"/><circle cx="157.2" cy="489.5" r="1.8"/><circle cx="168.8" cy="492.1" r="1.8"/><circle cx="180.4" cy="486.6" r="1.8"/><circle cx="192.1" cy="476.9" r="1.8"/><circle cx="203.7" cy="471.7" r="1.8"/><circle cx="215.3" cy="468.1" r="1.8"/><circle cx="226.9" cy="465.7" r="1.8"/><circle cx="238.6" cy="463.1" r="1.8"/><circle cx="250.2" cy="463.7" r="1.8"/><circle cx="261.8" cy="451.3" r="1.8"/><circle cx="273.5" cy="450.7" r="1.8"/><circle cx="285.1" cy="443.6" r="1.8"/><circle cx="296.7" cy="432.7" r="1.8"/><circle cx="308.3" cy="428.8" r="1.8"/><circle cx="320" cy="426.3" r="1.8"/><circle cx="331.6" cy="430.6" r="1.8"/><circle cx="343.2" cy="434.6" r="1.8"/><circle cx="354.8" cy="422.7" r="1.8"/><circle cx="366.5" cy="429.3" r="1.8"/><circle cx="378.1" cy="418.3" r="1.8"/><circle cx="389.7" cy="408.7" r="1.8"/><circle cx="401.3" cy="420.2" r="1.8"/><circle cx="413" cy="427.1" r="1.8"/><circle cx="424.6" cy="436.5" r="1.8"/><circle cx="436.2" cy="445.3" r="1.8"/><circle cx="447.8" cy="445.5" r="1.8"/><circle cx="459.5" cy="447.8" r="1.8"/><circle cx="471.1" cy="443.6" r="1.8"/><circle cx="482.7" cy="447.1" r="1.8"/><circle cx="494.3" cy="448.3" r="1.8"/><circle cx="506" cy="437.3" r="1.8"/><circle cx="517.6" cy="436.9" r="1.8"/><circle cx="529.2" cy="432.3" r="1.8"/><circle cx="540.8" cy="439" r="1.8"/><circle cx="552.5" cy="436.6" r="1.8"/><circle cx="564.1" cy="438.8" r="1.8"/><circle cx="575.7" cy="439.5" r="1.8"/><circle cx="587.4" cy="440.3" r="1.8"/><circle cx="599" cy="440" r="1.8"/><circle cx="610.6" cy="435.9" r="1.8"/><circle cx="622.2" cy="433.9" r="1.8"/><circle cx="633.9" cy="438.6" r="1.8"/><circle cx="645.5" cy="438.3" r="1.8"/><circle cx="657.1" cy="439.9" r="1.8"/><circle cx="668.7" cy="441.3" r="1.8"/><circle cx="680.4" cy="440.9" r="1.8"/><circle cx="692" cy="439.3" r="1.8"/><circle cx="703.6" cy="444.1" r="1.8"/></g></g><g><path fill="none" stroke-linecap="butt" stroke-linejoin="round" stroke="#fff" stroke-width="2.5" d="m52.6 509 11.6-.8h11.6l11.6-.4 11.7.1 11.6-3.2 11.6-2.7 11.6-1 11.7.7 11.6-7.6 11.6-5 11.6-6.2 11.7 2 11.6-19.2 11.6-6.2 11.6-10.3 11.7-4.7 11.6-13.8 11.6-7.9 11.7-7.1 11.6-16.8 11.6-3.8 11.6-13.5 11.7 17 11.6-3.7 11.6-1.1 11.6-5.7 11.7-3.5 11.6-15.5 11.6-.7 11.6-8 11.7-2.1 11.6-9.4 11.6-5.7 11.6 7 11.7.8 11.6-1.2 11.6 4.3 11.6 41.9 11.7-25 11.6-2.1 11.6-4.8 11.6 11.5 11.7 11.6 11.6-22.9 11.6 1.1 11.7 59.7 11.6 74.7 11.6 1.7 11.6 7.6 11.7-2.4 11.6-7.1 11.6-5.8 11.6-10.5 11.7-9.4 11.6 10.4 11.6-9.2"/><path stroke-linejoin="round" stroke-width="1.5" stroke="#18470F" fill="none" stroke-linecap="butt" d="m52.6 509 11.6-.8h11.6l11.6-.4 11.7.1 11.6-3.2 11.6-2.7 11.6-1 11.7.7 11.6-7.6 11.6-5 11.6-6.2 11.7 2 11.6-19.2 11.6-6.2 11.6-10.3 11.7-4.7 11.6-13.8 11.6-7.9 11.7-7.1 11.6-16.8 11.6-3.8 11.6-13.5 11.7 17 11.6-3.7 11.6-1.1 11.6-5.7 11.7-3.5 11.6-15.5 11.6-.7 11.6-8 11.7-2.1 11.6-9.4 11.6-5.7 11.6 7 11.7.8 11.6-1.2 11.6 4.3 11.6 41.9 11.7-25 11.6-2.1 11.6-4.8 11.6 11.5 11.7 11.6 11.6-22.9 11.6 1.1 11.7 59.7 11.6 74.7 11.6 1.7 11.6 7.6 11.7-2.4 11.6-7.1 11.6-5.8 11.6-10.5 11.7-9.4 11.6 10.4 11.6-9.2"/><g fill="#18470F"><circle cx="52.6" cy="509" r="1.8"/><circle cx="64.2" cy="508.2" r="1.8"/><circle cx="75.8" cy="508.2" r="1.8"/><circle cx="87.4" cy="507.8" r="1.8"/><circle cx="99.1" cy="507.9" r="1.8"/><circle cx="110.7" cy="504.7" r="1.8"/><circle cx="122.3" cy="502" r="1.8"/><circle cx="133.9" cy="501" r="1.8"/><circle cx="145.6" cy="501.7" r="1.8"/><circle cx="157.2" cy="494.1" r="1.8"/><circle cx="168.8" cy="489.1" r="1.8"/><circle cx="180.4" cy="482.9" r="1.8"/><circle cx="192.1" cy="484.9" r="1.8"/><circle cx="203.7" cy="465.7" r="1.8"/><circle cx="215.3" cy="459.5" r="1.8"/><circle cx="226.9" cy="449.2" r="1.8"/><circle cx="238.6" cy="444.5" r="1.8"/><circle cx="250.2" cy="430.7" r="1.8"/><circle cx="261.8" cy="422.8" r="1.8"/><circle cx="273.5" cy="415.7" r="1.8"/><circle cx="285.1" cy="398.9" r="1.8"/><circle cx="296.7" cy="395.1" r="1.8"/><circle cx="308.3" cy="381.6" r="1.8"/><circle cx="320" cy="398.6" r="1.8"/><circle cx="331.6" cy="394.9" r="1.8"/><circle cx="343.2" cy="393.8" r="1.8"/><circle cx="354.8" cy="388.1" r="1.8"/><circle cx="366.5" cy="384.6" r="1.8"/><circle cx="378.1" cy="369.1" r="1.8"/><circle cx="389.7" cy="368.4" r="1.8"/><circle cx="401.3" cy="360.4" r="1.8"/><circle cx="413" cy="358.3" r="1.8"/><circle cx="424.6" cy="348.9" r="1.8"/><circle cx="436.2" cy="343.2" r="1.8"/><circle cx="447.8" cy="350.2" r="1.8"/><circle cx="459.5" cy="351" r="1.8"/><circle cx="471.1" cy="349.8" r="1.8"/><circle cx="482.7" cy="354.1" r="1.8"/><circle cx="494.3" cy="396" r="1.8"/><circle cx="506" cy="371" r="1.8"/><circle cx="517.6" cy="368.9" r="1.8"/><circle cx="529.2" cy="364.1" r="1.8"/><circle cx="540.8" cy="375.6" r="1.8"/><circle cx="552.5" cy="387.2" r="1.8"/><circle cx="564.1" cy="364.3" r="1.8"/><circle cx="575.7" cy="365.4" r="1.8"/><circle cx="587.4" cy="425.1" r="1.8"/><circle cx="599" cy="499.8" r="1.8"/><circle cx="610.6" cy="501.5" r="1.8"/><circle cx="622.2" cy="509.1" r="1.8"/><circle cx="633.9" cy="506.7" r="1.8"/><circle cx="645.5" cy="499.6" r="1.8"/><circle cx="657.1" cy="493.8" r="1.8"/><circle cx="668.7" cy="483.3" r="1.8"/><circle cx="680.4" cy="473.9" r="1.8"/><circle cx="692" cy="484.3" r="1.8"/><circle cx="703.6" cy="475.1" r="1.8"/></g></g><g><path fill="none" stroke-linecap="butt" stroke-linejoin="round" stroke="#fff" stroke-width="2.5" d="m52.6 508.3 11.6-.4 11.6-.4 11.6-.9 11.7-.1 11.6-1.3 11.6-2.8 11.6-2.3 11.7-4.4 11.6-5.3 11.6-10.4 11.6-1.5 11.7-8.5 11.6-3.1 11.6 3.7 11.6-.9 11.7-4.7 11.6-3.6 11.6-2 11.7-3 11.6-9.2 11.6-4.3 11.6-4.2 11.7-7.6 11.6 1.5 11.6-6.6 11.6-5.3 11.7.4 11.6 3 11.6-2.6 11.6-2.5 11.7 2.8 11.6 6.5 11.6-5.2 11.6-5.3 11.7-1.2 11.6-3.5 11.6.6 11.6 2.9 11.7-.5 11.6 1.4 11.6-.8 11.6-.4 11.7-1.7 11.6-3.4 11.6 2.8 11.7 1.8 11.6.5 11.6.7 11.6.6 11.7-.3 11.6-.5 11.6.9 11.6 3.5 11.7-.5 11.6-4.5 11.6 6.1"/><path stroke-linejoin="round" stroke-width="1.5" stroke="#CF0A66" fill="none" stroke-linecap="butt" d="m52.6 508.3 11.6-.4 11.6-.4 11.6-.9 11.7-.1 11.6-1.3 11.6-2.8 11.6-2.3 11.7-4.4 11.6-5.3 11.6-10.4 11.6-1.5 11.7-8.5 11.6-3.1 11.6 3.7 11.6-.9 11.7-4.7 11.6-3.6 11.6-2 11.7-3 11.6-9.2 11.6-4.3 11.6-4.2 11.7-7.6 11.6 1.5 11.6-6.6 11.6-5.3 11.7.4 11.6 3 11.6-2.6 11.6-2.5 11.7 2.8 11.6 6.5 11.6-5.2 11.6-5.3 11.7-1.2 11.6-3.5 11.6.6 11.6 2.9 11.7-.5 11.6 1.4 11.6-.8 11.6-.4 11.7-1.7 11.6-3.4 11.6 2.8 11.7 1.8 11.6.5 11.6.7 11.6.6 11.7-.3 11.6-.5 11.6.9 11.6 3.5 11.7-.5 11.6-4.5 11.6 6.1"/><g fill="#CF0A66"><circle cx="52.6" cy="508.3" r="1.8"/><circle cx="64.2" cy="507.9" r="1.8"/><circle cx="75.8" cy="507.5" r="1.8"/><circle cx="87.4" cy="506.6" r="1.8"/><circle cx="99.1" cy="506.5" r="1.8"/><circle cx="110.7" cy="505.2" r="1.8"/><circle cx="122.3" cy="502.4" r="1.8"/><circle cx="133.9" cy="500.1" r="1.8"/><circle cx="145.6" cy="495.7" r="1.8"/><circle cx="157.2" cy="490.4" r="1.8"/><circle cx="168.8" cy="480" r="1.8"/><circle cx="180.4" cy="478.5" r="1.8"/><circle cx="192.1" cy="470" r="1.8"/><circle cx="203.7" cy="466.9" r="1.8"/><circle cx="215.3" cy="470.6" r="1.8"/><circle cx="226.9" cy="469.7" r="1.8"/><circle cx="238.6" cy="465" r="1.8"/><circle cx="250.2" cy="461.4" r="1.8"/><circle cx="261.8" cy="459.4" r="1.8"/><circle cx="273.5" cy="456.4" r="1.8"/><circle cx="285.1" cy="447.2" r="1.8"/><circle cx="296.7" cy="442.9" r="1.8"/><circle cx="308.3" cy="438.7" r="1.8"/><circle cx="320" cy="431.1" r="1.8"/><circle cx="331.6" cy="432.6" r="1.8"/><circle cx="343.2" cy="426" r="1.8"/><circle cx="354.8" cy="420.7" r="1.8"/><circle cx="366.5" cy="421.1" r="1.8"/><circle cx="378.1" cy="424.1" r="1.8"/><circle cx="389.7" cy="421.5" r="1.8"/><circle cx="401.3" cy="419" r="1.8"/><circle cx="413" cy="421.8" r="1.8"/><circle cx="424.6" cy="428.3" r="1.8"/><circle cx="436.2" cy="423.1" r="1.8"/><circle cx="447.8" cy="417.8" r="1.8"/><circle cx="459.5" cy="416.6" r="1.8"/><circle cx="471.1" cy="413.1" r="1.8"/><circle cx="482.7" cy="413.7" r="1.8"/><circle cx="494.3" cy="416.6" r="1.8"/><circle cx="506" cy="416.1" r="1.8"/><circle cx="517.6" cy="417.5" r="1.8"/><circle cx="529.2" cy="416.7" r="1.8"/><circle cx="540.8" cy="416.3" r="1.8"/><circle cx="552.5" cy="414.6" r="1.8"/><circle cx="564.1" cy="411.2" r="1.8"/><circle cx="575.7" cy="414" r="1.8"/><circle cx="587.4" cy="415.8" r="1.8"/><circle cx="599" cy="416.3" r="1.8"/><circle cx="610.6" cy="417" r="1.8"/><circle cx="622.2" cy="417.6" r="1.8"/><circle cx="633.9" cy="417.3" r="1.8"/><circle cx="645.5" cy="416.8" r="1.8"/><circle cx="657.1" cy="417.7" r="1.8"/><circle cx="668.7" cy="421.2" r="1.8"/><circle cx="680.4" cy="420.7" r="1.8"/><circle cx="692" cy="416.2" r="1.8"/><circle cx="703.6" cy="422.3" r="1.8"/></g></g><g><path fill="none" stroke-linecap="butt" stroke-linejoin="round" stroke="#fff" stroke-width="2.5" d="m52.6 497.4 11.6-.2 11.6 3 11.6 2.1 11.7 2.7 11.6-2.9 11.6-.1 11.6-.2 11.7 1.3 11.6-.5 11.6-1 11.6.4 11.7.8 11.6-1.7 11.6 3.4 11.6.6 11.7-1 11.6-7.7 11.6 1.6 11.7-1.9 11.6-.3 11.6-2.8 11.6 15.8 11.7.3H692"/><path stroke-linejoin="round" stroke-width="1.5" stroke="#6D3E91" fill="none" stroke-linecap="butt" d="m52.6 497.4 11.6-.2 11.6 3 11.6 2.1 11.7 2.7 11.6-2.9 11.6-.1 11.6-.2 11.7 1.3 11.6-.5 11.6-1 11.6.4 11.7.8 11.6-1.7 11.6 3.4 11.6.6 11.7-1 11.6-7.7 11.6 1.6 11.7-1.9 11.6-.3 11.6-2.8 11.6 15.8 11.7.3H692"/><g fill="#6D3E91"><circle cx="52.6" cy="497.4" r="1.8"/><circle cx="64.2" cy="497.2" r="1.8"/><circle cx="75.8" cy="500.2" r="1.8"/><circle cx="87.4" cy="502.3" r="1.8"/><circle cx="99.1" cy="505" r="1.8"/><circle cx="110.7" cy="502.1" r="1.8"/><circle cx="122.3" cy="502" r="1.8"/><circle cx="133.9" cy="501.8" r="1.8"/><circle cx="145.6" cy="503.1" r="1.8"/><circle cx="157.2" cy="502.6" r="1.8"/><circle cx="168.8" cy="501.6" r="1.8"/><circle cx="180.4" cy="502" r="1.8"/><circle cx="192.1" cy="502.8" r="1.8"/><circle cx="203.7" cy="501.1" r="1.8"/><circle cx="215.3" cy="504.5" r="1.8"/><circle cx="226.9" cy="505.1" r="1.8"/><circle cx="238.6" cy="504.1" r="1.8"/><circle cx="250.2" cy="496.4" r="1.8"/><circle cx="261.8" cy="498" r="1.8"/><circle cx="273.5" cy="496.1" r="1.8"/><circle cx="285.1" cy="495.8" r="1.8"/><circle cx="296.7" cy="493" r="1.8"/><circle cx="308.3" cy="508.8" r="1.8"/><circle cx="320" cy="509.1" r="1.8"/><circle cx="331.6" cy="509.1" r="1.8"/><circle cx="343.2" cy="509.1" r="1.8"/><circle cx="354.8" cy="509.1" r="1.8"/><circle cx="366.5" cy="509.1" r="1.8"/><circle cx="378.1" cy="509.1" r="1.8"/><circle cx="389.7" cy="509.1" r="1.8"/><circle cx="401.3" cy="509.1" r="1.8"/><circle cx="413" cy="509.1" r="1.8"/><circle cx="424.6" cy="509.1" r="1.8"/><circle cx="436.2" cy="509.1" r="1.8"/><circle cx="447.8" cy="509.1" r="1.8"/><circle cx="459.5" cy="509.1" r="1.8"/><circle cx="471.1" cy="509.1" r="1.8"/><circle cx="482.7" cy="509.1" r="1.8"/><circle cx="494.3" cy="509.1" r="1.8"/><circle cx="506" cy="509.1" r="1.8"/><circle cx="517.6" cy="509.1" r="1.8"/><circle cx="529.2" cy="509.1" r="1.8"/><circle cx="540.8" cy="509.1" r="1.8"/><circle cx="552.5" cy="509.1" r="1.8"/><circle cx="564.1" cy="509.1" r="1.8"/><circle cx="575.7" cy="509.1" r="1.8"/><circle cx="587.4" cy="509.1" r="1.8"/><circle cx="599" cy="509.1" r="1.8"/><circle cx="610.6" cy="509.1" r="1.8"/><circle cx="622.2" cy="509.1" r="1.8"/><circle cx="633.9" cy="509.1" r="1.8"/><circle cx="645.5" cy="509.1" r="1.8"/><circle cx="657.1" cy="509.1" r="1.8"/><circle cx="668.7" cy="509.1" r="1.8"/><circle cx="680.4" cy="509.1" r="1.8"/><circle cx="692" cy="509.1" r="1.8"/></g></g><g><path fill="none" stroke-linecap="butt" stroke-linejoin="round" stroke="#fff" stroke-width="2.5" d="m52.6 509 11.6-.2 11.6-1 11.6-.4 11.7-2.8 11.6-1.1 11.6.3 11.6-2.5 11.7-1.6 11.6-2 11.6-8.5 11.6-2.9 11.7-9.1 11.6-.8 11.6-4.1 11.6-3.8 11.7-8.8 11.6-8.7 11.6-2 11.7-17.4 11.6-22.5 11.6 5.1 11.6-7.3 11.7-10.5 11.6-4.7 11.6 4.9 11.6 1 11.7-11 11.6 3.5 11.6.7 11.6-1.6 11.7-1.9 11.6-8.2 11.6 5.6 11.6-8.3 11.7 1.1 11.6 2 11.6 4.1 11.6.6 11.7-.7 11.6 2.3 11.6.7 11.6 15.8 11.7-4.4 11.6 4.4 11.6.7 11.7 22.1 11.6 8.1 11.6 4.2 11.6-2.6 11.7 5.8 11.6 6.8 11.6 7.1 11.6-.9 11.7-.5 11.6 4.4 11.6-2.2"/><path stroke-linejoin="round" stroke-width="1.5" stroke="#BE5915" fill="none" stroke-linecap="butt" d="m52.6 509 11.6-.2 11.6-1 11.6-.4 11.7-2.8 11.6-1.1 11.6.3 11.6-2.5 11.7-1.6 11.6-2 11.6-8.5 11.6-2.9 11.7-9.1 11.6-.8 11.6-4.1 11.6-3.8 11.7-8.8 11.6-8.7 11.6-2 11.7-17.4 11.6-22.5 11.6 5.1 11.6-7.3 11.7-10.5 11.6-4.7 11.6 4.9 11.6 1 11.7-11 11.6 3.5 11.6.7 11.6-1.6 11.7-1.9 11.6-8.2 11.6 5.6 11.6-8.3 11.7 1.1 11.6 2 11.6 4.1 11.6.6 11.7-.7 11.6 2.3 11.6.7 11.6 15.8 11.7-4.4 11.6 4.4 11.6.7 11.7 22.1 11.6 8.1 11.6 4.2 11.6-2.6 11.7 5.8 11.6 6.8 11.6 7.1 11.6-.9 11.7-.5 11.6 4.4 11.6-2.2"/><g fill="#BE5915"><circle cx="52.6" cy="509" r="1.8"/><circle cx="64.2" cy="508.8" r="1.8"/><circle cx="75.8" cy="507.8" r="1.8"/><circle cx="87.4" cy="507.4" r="1.8"/><circle cx="99.1" cy="504.6" r="1.8"/><circle cx="110.7" cy="503.5" r="1.8"/><circle cx="122.3" cy="503.8" r="1.8"/><circle cx="133.9" cy="501.3" r="1.8"/><circle cx="145.6" cy="499.7" r="1.8"/><circle cx="157.2" cy="497.7" r="1.8"/><circle cx="168.8" cy="489.2" r="1.8"/><circle cx="180.4" cy="486.3" r="1.8"/><circle cx="192.1" cy="477.2" r="1.8"/><circle cx="203.7" cy="476.4" r="1.8"/><circle cx="215.3" cy="472.3" r="1.8"/><circle cx="226.9" cy="468.5" r="1.8"/><circle cx="238.6" cy="459.7" r="1.8"/><circle cx="250.2" cy="451" r="1.8"/><circle cx="261.8" cy="449" r="1.8"/><circle cx="273.5" cy="431.6" r="1.8"/><circle cx="285.1" cy="409.1" r="1.8"/><circle cx="296.7" cy="414.2" r="1.8"/><circle cx="308.3" cy="406.9" r="1.8"/><circle cx="320" cy="396.4" r="1.8"/><circle cx="331.6" cy="391.7" r="1.8"/><circle cx="343.2" cy="396.6" r="1.8"/><circle cx="354.8" cy="397.6" r="1.8"/><circle cx="366.5" cy="386.6" r="1.8"/><circle cx="378.1" cy="390.1" r="1.8"/><circle cx="389.7" cy="390.8" r="1.8"/><circle cx="401.3" cy="389.2" r="1.8"/><circle cx="413" cy="387.3" r="1.8"/><circle cx="424.6" cy="379.1" r="1.8"/><circle cx="436.2" cy="384.7" r="1.8"/><circle cx="447.8" cy="376.4" r="1.8"/><circle cx="459.5" cy="377.5" r="1.8"/><circle cx="471.1" cy="379.5" r="1.8"/><circle cx="482.7" cy="383.6" r="1.8"/><circle cx="494.3" cy="384.2" r="1.8"/><circle cx="506" cy="383.5" r="1.8"/><circle cx="517.6" cy="385.8" r="1.8"/><circle cx="529.2" cy="386.5" r="1.8"/><circle cx="540.8" cy="402.3" r="1.8"/><circle cx="552.5" cy="397.9" r="1.8"/><circle cx="564.1" cy="402.3" r="1.8"/><circle cx="575.7" cy="403" r="1.8"/><circle cx="587.4" cy="425.1" r="1.8"/><circle cx="599" cy="433.2" r="1.8"/><circle cx="610.6" cy="437.4" r="1.8"/><circle cx="622.2" cy="434.8" r="1.8"/><circle cx="633.9" cy="440.6" r="1.8"/><circle cx="645.5" cy="447.4" r="1.8"/><circle cx="657.1" cy="454.5" r="1.8"/><circle cx="668.7" cy="453.6" r="1.8"/><circle cx="680.4" cy="453.1" r="1.8"/><circle cx="692" cy="457.5" r="1.8"/><circle cx="703.6" cy="455.3" r="1.8"/></g></g><g><path fill="none" stroke-linecap="butt" stroke-linejoin="round" stroke="#fff" stroke-width="2.5" d="m52.6 507 11.6-1.1 11.6-1.3 11.6-1.9 11.7-.3 11.6-3.1 11.6-5.6 11.6-7.1 11.7 1.5 11.6-.3 11.6-6.8 11.6 5.3 11.7-2.8 11.6-15.9 11.6-11.4 11.6-29.2 11.7-60.5 11.6-10.5 11.6-44.8 11.7-55.9 11.6-34.1 11.6-30.7 11.6-8.1 11.7-7.9 11.6-30 11.6-.9 11.6 2.7 11.7-4.7 11.6-32.2 11.6 4 11.6-9.3 11.7-6.3 11.6-3.8 11.6 17 11.6.6 11.7-15.8 11.6 1.9 11.6-17 11.6 2.9L506 83l11.6-2.9 11.6.5 11.6 5.1 11.7 4.2 11.6 7.8 11.6-3.7 11.7-28L599 85.9l11.6 8.6L622.2 66l11.7 4.3 11.6 29.8 11.6 4.3 11.6-4.8 11.7 6.8L692 114l11.6-2.3"/><path stroke-linejoin="round" stroke-width="1.5" stroke="#2C8465" fill="none" stroke-linecap="butt" d="m52.6 507 11.6-1.1 11.6-1.3 11.6-1.9 11.7-.3 11.6-3.1 11.6-5.6 11.6-7.1 11.7 1.5 11.6-.3 11.6-6.8 11.6 5.3 11.7-2.8 11.6-15.9 11.6-11.4 11.6-29.2 11.7-60.5 11.6-10.5 11.6-44.8 11.7-55.9 11.6-34.1 11.6-30.7 11.6-8.1 11.7-7.9 11.6-30 11.6-.9 11.6 2.7 11.7-4.7 11.6-32.2 11.6 4 11.6-9.3 11.7-6.3 11.6-3.8 11.6 17 11.6.6 11.7-15.8 11.6 1.9 11.6-17 11.6 2.9L506 83l11.6-2.9 11.6.5 11.6 5.1 11.7 4.2 11.6 7.8 11.6-3.7 11.7-28L599 85.9l11.6 8.6L622.2 66l11.7 4.3 11.6 29.8 11.6 4.3 11.6-4.8 11.7 6.8L692 114l11.6-2.3"/><g fill="#2C8465"><circle cx="52.6" cy="507" r="1.8"/><circle cx="64.2" cy="505.9" r="1.8"/><circle cx="75.8" cy="504.6" r="1.8"/><circle cx="87.4" cy="502.7" r="1.8"/><circle cx="99.1" cy="502.4" r="1.8"/><circle cx="110.7" cy="499.3" r="1.8"/><circle cx="122.3" cy="493.7" r="1.8"/><circle cx="133.9" cy="486.6" r="1.8"/><circle cx="145.6" cy="488.1" r="1.8"/><circle cx="157.2" cy="487.8" r="1.8"/><circle cx="168.8" cy="481" r="1.8"/><circle cx="180.4" cy="486.3" r="1.8"/><circle cx="192.1" cy="483.5" r="1.8"/><circle cx="203.7" cy="467.6" r="1.8"/><circle cx="215.3" cy="456.2" r="1.8"/><circle cx="226.9" cy="427" r="1.8"/><circle cx="238.6" cy="366.5" r="1.8"/><circle cx="250.2" cy="356" r="1.8"/><circle cx="261.8" cy="311.2" r="1.8"/><circle cx="273.5" cy="255.3" r="1.8"/><circle cx="285.1" cy="221.2" r="1.8"/><circle cx="296.7" cy="190.5" r="1.8"/><circle cx="308.3" cy="182.4" r="1.8"/><circle cx="320" cy="174.5" r="1.8"/><circle cx="331.6" cy="144.5" r="1.8"/><circle cx="343.2" cy="143.6" r="1.8"/><circle cx="354.8" cy="146.3" r="1.8"/><circle cx="366.5" cy="141.6" r="1.8"/><circle cx="378.1" cy="109.4" r="1.8"/><circle cx="389.7" cy="113.4" r="1.8"/><circle cx="401.3" cy="104.1" r="1.8"/><circle cx="413" cy="97.8" r="1.8"/><circle cx="424.6" cy="94" r="1.8"/><circle cx="436.2" cy="111" r="1.8"/><circle cx="447.8" cy="111.6" r="1.8"/><circle cx="459.5" cy="95.8" r="1.8"/><circle cx="471.1" cy="97.7" r="1.8"/><circle cx="482.7" cy="80.7" r="1.8"/><circle cx="494.3" cy="83.6" r="1.8"/><circle cx="506" cy="83" r="1.8"/><circle cx="517.6" cy="80.1" r="1.8"/><circle cx="529.2" cy="80.6" r="1.8"/><circle cx="540.8" cy="85.7" r="1.8"/><circle cx="552.5" cy="89.9" r="1.8"/><circle cx="564.1" cy="97.7" r="1.8"/><circle cx="575.7" cy="94" r="1.8"/><circle cx="587.4" cy="66" r="1.8"/><circle cx="599" cy="85.9" r="1.8"/><circle cx="610.6" cy="94.5" r="1.8"/><circle cx="622.2" cy="66" r="1.8"/><circle cx="633.9" cy="70.3" r="1.8"/><circle cx="645.5" cy="100.1" r="1.8"/><circle cx="657.1" cy="104.4" r="1.8"/><circle cx="668.7" cy="99.6" r="1.8"/><circle cx="680.4" cy="106.4" r="1.8"/><circle cx="692" cy="114" r="1.8"/><circle cx="703.6" cy="111.7" r="1.8"/></g></g><g><path fill="none" stroke-linecap="butt" stroke-linejoin="round" stroke="#fff" stroke-width="2.5" d="m52.6 488.9 11.6-6.7 11.6-4 11.6-2.7 11.7-2.5 11.6 4.5 11.6-2.5 11.6-1.7 11.7 3.3 11.6-8.6 11.6 1.8 11.6-6.6 11.7-4 11.6 3.8 11.6.8 11.6-2.8 11.7-2.6 11.6-8.8 11.6-7.8 11.7-5.5 11.6-6.3 11.6 4.7 11.6 4.7 11.7-9.3 11.6-10.2 11.6 8.1 11.6-4.1 11.7-8.2 11.6-14h11.6l11.6-.4 11.7-1.6 11.6-6.1 11.6-.3 11.6 4.5 11.7 12.5 11.6-4.2 11.6 1.1 11.6 1.3 11.7 10.9 11.6-.2 11.6 6.3 11.6 12 11.7 11.3 11.6-22.7 11.6 10.5 11.7-12 11.6-.2h11.6l11.6 4.2 11.7-6.6 11.6-2.1 11.6 2 11.6 6.7 11.7 9.6 11.6.4 11.6 7.5"/><path stroke-linejoin="round" stroke-width="1.5" stroke="#C15065" fill="none" stroke-linecap="butt" d="m52.6 488.9 11.6-6.7 11.6-4 11.6-2.7 11.7-2.5 11.6 4.5 11.6-2.5 11.6-1.7 11.7 3.3 11.6-8.6 11.6 1.8 11.6-6.6 11.7-4 11.6 3.8 11.6.8 11.6-2.8 11.7-2.6 11.6-8.8 11.6-7.8 11.7-5.5 11.6-6.3 11.6 4.7 11.6 4.7 11.7-9.3 11.6-10.2 11.6 8.1 11.6-4.1 11.7-8.2 11.6-14h11.6l11.6-.4 11.7-1.6 11.6-6.1 11.6-.3 11.6 4.5 11.7 12.5 11.6-4.2 11.6 1.1 11.6 1.3 11.7 10.9 11.6-.2 11.6 6.3 11.6 12 11.7 11.3 11.6-22.7 11.6 10.5 11.7-12 11.6-.2h11.6l11.6 4.2 11.7-6.6 11.6-2.1 11.6 2 11.6 6.7 11.7 9.6 11.6.4 11.6 7.5"/><g fill="#C15065"><circle cx="52.6" cy="488.9" r="1.8"/><circle cx="64.2" cy="482.2" r="1.8"/><circle cx="75.8" cy="478.2" r="1.8"/><circle cx="87.4" cy="475.5" r="1.8"/><circle cx="99.1" cy="473" r="1.8"/><circle cx="110.7" cy="477.5" r="1.8"/><circle cx="122.3" cy="475" r="1.8"/><circle cx="133.9" cy="473.3" r="1.8"/><circle cx="145.6" cy="476.6" r="1.8"/><circle cx="157.2" cy="468" r="1.8"/><circle cx="168.8" cy="469.8" r="1.8"/><circle cx="180.4" cy="463.2" r="1.8"/><circle cx="192.1" cy="459.2" r="1.8"/><circle cx="203.7" cy="463" r="1.8"/><circle cx="215.3" cy="463.8" r="1.8"/><circle cx="226.9" cy="461" r="1.8"/><circle cx="238.6" cy="458.4" r="1.8"/><circle cx="250.2" cy="449.6" r="1.8"/><circle cx="261.8" cy="441.8" r="1.8"/><circle cx="273.5" cy="436.3" r="1.8"/><circle cx="285.1" cy="430" r="1.8"/><circle cx="296.7" cy="434.7" r="1.8"/><circle cx="308.3" cy="439.4" r="1.8"/><circle cx="320" cy="430.1" r="1.8"/><circle cx="331.6" cy="419.9" r="1.8"/><circle cx="343.2" cy="428" r="1.8"/><circle cx="354.8" cy="423.9" r="1.8"/><circle cx="366.5" cy="415.7" r="1.8"/><circle cx="378.1" cy="401.7" r="1.8"/><circle cx="389.7" cy="401.7" r="1.8"/><circle cx="401.3" cy="401.3" r="1.8"/><circle cx="413" cy="399.7" r="1.8"/><circle cx="424.6" cy="393.6" r="1.8"/><circle cx="436.2" cy="393.3" r="1.8"/><circle cx="447.8" cy="397.8" r="1.8"/><circle cx="459.5" cy="410.3" r="1.8"/><circle cx="471.1" cy="406.1" r="1.8"/><circle cx="482.7" cy="407.2" r="1.8"/><circle cx="494.3" cy="408.5" r="1.8"/><circle cx="506" cy="419.4" r="1.8"/><circle cx="517.6" cy="419.2" r="1.8"/><circle cx="529.2" cy="425.5" r="1.8"/><circle cx="540.8" cy="437.5" r="1.8"/><circle cx="552.5" cy="448.8" r="1.8"/><circle cx="564.1" cy="426.1" r="1.8"/><circle cx="575.7" cy="436.6" r="1.8"/><circle cx="587.4" cy="424.6" r="1.8"/><circle cx="599" cy="424.4" r="1.8"/><circle cx="610.6" cy="424.4" r="1.8"/><circle cx="622.2" cy="428.6" r="1.8"/><circle cx="633.9" cy="422" r="1.8"/><circle cx="645.5" cy="419.9" r="1.8"/><circle cx="657.1" cy="421.9" r="1.8"/><circle cx="668.7" cy="428.6" r="1.8"/><circle cx="680.4" cy="438.2" r="1.8"/><circle cx="692" cy="438.6" r="1.8"/><circle cx="703.6" cy="446.1" r="1.8"/></g></g></g></g></g><g class="SourcesFooter" style="fill:#777"><g style="fill:#777"><text font-size="12.6" x="15" y="566.9"><tspan x="15" y="566.87">Source: Our World in Data based on BP Statistical Review of World Energy (2022)</tspan></text></g><text x="15" y="582.7" style="font-size:12.6px;line-height:1.1"><tspan x="15" y="582.7">Note: Primary energy is calculated using the &apos;substitution method&apos;, which accounts for the energy production inefficiencies of fossil fuels.</tspan></text><text font-size="12.6" x="627.9" y="566.9"><tspan x="627.86" y="566.87"><a target="_blank" style="fill:#777" href="https://ourworldindata.org/energy">OurWorldInData.org/energy</a>  <a style="fill:#777" class="cclogo" href="http://creativecommons.org/licenses/by/4.0/deed.en_US" target="_blank">CC BY</a></tspan></text></g></svg>