<svg xmlns="http://www.w3.org/2000/svg" version="1.1" style="font-family:Lato,'Helvetica Neue',Helvetica,Arial,sans-serif;font-size:18px;background-color:#fff;text-rendering:geometricPrecision;-webkit-font-smoothing:antialiased" width="850" height="600" viewBox="0 0 850 600"><defs><pattern id="d" patternUnits="userSpaceOnUse" width="4" height="4" patternTransform="rotate(-45 2 2)"><path d="M-1 2h6" stroke="#ccc" stroke-width=".7"/></pattern></defs><g class="HeaderView"><g transform="matrix(.29 0 0 .29 774 15)"><svg className="owidLog" width="210" height="120" viewBox="0 0 210 120" fill="none" xmlns="http://www.w3.org/2000/svg"><g clip-path="url(#a)"><path d="M0 0h210v107.89H0V0z" fill="#002147"/><path d="M40.98 32.25c0 2.36-.38 4.53-1.12 6.51a14.26 14.26 0 0 1-8.1 8.4c-1.9.78-4.02 1.17-6.34 1.17a16.6 16.6 0 0 1-6.33-1.17 14.31 14.31 0 0 1-8.08-8.4 18.29 18.29 0 0 1-1.12-6.51c0-2.36.38-4.53 1.12-6.5.75-1.97 1.8-3.67 3.17-5.1a14.32 14.32 0 0 1 4.9-3.34c1.92-.8 4.03-1.19 6.34-1.19 2.32 0 4.43.4 6.34 1.19 1.92.8 3.56 1.9 4.93 3.34a14.87 14.87 0 0 1 3.17 5.1 18.1 18.1 0 0 1 1.12 6.5zm-4.38 0c0-1.94-.26-3.68-.8-5.22a10.91 10.91 0 0 0-2.24-3.89 9.68 9.68 0 0 0-3.52-2.46 11.95 11.95 0 0 0-4.62-.86c-1.68 0-3.21.28-4.6.86a9.88 9.88 0 0 0-3.54 2.46 10.91 10.91 0 0 0-2.24 3.9c-.53 1.53-.8 3.27-.8 5.2 0 1.94.27 3.68.8 5.22a11.17 11.17 0 0 0 2.24 3.9 10.01 10.01 0 0 0 3.55 2.44c1.38.56 2.9.83 4.6.83s3.24-.27 4.61-.83a9.8 9.8 0 0 0 3.52-2.44 11.17 11.17 0 0 0 2.25-3.9c.53-1.54.8-3.28.8-5.21zm26.22-6.54V48H60.5c-.56 0-.9-.27-1.05-.81l-.31-2.4a12.45 12.45 0 0 1-3.26 2.6c-1.2.64-2.58.96-4.13.96-1.22 0-2.3-.2-3.24-.6a6.52 6.52 0 0 1-2.33-1.7 7.37 7.37 0 0 1-1.43-2.67c-.3-1.04-.46-2.2-.46-3.45V25.7h3.91v14.22c0 1.68.38 2.99 1.15 3.91.77.93 1.96 1.39 3.54 1.39 1.16 0 2.24-.27 3.23-.82a10.42 10.42 0 0 0 2.8-2.28V25.7h3.91zm8.61 4.47a9.94 9.94 0 0 1 2.6-3.56 5.64 5.64 0 0 1 3.76-1.3c.47 0 .92.05 1.34.15.44.1.83.27 1.17.49l-.3 2.92c-.09.37-.3.55-.66.55-.2 0-.5-.04-.9-.13a6.21 6.21 0 0 0-3.24.18 4.23 4.23 0 0 0-1.47.92c-.42.4-.81.9-1.17 1.5-.33.58-.64 1.26-.92 2.02V48H67.7V25.71h2.25c.42 0 .72.08.88.25.16.16.27.44.33.83l.26 3.39zm61.16-13.7L122.75 48h-3.82l-7.99-24.05a21.95 21.95 0 0 1-.42-1.58 38.36 38.36 0 0 1-.44 1.58L102.05 48h-3.83L88.4 16.47h3.54c.38 0 .7.1.95.29.26.2.43.43.5.73l6.52 21.9.28 1.28.29 1.46.3-1.46.38-1.27 7.41-21.91c.1-.25.26-.48.51-.69.27-.22.58-.33.95-.33h1.23c.38 0 .69.1.92.29a1.77 1.77 0 0 1 .53.73l7.4 21.9a28.4 28.4 0 0 1 .68 2.62 29.52 29.52 0 0 1 .52-2.61l6.54-21.91a1.31 1.31 0 0 1 .48-.7c.27-.21.58-.32.95-.32h3.32zm9.35 8.88c1.63 0 3.1.27 4.4.82a9.43 9.43 0 0 1 5.46 5.94c.5 1.4.74 2.98.74 4.73 0 1.76-.25 3.34-.74 4.75a9.43 9.43 0 0 1-5.46 5.92c-1.3.52-2.77.79-4.4.79-1.64 0-3.12-.27-4.44-.8a9.42 9.42 0 0 1-3.35-2.3c-.92-1-1.63-2.2-2.13-3.61-.49-1.41-.73-3-.73-4.75s.24-3.33.73-4.73c.5-1.43 1.2-2.64 2.13-3.63a9.4 9.4 0 0 1 3.35-2.31c1.32-.55 2.8-.82 4.44-.82zm0 19.89c2.2 0 3.84-.73 4.93-2.2 1.08-1.48 1.63-3.54 1.63-6.18 0-2.66-.55-4.72-1.63-6.2-1.09-1.49-2.73-2.23-4.93-2.23-1.12 0-2.09.2-2.93.57a5.71 5.71 0 0 0-2.06 1.65 7.5 7.5 0 0 0-1.24 2.67c-.26 1.04-.4 2.22-.4 3.54 0 2.64.55 4.7 1.64 6.18 1.1 1.47 2.76 2.2 4.99 2.2zm17.97-15.07a9.94 9.94 0 0 1 2.6-3.56 5.64 5.64 0 0 1 3.76-1.3c.47 0 .91.05 1.34.15.44.1.83.27 1.16.49l-.28 2.92c-.09.37-.31.55-.66.55-.2 0-.5-.04-.9-.13a6.2 6.2 0 0 0-3.24.18 4.23 4.23 0 0 0-1.47.92c-.43.4-.82.9-1.17 1.5a13.1 13.1 0 0 0-.92 2.02V48h-3.94V25.71h2.24c.43 0 .72.08.88.25.17.16.28.44.33.83l.27 3.39zm15.04-14.59V48h-3.92V15.6h3.92zm19.55 15.43a6.22 6.22 0 0 0-2.38-2.05 6.7 6.7 0 0 0-2.86-.6c-2.07 0-3.66.75-4.77 2.23-1.12 1.48-1.68 3.6-1.68 6.33 0 1.46.13 2.7.38 3.74a7.29 7.29 0 0 0 1.1 2.56 4.35 4.35 0 0 0 1.78 1.45c.7.3 1.5.46 2.4.46 1.29 0 2.41-.3 3.36-.88a9.6 9.6 0 0 0 2.67-2.49V31.02zm3.91-15.43V48h-2.33c-.56 0-.9-.27-1.06-.81l-.35-2.71a12.13 12.13 0 0 1-3.25 2.77 8.28 8.28 0 0 1-4.23 1.06 7.31 7.31 0 0 1-6.14-2.9c-.73-.96-1.3-2.15-1.69-3.57a18.35 18.35 0 0 1 .07-9.48 11.29 11.29 0 0 1 1.89-3.7 8.7 8.7 0 0 1 7.06-3.34 7.96 7.96 0 0 1 6.12 2.62V15.59h3.91zM46.61 70.71V93H42.7V70.71h3.91zm.84-7c0 .39-.08.75-.24 1.09a2.81 2.81 0 0 1-1.52 1.47 2.67 2.67 0 0 1-2.16 0 2.9 2.9 0 0 1-1.45-1.47 2.67 2.67 0 0 1 0-2.16c.15-.35.35-.65.6-.9.25-.27.53-.47.85-.62a2.67 2.67 0 0 1 2.16 0c.35.15.65.35.9.62.27.25.47.55.62.9.16.34.24.7.24 1.08zm7.97 10.24c.49-.54 1-1.04 1.54-1.48a9.85 9.85 0 0 1 3.66-1.84 8.96 8.96 0 0 1 5.43.35c.94.4 1.72.97 2.33 1.71a7.36 7.36 0 0 1 1.43 2.67c.32 1.04.49 2.19.49 3.45V93h-3.94V78.81c0-1.69-.4-3-1.17-3.92-.76-.93-1.93-1.4-3.5-1.4a6.6 6.6 0 0 0-3.25.83c-1 .56-1.92 1.31-2.77 2.27V93h-3.94V70.71h2.35c.56 0 .9.28 1.04.82l.3 2.42zm57.7 3.3c0 2.36-.37 4.5-1.11 6.44a14.3 14.3 0 0 1-3.17 4.98 14.1 14.1 0 0 1-4.93 3.2c-1.9.76-4.02 1.13-6.33 1.13H85.8V61.47h11.77c2.31 0 4.42.39 6.33 1.15a13.8 13.8 0 0 1 8.1 8.18 17.75 17.75 0 0 1 1.12 6.45zm-4.37 0c0-1.94-.26-3.67-.8-5.2a10.94 10.94 0 0 0-2.23-3.87 9.57 9.57 0 0 0-3.53-2.42 12.23 12.23 0 0 0-4.61-.83h-7.5v24.62h7.5c1.7 0 3.24-.28 4.61-.84a9.7 9.7 0 0 0 3.53-2.4 10.94 10.94 0 0 0 2.24-3.87c.53-1.53.8-3.26.8-5.2zm19.8 5.72c-1.8.06-3.34.2-4.62.44-1.26.22-2.3.51-3.1.88-.8.36-1.37.8-1.74 1.3-.35.5-.53 1.05-.53 1.67 0 .58.1 1.1.3 1.52a3 3 0 0 0 .76 1.05c.34.27.73.46 1.17.6a6.13 6.13 0 0 0 1.45.17 7.28 7.28 0 0 0 3.5-.81 11.95 11.95 0 0 0 2.82-2.2v-4.62zm-12.65-9.11a12.73 12.73 0 0 1 3.98-2.66c1.43-.59 3-.88 4.73-.88 1.25 0 2.36.2 3.33.61a6.81 6.81 0 0 1 3.94 4.38c.33 1.04.5 2.19.5 3.43V93h-1.74a1.8 1.8 0 0 1-.88-.18c-.2-.13-.36-.38-.48-.74l-.44-2.12-1.72 1.46a9.48 9.48 0 0 1-3.74 1.7c-.69.15-1.46.23-2.3.23-.87 0-1.69-.12-2.45-.35a5.34 5.34 0 0 1-3.34-2.93 6.64 6.64 0 0 1-.49-2.64c0-.88.25-1.72.73-2.53a6.33 6.33 0 0 1 2.35-2.17c1.09-.63 2.5-1.15 4.25-1.54 1.75-.41 3.89-.65 6.42-.7v-1.75c0-1.73-.37-3.03-1.12-3.91-.75-.9-1.84-1.34-3.28-1.34-.97 0-1.78.12-2.44.37-.64.23-1.2.5-1.7.81l-1.23.82c-.33.23-.67.35-1 .35-.27 0-.5-.07-.69-.2a2.1 2.1 0 0 1-.48-.53l-.7-1.25zm27.67 19.5c-1.76 0-3.12-.5-4.07-1.48-.94-.98-1.41-2.4-1.41-4.25V74h-2.68a.9.9 0 0 1-.6-.2c-.16-.14-.24-.36-.24-.66v-1.56l3.65-.46.9-6.89a.9.9 0 0 1 .29-.52.88.88 0 0 1 .62-.22H142v7.67h6.44V74H142v13.38c0 .94.22 1.63.68 2.09.45.45 1.04.68 1.76.68a3.21 3.21 0 0 0 1.85-.53l.55-.35c.16-.12.3-.18.41-.18.2 0 .4.13.55.38l1.15 1.87a7.45 7.45 0 0 1-2.44 1.5 8.53 8.53 0 0 1-2.95.52zm19.68-10.4c-1.8.07-3.34.21-4.62.45-1.26.22-2.3.51-3.1.88-.8.36-1.37.8-1.74 1.3-.35.5-.53 1.05-.53 1.67 0 .58.1 1.1.3 1.52a2.9 2.9 0 0 0 .76 1.05c.34.27.73.46 1.17.6a6.13 6.13 0 0 0 1.45.17 7.3 7.3 0 0 0 3.5-.81 12.04 12.04 0 0 0 2.82-2.2v-4.62zm-12.65-9.1a12.72 12.72 0 0 1 3.99-2.66c1.42-.59 3-.88 4.72-.88 1.25 0 2.36.2 3.33.61a6.81 6.81 0 0 1 3.94 4.38c.33 1.04.5 2.19.5 3.43V93h-1.74a1.8 1.8 0 0 1-.88-.18c-.2-.13-.36-.38-.48-.74l-.44-2.12-1.72 1.46a9.48 9.48 0 0 1-3.74 1.7c-.69.15-1.46.23-2.3.23-.87 0-1.69-.12-2.45-.35a5.33 5.33 0 0 1-3.34-2.93 6.62 6.62 0 0 1-.49-2.64c0-.88.25-1.72.73-2.53a6.33 6.33 0 0 1 2.35-2.17c1.09-.63 2.5-1.15 4.25-1.54a31.2 31.2 0 0 1 6.42-.7v-1.75c0-1.73-.37-3.03-1.12-3.91-.75-.9-1.84-1.34-3.28-1.34-.97 0-1.78.12-2.44.37-.64.23-1.2.5-1.7.81l-1.22.82c-.34.23-.68.35-1.02.35-.26 0-.49-.07-.68-.2a1.88 1.88 0 0 1-.48-.53l-.7-1.25zM40.98 32.25c0 2.36-.38 4.53-1.12 6.51a14.26 14.26 0 0 1-8.1 8.4c-1.9.78-4.02 1.17-6.34 1.17a16.6 16.6 0 0 1-6.33-1.17 14.31 14.31 0 0 1-8.08-8.4 18.29 18.29 0 0 1-1.12-6.51c0-2.36.38-4.53 1.12-6.5.75-1.97 1.8-3.67 3.17-5.1a14.32 14.32 0 0 1 4.9-3.34c1.92-.8 4.03-1.19 6.34-1.19 2.32 0 4.43.4 6.34 1.19 1.92.8 3.56 1.9 4.93 3.34a14.87 14.87 0 0 1 3.17 5.1 18.1 18.1 0 0 1 1.12 6.5zm-4.38 0c0-1.94-.26-3.68-.8-5.22a10.91 10.91 0 0 0-2.24-3.89 9.68 9.68 0 0 0-3.52-2.46 11.95 11.95 0 0 0-4.62-.86c-1.68 0-3.21.28-4.6.86a9.88 9.88 0 0 0-3.54 2.46 10.91 10.91 0 0 0-2.24 3.9c-.53 1.53-.8 3.27-.8 5.2 0 1.94.27 3.68.8 5.22a11.17 11.17 0 0 0 2.24 3.9 10.01 10.01 0 0 0 3.55 2.44c1.38.56 2.9.83 4.6.83s3.24-.27 4.61-.83a9.8 9.8 0 0 0 3.52-2.44 11.17 11.17 0 0 0 2.25-3.9c.53-1.54.8-3.28.8-5.21zm26.22-6.54V48H60.5c-.56 0-.9-.27-1.05-.81l-.31-2.4a12.45 12.45 0 0 1-3.26 2.6c-1.2.64-2.58.96-4.13.96-1.22 0-2.3-.2-3.24-.6a6.52 6.52 0 0 1-2.33-1.7 7.37 7.37 0 0 1-1.43-2.67c-.3-1.04-.46-2.2-.46-3.45V25.7h3.91v14.22c0 1.68.38 2.99 1.15 3.91.77.93 1.96 1.39 3.54 1.39 1.16 0 2.24-.27 3.23-.82a10.42 10.42 0 0 0 2.8-2.28V25.7h3.91zm8.61 4.47a9.94 9.94 0 0 1 2.6-3.56 5.64 5.64 0 0 1 3.76-1.3c.47 0 .92.05 1.34.15.44.1.83.27 1.17.49l-.3 2.92c-.09.37-.3.55-.66.55-.2 0-.5-.04-.9-.13a6.21 6.21 0 0 0-3.24.18 4.23 4.23 0 0 0-1.47.92c-.42.4-.81.9-1.17 1.5-.33.58-.64 1.26-.92 2.02V48H67.7V25.71h2.25c.42 0 .72.08.88.25.16.16.27.44.33.83l.26 3.39zm61.16-13.7L122.75 48h-3.82l-7.99-24.05a21.95 21.95 0 0 1-.42-1.58 38.36 38.36 0 0 1-.44 1.58L102.05 48h-3.83L88.4 16.47h3.54c.38 0 .7.1.95.29.26.2.43.43.5.73l6.52 21.9.28 1.28.29 1.46.3-1.46.38-1.27 7.41-21.91c.1-.25.26-.48.51-.69.27-.22.58-.33.95-.33h1.23c.38 0 .69.1.92.29a1.77 1.77 0 0 1 .53.73l7.4 21.9a28.4 28.4 0 0 1 .68 2.62 29.52 29.52 0 0 1 .52-2.61l6.54-21.91a1.31 1.31 0 0 1 .48-.7c.27-.21.58-.32.95-.32h3.32zm9.35 8.88c1.63 0 3.1.27 4.4.82a9.43 9.43 0 0 1 5.46 5.94c.5 1.4.74 2.98.74 4.73 0 1.76-.25 3.34-.74 4.75a9.43 9.43 0 0 1-5.46 5.92c-1.3.52-2.77.79-4.4.79-1.64 0-3.12-.27-4.44-.8a9.42 9.42 0 0 1-3.35-2.3c-.92-1-1.63-2.2-2.13-3.61-.49-1.41-.73-3-.73-4.75s.24-3.33.73-4.73c.5-1.43 1.2-2.64 2.13-3.63a9.4 9.4 0 0 1 3.35-2.31c1.32-.55 2.8-.82 4.44-.82zm0 19.89c2.2 0 3.84-.73 4.93-2.2 1.08-1.48 1.63-3.54 1.63-6.18 0-2.66-.55-4.72-1.63-6.2-1.09-1.49-2.73-2.23-4.93-2.23-1.12 0-2.09.2-2.93.57a5.71 5.71 0 0 0-2.06 1.65 7.5 7.5 0 0 0-1.24 2.67c-.26 1.04-.4 2.22-.4 3.54 0 2.64.55 4.7 1.64 6.18 1.1 1.47 2.76 2.2 4.99 2.2zm17.97-15.07a9.94 9.94 0 0 1 2.6-3.56 5.64 5.64 0 0 1 3.76-1.3c.47 0 .91.05 1.34.15.44.1.83.27 1.16.49l-.28 2.92c-.09.37-.31.55-.66.55-.2 0-.5-.04-.9-.13a6.2 6.2 0 0 0-3.24.18 4.23 4.23 0 0 0-1.47.92c-.43.4-.82.9-1.17 1.5a13.1 13.1 0 0 0-.92 2.02V48h-3.94V25.71h2.24c.43 0 .72.08.88.25.17.16.28.44.33.83l.27 3.39zm15.04-14.59V48h-3.92V15.6h3.92zm19.55 15.43a6.22 6.22 0 0 0-2.38-2.05 6.7 6.7 0 0 0-2.86-.6c-2.07 0-3.66.75-4.77 2.23-1.12 1.48-1.68 3.6-1.68 6.33 0 1.46.13 2.7.38 3.74a7.29 7.29 0 0 0 1.1 2.56 4.35 4.35 0 0 0 1.78 1.45c.7.3 1.5.46 2.4.46 1.29 0 2.41-.3 3.36-.88a9.6 9.6 0 0 0 2.67-2.49V31.02zm3.91-15.43V48h-2.33c-.56 0-.9-.27-1.06-.81l-.35-2.71a12.13 12.13 0 0 1-3.25 2.77 8.28 8.28 0 0 1-4.23 1.06 7.31 7.31 0 0 1-6.14-2.9c-.73-.96-1.3-2.15-1.69-3.57a18.35 18.35 0 0 1 .07-9.48 11.29 11.29 0 0 1 1.89-3.7 8.7 8.7 0 0 1 7.06-3.34 7.96 7.96 0 0 1 6.12 2.62V15.59h3.91zM46.61 70.71V93H42.7V70.71h3.91zm.84-7c0 .39-.08.75-.24 1.09a2.81 2.81 0 0 1-1.52 1.47 2.67 2.67 0 0 1-2.16 0 2.9 2.9 0 0 1-1.45-1.47 2.67 2.67 0 0 1 0-2.16c.15-.35.35-.65.6-.9.25-.27.53-.47.85-.62a2.67 2.67 0 0 1 2.16 0c.35.15.65.35.9.62.27.25.47.55.62.9.16.34.24.7.24 1.08zm7.97 10.24c.49-.54 1-1.04 1.54-1.48a9.85 9.85 0 0 1 3.66-1.84 8.96 8.96 0 0 1 5.43.35c.94.4 1.72.97 2.33 1.71a7.36 7.36 0 0 1 1.43 2.67c.32 1.04.49 2.19.49 3.45V93h-3.94V78.81c0-1.69-.4-3-1.17-3.92-.76-.93-1.93-1.4-3.5-1.4a6.6 6.6 0 0 0-3.25.83c-1 .56-1.92 1.31-2.77 2.27V93h-3.94V70.71h2.35c.56 0 .9.28 1.04.82l.3 2.42zm57.7 3.3c0 2.36-.37 4.5-1.11 6.44a14.3 14.3 0 0 1-3.17 4.98 14.1 14.1 0 0 1-4.93 3.2c-1.9.76-4.02 1.13-6.33 1.13H85.8V61.47h11.77c2.31 0 4.42.39 6.33 1.15a13.8 13.8 0 0 1 8.1 8.18 17.75 17.75 0 0 1 1.12 6.45zm-4.37 0c0-1.94-.26-3.67-.8-5.2a10.94 10.94 0 0 0-2.23-3.87 9.57 9.57 0 0 0-3.53-2.42 12.23 12.23 0 0 0-4.61-.83h-7.5v24.62h7.5c1.7 0 3.24-.28 4.61-.84a9.7 9.7 0 0 0 3.53-2.4 10.94 10.94 0 0 0 2.24-3.87c.53-1.53.8-3.26.8-5.2zm19.8 5.72c-1.8.06-3.34.2-4.62.44-1.26.22-2.3.51-3.1.88-.8.36-1.37.8-1.74 1.3-.35.5-.53 1.05-.53 1.67 0 .58.1 1.1.3 1.52a3 3 0 0 0 .76 1.05c.34.27.73.46 1.17.6a6.13 6.13 0 0 0 1.45.17 7.28 7.28 0 0 0 3.5-.81 11.95 11.95 0 0 0 2.82-2.2v-4.62zm-12.65-9.11a12.73 12.73 0 0 1 3.98-2.66c1.43-.59 3-.88 4.73-.88 1.25 0 2.36.2 3.33.61a6.81 6.81 0 0 1 3.94 4.38c.33 1.04.5 2.19.5 3.43V93h-1.74a1.8 1.8 0 0 1-.88-.18c-.2-.13-.36-.38-.48-.74l-.44-2.12-1.72 1.46a9.48 9.48 0 0 1-3.74 1.7c-.69.15-1.46.23-2.3.23-.87 0-1.69-.12-2.45-.35a5.34 5.34 0 0 1-3.34-2.93 6.64 6.64 0 0 1-.49-2.64c0-.88.25-1.72.73-2.53a6.33 6.33 0 0 1 2.35-2.17c1.09-.63 2.5-1.15 4.25-1.54 1.75-.41 3.89-.65 6.42-.7v-1.75c0-1.73-.37-3.03-1.12-3.91-.75-.9-1.84-1.34-3.28-1.34-.97 0-1.78.12-2.44.37-.64.23-1.2.5-1.7.81l-1.23.82c-.33.23-.67.35-1 .35-.27 0-.5-.07-.69-.2a2.1 2.1 0 0 1-.48-.53l-.7-1.25zm27.67 19.5c-1.76 0-3.12-.5-4.07-1.48-.94-.98-1.41-2.4-1.41-4.25V74h-2.68a.9.9 0 0 1-.6-.2c-.16-.14-.24-.36-.24-.66v-1.56l3.65-.46.9-6.89a.9.9 0 0 1 .29-.52.88.88 0 0 1 .62-.22H142v7.67h6.44V74H142v13.38c0 .94.22 1.63.68 2.09.45.45 1.04.68 1.76.68a3.21 3.21 0 0 0 1.85-.53l.55-.35c.16-.12.3-.18.41-.18.2 0 .4.13.55.38l1.15 1.87a7.45 7.45 0 0 1-2.44 1.5 8.53 8.53 0 0 1-2.95.52zm19.68-10.4c-1.8.07-3.34.21-4.62.45-1.26.22-2.3.51-3.1.88-.8.36-1.37.8-1.74 1.3-.35.5-.53 1.05-.53 1.67 0 .58.1 1.1.3 1.52a2.9 2.9 0 0 0 .76 1.05c.34.27.73.46 1.17.6a6.13 6.13 0 0 0 1.45.17 7.3 7.3 0 0 0 3.5-.81 12.04 12.04 0 0 0 2.82-2.2v-4.62zm-12.65-9.1a12.72 12.72 0 0 1 3.99-2.66c1.42-.59 3-.88 4.72-.88 1.25 0 2.36.2 3.33.61a6.81 6.81 0 0 1 3.94 4.38c.33 1.04.5 2.19.5 3.43V93h-1.74a1.8 1.8 0 0 1-.88-.18c-.2-.13-.36-.38-.48-.74l-.44-2.12-1.72 1.46a9.48 9.48 0 0 1-3.74 1.7c-.69.15-1.46.23-2.3.23-.87 0-1.69-.12-2.45-.35a5.33 5.33 0 0 1-3.34-2.93 6.62 6.62 0 0 1-.49-2.64c0-.88.25-1.72.73-2.53a6.33 6.33 0 0 1 2.35-2.17c1.09-.63 2.5-1.15 4.25-1.54a31.2 31.2 0 0 1 6.42-.7v-1.75c0-1.73-.37-3.03-1.12-3.91-.75-.9-1.84-1.34-3.28-1.34-.97 0-1.78.12-2.44.37-.64.23-1.2.5-1.7.81l-1.22.82c-.34.23-.68.35-1.02.35-.26 0-.49-.07-.68-.2a1.88 1.88 0 0 1-.48-.53l-.7-1.25zM40.98 32.25c0 2.36-.38 4.53-1.12 6.51a14.26 14.26 0 0 1-8.1 8.4c-1.9.78-4.02 1.17-6.34 1.17a16.6 16.6 0 0 1-6.33-1.17 14.31 14.31 0 0 1-8.08-8.4 18.29 18.29 0 0 1-1.12-6.51c0-2.36.38-4.53 1.12-6.5.75-1.97 1.8-3.67 3.17-5.1a14.32 14.32 0 0 1 4.9-3.34c1.92-.8 4.03-1.19 6.34-1.19 2.32 0 4.43.4 6.34 1.19 1.92.8 3.56 1.9 4.93 3.34a14.87 14.87 0 0 1 3.17 5.1 18.1 18.1 0 0 1 1.12 6.5zm-4.38 0c0-1.94-.26-3.68-.8-5.22a10.91 10.91 0 0 0-2.24-3.89 9.68 9.68 0 0 0-3.52-2.46 11.95 11.95 0 0 0-4.62-.86c-1.68 0-3.21.28-4.6.86a9.88 9.88 0 0 0-3.54 2.46 10.91 10.91 0 0 0-2.24 3.9c-.53 1.53-.8 3.27-.8 5.2 0 1.94.27 3.68.8 5.22a11.17 11.17 0 0 0 2.24 3.9 10.01 10.01 0 0 0 3.55 2.44c1.38.56 2.9.83 4.6.83s3.24-.27 4.61-.83a9.8 9.8 0 0 0 3.52-2.44 11.17 11.17 0 0 0 2.25-3.9c.53-1.54.8-3.28.8-5.21zm26.22-6.54V48H60.5c-.56 0-.9-.27-1.05-.81l-.31-2.4a12.45 12.45 0 0 1-3.26 2.6c-1.2.64-2.58.96-4.13.96-1.22 0-2.3-.2-3.24-.6a6.52 6.52 0 0 1-2.33-1.7 7.37 7.37 0 0 1-1.43-2.67c-.3-1.04-.46-2.2-.46-3.45V25.7h3.91v14.22c0 1.68.38 2.99 1.15 3.91.77.93 1.96 1.39 3.54 1.39 1.16 0 2.24-.27 3.23-.82a10.42 10.42 0 0 0 2.8-2.28V25.7h3.91zm8.61 4.47a9.94 9.94 0 0 1 2.6-3.56 5.64 5.64 0 0 1 3.76-1.3c.47 0 .92.05 1.34.15.44.1.83.27 1.17.49l-.3 2.92c-.09.37-.3.55-.66.55-.2 0-.5-.04-.9-.13a6.21 6.21 0 0 0-3.24.18 4.23 4.23 0 0 0-1.47.92c-.42.4-.81.9-1.17 1.5-.33.58-.64 1.26-.92 2.02V48H67.7V25.71h2.25c.42 0 .72.08.88.25.16.16.27.44.33.83l.26 3.39zm61.16-13.7L122.75 48h-3.82l-7.99-24.05a21.95 21.95 0 0 1-.42-1.58 38.36 38.36 0 0 1-.44 1.58L102.05 48h-3.83L88.4 16.47h3.54c.38 0 .7.1.95.29.26.2.43.43.5.73l6.52 21.9.28 1.28.29 1.46.3-1.46.38-1.27 7.41-21.91c.1-.25.26-.48.51-.69.27-.22.58-.33.95-.33h1.23c.38 0 .69.1.92.29a1.77 1.77 0 0 1 .53.73l7.4 21.9a28.4 28.4 0 0 1 .68 2.62 29.52 29.52 0 0 1 .52-2.61l6.54-21.91a1.31 1.31 0 0 1 .48-.7c.27-.21.58-.32.95-.32h3.32zm9.35 8.88c1.63 0 3.1.27 4.4.82a9.43 9.43 0 0 1 5.46 5.94c.5 1.4.74 2.98.74 4.73 0 1.76-.25 3.34-.74 4.75a9.43 9.43 0 0 1-5.46 5.92c-1.3.52-2.77.79-4.4.79-1.64 0-3.12-.27-4.44-.8a9.42 9.42 0 0 1-3.35-2.3c-.92-1-1.63-2.2-2.13-3.61-.49-1.41-.73-3-.73-4.75s.24-3.33.73-4.73c.5-1.43 1.2-2.64 2.13-3.63a9.4 9.4 0 0 1 3.35-2.31c1.32-.55 2.8-.82 4.44-.82zm0 19.89c2.2 0 3.84-.73 4.93-2.2 1.08-1.48 1.63-3.54 1.63-6.18 0-2.66-.55-4.72-1.63-6.2-1.09-1.49-2.73-2.23-4.93-2.23-1.12 0-2.09.2-2.93.57a5.71 5.71 0 0 0-2.06 1.65 7.5 7.5 0 0 0-1.24 2.67c-.26 1.04-.4 2.22-.4 3.54 0 2.64.55 4.7 1.64 6.18 1.1 1.47 2.76 2.2 4.99 2.2zm17.97-15.07a9.94 9.94 0 0 1 2.6-3.56 5.64 5.64 0 0 1 3.76-1.3c.47 0 .91.05 1.34.15.44.1.83.27 1.16.49l-.28 2.92c-.09.37-.31.55-.66.55-.2 0-.5-.04-.9-.13a6.2 6.2 0 0 0-3.24.18 4.23 4.23 0 0 0-1.47.92c-.43.4-.82.9-1.17 1.5a13.1 13.1 0 0 0-.92 2.02V48h-3.94V25.71h2.24c.43 0 .72.08.88.25.17.16.28.44.33.83l.27 3.39zm15.04-14.59V48h-3.92V15.6h3.92zm19.55 15.43a6.22 6.22 0 0 0-2.38-2.05 6.7 6.7 0 0 0-2.86-.6c-2.07 0-3.66.75-4.77 2.23-1.12 1.48-1.68 3.6-1.68 6.33 0 1.46.13 2.7.38 3.74a7.29 7.29 0 0 0 1.1 2.56 4.35 4.35 0 0 0 1.78 1.45c.7.3 1.5.46 2.4.46 1.29 0 2.41-.3 3.36-.88a9.6 9.6 0 0 0 2.67-2.49V31.02zm3.91-15.43V48h-2.33c-.56 0-.9-.27-1.06-.81l-.35-2.71a12.13 12.13 0 0 1-3.25 2.77 8.28 8.28 0 0 1-4.23 1.06 7.31 7.31 0 0 1-6.14-2.9c-.73-.96-1.3-2.15-1.69-3.57a18.35 18.35 0 0 1 .07-9.48 11.29 11.29 0 0 1 1.89-3.7 8.7 8.7 0 0 1 7.06-3.34 7.96 7.96 0 0 1 6.12 2.62V15.59h3.91zM46.61 70.71V93H42.7V70.71h3.91zm.84-7c0 .39-.08.75-.24 1.09a2.81 2.81 0 0 1-1.52 1.47 2.67 2.67 0 0 1-2.16 0 2.9 2.9 0 0 1-1.45-1.47 2.67 2.67 0 0 1 0-2.16c.15-.35.35-.65.6-.9.25-.27.53-.47.85-.62a2.67 2.67 0 0 1 2.16 0c.35.15.65.35.9.62.27.25.47.55.62.9.16.34.24.7.24 1.08zm7.97 10.24c.49-.54 1-1.04 1.54-1.48a9.85 9.85 0 0 1 3.66-1.84 8.96 8.96 0 0 1 5.43.35c.94.4 1.72.97 2.33 1.71a7.36 7.36 0 0 1 1.43 2.67c.32 1.04.49 2.19.49 3.45V93h-3.94V78.81c0-1.69-.4-3-1.17-3.92-.76-.93-1.93-1.4-3.5-1.4a6.6 6.6 0 0 0-3.25.83c-1 .56-1.92 1.31-2.77 2.27V93h-3.94V70.71h2.35c.56 0 .9.28 1.04.82l.3 2.42zm57.7 3.3c0 2.36-.37 4.5-1.11 6.44a14.3 14.3 0 0 1-3.17 4.98 14.1 14.1 0 0 1-4.93 3.2c-1.9.76-4.02 1.13-6.33 1.13H85.8V61.47h11.77c2.31 0 4.42.39 6.33 1.15a13.8 13.8 0 0 1 8.1 8.18 17.75 17.75 0 0 1 1.12 6.45zm-4.37 0c0-1.94-.26-3.67-.8-5.2a10.94 10.94 0 0 0-2.23-3.87 9.57 9.57 0 0 0-3.53-2.42 12.23 12.23 0 0 0-4.61-.83h-7.5v24.62h7.5c1.7 0 3.24-.28 4.61-.84a9.7 9.7 0 0 0 3.53-2.4 10.94 10.94 0 0 0 2.24-3.87c.53-1.53.8-3.26.8-5.2zm19.8 5.72c-1.8.06-3.34.2-4.62.44-1.26.22-2.3.51-3.1.88-.8.36-1.37.8-1.74 1.3-.35.5-.53 1.05-.53 1.67 0 .58.1 1.1.3 1.52a3 3 0 0 0 .76 1.05c.34.27.73.46 1.17.6a6.13 6.13 0 0 0 1.45.17 7.28 7.28 0 0 0 3.5-.81 11.95 11.95 0 0 0 2.82-2.2v-4.62zm-12.65-9.11a12.73 12.73 0 0 1 3.98-2.66c1.43-.59 3-.88 4.73-.88 1.25 0 2.36.2 3.33.61a6.81 6.81 0 0 1 3.94 4.38c.33 1.04.5 2.19.5 3.43V93h-1.74a1.8 1.8 0 0 1-.88-.18c-.2-.13-.36-.38-.48-.74l-.44-2.12-1.72 1.46a9.48 9.48 0 0 1-3.74 1.7c-.69.15-1.46.23-2.3.23-.87 0-1.69-.12-2.45-.35a5.34 5.34 0 0 1-3.34-2.93 6.64 6.64 0 0 1-.49-2.64c0-.88.25-1.72.73-2.53a6.33 6.33 0 0 1 2.35-2.17c1.09-.63 2.5-1.15 4.25-1.54 1.75-.41 3.89-.65 6.42-.7v-1.75c0-1.73-.37-3.03-1.12-3.91-.75-.9-1.84-1.34-3.28-1.34-.97 0-1.78.12-2.44.37-.64.23-1.2.5-1.7.81l-1.23.82c-.33.23-.67.35-1 .35-.27 0-.5-.07-.69-.2a2.1 2.1 0 0 1-.48-.53l-.7-1.25zm27.67 19.5c-1.76 0-3.12-.5-4.07-1.48-.94-.98-1.41-2.4-1.41-4.25V74h-2.68a.9.9 0 0 1-.6-.2c-.16-.14-.24-.36-.24-.66v-1.56l3.65-.46.9-6.89a.9.9 0 0 1 .29-.52.88.88 0 0 1 .62-.22H142v7.67h6.44V74H142v13.38c0 .94.22 1.63.68 2.09.45.45 1.04.68 1.76.68a3.21 3.21 0 0 0 1.85-.53l.55-.35c.16-.12.3-.18.41-.18.2 0 .4.13.55.38l1.15 1.87a7.45 7.45 0 0 1-2.44 1.5 8.53 8.53 0 0 1-2.95.52zm19.68-10.4c-1.8.07-3.34.21-4.62.45-1.26.22-2.3.51-3.1.88-.8.36-1.37.8-1.74 1.3-.35.5-.53 1.05-.53 1.67 0 .58.1 1.1.3 1.52a2.9 2.9 0 0 0 .76 1.05c.34.27.73.46 1.17.6a6.13 6.13 0 0 0 1.45.17 7.3 7.3 0 0 0 3.5-.81 12.04 12.04 0 0 0 2.82-2.2v-4.62zm-12.65-9.1a12.72 12.72 0 0 1 3.99-2.66c1.42-.59 3-.88 4.72-.88 1.25 0 2.36.2 3.33.61a6.81 6.81 0 0 1 3.94 4.38c.33 1.04.5 2.19.5 3.43V93h-1.74a1.8 1.8 0 0 1-.88-.18c-.2-.13-.36-.38-.48-.74l-.44-2.12-1.72 1.46a9.48 9.48 0 0 1-3.74 1.7c-.69.15-1.46.23-2.3.23-.87 0-1.69-.12-2.45-.35a5.33 5.33 0 0 1-3.34-2.93 6.62 6.62 0 0 1-.49-2.64c0-.88.25-1.72.73-2.53a6.33 6.33 0 0 1 2.35-2.17c1.09-.63 2.5-1.15 4.25-1.54a31.2 31.2 0 0 1 6.42-.7v-1.75c0-1.73-.37-3.03-1.12-3.91-.75-.9-1.84-1.34-3.28-1.34-.97 0-1.78.12-2.44.37-.64.23-1.2.5-1.7.81l-1.22.82c-.34.23-.68.35-1.02.35-.26 0-.49-.07-.68-.2a1.88 1.88 0 0 1-.48-.53l-.7-1.25z" fill="#fff"/><path fill="#D42B21" d="M0 106.79h210V120H0z"/></g><defs><clipPath id="a"><path fill="#fff" d="M0 0h210v120H0z"/></clipPath></defs></svg></g><a href="https://ourworldindata.org/grapher/people-without-electricity-country" style="font-family:&quot;Playfair Display&quot;,Georgia,&quot;Times New Roman&quot;,serif" target="_blank" rel="noopener"><text font-size="25.2" x="15" y="36.9" fill="#555"><tspan x="15" y="36.92">Number of people without access to electricity, 2019</tspan></text></a><text x="15" y="58.2" style="font-size:14.4px;line-height:1.2" fill="#666"><tspan x="15" y="58.2">The definition used in international statistics adopts a very low cutoff for what it means to ‘have access to</tspan><tspan x="15" y="75.4">electricity’. It is defined as having an electricity source that can provide very basic lighting, and charge a phone or</tspan><tspan x="15" y="92.7">power a radio for 4 hours per day.</tspan></text></g><g class="mapTab"><g class="ChoroplethMap" clip-path="url(#b)"><defs><clipPath id="b"><path d="M15 96.04h820v398.6H15z"/></clipPath></defs><g class="subunits" transform="matrix(.8769 0 0 .8769 -58.7 105.3)">0<g class="noDataFeatures"><defs><pattern id="c" patternUnits="userSpaceOnUse" width="4" height="4" patternTransform="rotate(-45 2 2) scale(1.14039)"><path d="M-1 2h6" stroke="#ccc" stroke-width=".7"/></pattern></defs><path d="m640.9 396.2 1.1.9 2.1.4-.1.5-1.2 1.4-3.6.1.5-1.5.8-1.2ZM334.8 243l.7-1.3.2-1.3.5-1.3-1-1.8-.1-2.1 1.4-2.6.9.4 2 .7 2.7 2.5.4 1.3-1.6 2.7-.9 2.2-1 1.2-1.3.2-.3-.8-.6-.2-.8.9ZM446.3 166.8h11.4l-.1.6-.1 4.6-8.5-.2v7.7l-2.5.3-.7 1.5.5 4.4H436l-.6 1 .2-1.3.1-1.4 1.1-.8.9-1.6-.2-1 1-2.2 1.5-1.9.8-.4.8-1.8.1-1.6 1-1.9 1.7-1.1 1-1.7.4-.8ZM796 176.4l-.5 4.9-.7 2.4-1.9-2.5-.7-2.2.9-3 1.6-2.3 1.4.9ZM570.2 152.3l.2 1.9-.3.8-1.2.4.1-.7.6-.5-.7-.3.3-2Z" stroke-width=".34" stroke="#aaa" stroke-opacity="1" cursor="pointer" fill="url(#c)" fill-opacity="1"/></g><path d="m633.3 142.5 2.8 1.1 1.8-.4.2-1.3 1.9-.5 1.2-.9-.1-2.4 2-.6.1-1.1 1.4.8.8.1 1.4.1 2 .6.8.4 1.6-1 1 .6.4-1.4 1.5.1.3-.5-.1-1.2.8-1 1.5.6v1l.8.1.5 2.5 1.2 1 .7-.6 1-.3 1.2-1.4 1.8.3h2.5l.7.8-1.3.4-1.1.5-2.8.4-2.5.6-1.1 1.3.9 1.3.6 1.5-.9 1.3.4 1.1-.5 1.1-2.4-.1 1.5 2-1.5.8-.7 1.8.5 1.8-.8.8-1-.2-1.8.4-.1.8h-1.9l-1.1 1.7.3 2.6-3.1 1.2-1.8-.2-.4.6-1.6-.4-2.5.5-4.5-1.6 1.8-2.7-.5-1.9-2-.5-.6-2-1.3-2.4.8-1.6-1.2-.5.3-2.2Z" stroke-width=".34" stroke="#333" stroke-opacity="1" cursor="pointer" fill="#ffffd4" fill-opacity="1"/><path d="m543.4 283 .2.9-.3 1.5.4 1.4-.4 1.1.2 1H538l-.4 9.6 1.7 2.5 1.7 1.8-4.9 1.3-6.3-.5-1.8-1.4-10.7.1-.4.2-1.5-1.3-1.7-.1-1.6.5-1.3.6-.2-1.9.4-2.7 1-2.7.1-1.3.9-2.7.7-1.3 1.5-2 .9-1.3.3-2.2-.1-1.7-.8-1.1-.7-1.8-.6-1.9.1-.6.8-1.2-.7-2.9-.6-2-1.3-1.9.3-.6 1.1-.4h.7l1-.3h7.8l.7 2.3.7 1.8.6 1 1 1.5 1.8-.2.8-.4 1.5.4.4-.8.7-1.7 1.6-.1.2-.6h1.3l-.2 1.1h3.2l.1 1.9.5 1.1-.4 1.9.1 1.8.9 1.1-.2 3.6.7-.2h1.1l1.7-.4Zm-31-15.5-.7-2.3 1.1-1.3.8-.5 1 1-1 .7-.4.7-.1 1.3Z" stroke-width=".34" stroke="#333" stroke-opacity="1" cursor="pointer" fill="#fe9929" fill-opacity="1"/><path d="M531.4 126.9v.8l-.8.4v1l-1 1.4-.5-.2-.1-.6-1.4-1-.3-1.5v-2l.2-.9-.4-.5-.3-.9 1-1.5.2.6.6-.3.6.8.6.3.3 1.1-.3 1 .5 1.3ZM613.9 176.9l.4-.2.2.9 2-.5 2.2.1 1.5.1 1.6-2.1 1.8-1.9 1.4-1.9.6 1.1.6 2.3h-1.3v2l.5.4-1.2.6.1 1.3-.6 1.2v1.2l-.4.7-8-1.6-1.2-3ZM330.9 414.3h-3.7l-2.8-6.5 1.4 1.4 2.1 2.1 3.6 1.8 3.4.7-.4 1.4-2 .1Zm-14.3-97.2 5.3 4.9 2.2.5 3.4 2.2 2.8 1.2.5 1.3-1.9 4.6 2.7.8 2.9.5 2-.5 2-2.3.2-2.7 1.2-.6 1.5 1.8.2 2.4-2 1.7-1.5 1.2-2.6 2.9-2.8 4.1-.2 2.4-.2 3.1.6 3-.4.7.1 2 .2 1.5 3.7 2.6v2.1l1.9 1.3.1 1.5-1.5 3.8-3.3 1.6-4.8.7-2.8-.3.9 1.8.1 2.2.9 1.5-1.2 1.1-2.4.4-2.7-1.1-.7.8 1.2 2.9 1.9.9 1.1-.9 1.1 1.5-1.9 1-1.4 1.8.6 3-.1 1.6h-2.2l-1.4 1.5v2.2l3.1 2.2 2.4.6.1 2.6-2.2 1.7-.2 3.4-1.7 1.2-.4 1.3 1.9 3 2.2 1.7-1-.1-2.3-.5-5.6-.4-1.7-1.7-.9-2.1-1.4.2-1.3-1.1-1.4-3.1 1.3-1.3v-1.8l-.8-1.5.3-2.5-.5-4-.9-1.7.8-.6-.6-1.1-1.3-.6.3-1.2-1.4-1.1-1.7-3.5.8-.6-1.6-3.6-.3-3.1-.2-2.7 1.2-1.1-1.5-2.9-.8-2.8 1.4-1.9-.6-2.5.7-3-.6-2.8-.8-.5-2.3-5.2 1-3.1-.8-2.9.4-2.8 1.3-2.8 1.5-1.9-1-1.2.4-.9-.7-5.1 2.6-1.4.6-3.2-.4-.7 1.9-2.8 3.5.8 1.7 2.2.8-2.5 3 .2ZM586.4 126.2l3.3-.5.7.8 1 .5-.4.7 1.5 1.1-.5.9 1.2.8 1.2.5.5 2.1-.9.1-1.3-1.7-.1-.5h-1.1l-.9-.8-.5.1-1.1-.9-2-.7v-1.5ZM835.5 373l1.7 1 1.6-.4 2.3-.6 1.3.2-2.1 3.5-1.5 1.1-1.9 2.4-.3-.8-3.1 2-.4-.1-1.4-.1.2-2.6 1-1.9.3-2.6.9-1.4Zm23.7-81.5.6 2.4 1.9-1.2.6 1.3 1.1 1.2-.5 1.3.1 2.6.1 1.5.6.4.2 2.6-.6 1.5.4 2.1 2.5 1.5 1.5 1.5 1.5 1.3-.5.7 1 1.9.3 3.3 1.2-.7.7 1.3.8-.4-.4 3.2 1.4 1.8.9 1.2 1.4 2.4-.1 2.4-.5 1.7-.8 1.9.3 2.6-1.1 2.6-1 1.4-1.8 2.7-.7 1.8-1.4 2.1-2.4 2.8-2.6 1.4-2 2.4-1.6 1.5-2.1 2.6-1.7 1.5-1.9 2.2-1.4 2.1-.4.9-2 1.1-2.9.1-2.9 1.2-1.8 1.2-2.3 1.3-1.3-1.3-1.2-.6 1.3-1.5-1.7.5-3.4 2.2-1.7-.8-1.1-.5-1.3-.2-1.9-.9-.6-1.8.7-2.3.1-1.5-.6-1.2-2.2-.4 1.5-1.5.4-2.2-2.2 2.1-2.5.5 2.1-1.6 1.2-1.8 1.7-1.4.7-2.3-3.1 2.6-2.1 1-2 2.4-1.4-1.2.8-1.6-.7-2.2-.8-1.1.7-.7-2.5-1.9h-1.7l-1.9-1.5-4.7.3-3.7 1-3.2 1.1-2.4-.2-3.3 1.5-2.4.7-1.1 1.6-1.5 1.2-2.1.1-1.7.2-2-.5-2 .3-1.8.2-2.1 1.6-.7-.2-1.6.9-1.6.9-1.8-.1h-1.7l-1.9-1.9-1.1-.6.7-1.7 1.4-.4.7-.7.3-1.1 1.1-2.1.3-1.8-.4-3 .2-1.7.6-1.8-.5-1.9.2-.9-.8-1.2.3-2.4-.9-2.4v-1.2l.8 1.3-.2-2.8 1.1.8.5 1.2.3-1.5-.7-2.4-.1-1-.4-.9.6-1.7.7-.7.6-1.6.1-1.7 1.4-2.2-.2 2.3 1.5-2.1 2.3-1 1.5-1.3 2.2-1.1 1.2-.2.7.4 2.2-1.2 1.7-.3.5-.7.7-.2h1.5l2.9-.8 1.7-1.4.9-1.6 1.8-1.5.4-1.2.3-1.7 2.3-2.5.7 2.6 1.2-.6-.7-1.4 1-1.5 1.1.6.7-2.3 1.6-1.4.8-1.2 1.4-.5.2-.9 1.1.4.2-.8 1.2-.4 1.3-.4 1.8 1.4 1.2 1.7 1.6.1 1.7.2-.4-1.6 1.6-2.4 1.3-.8-.3-.8 1.4-1.7 1.7-1.1 1.3.4 2.3-.6.2-1.5-1.9-1 1.5-.4 1.7.7 1.2 1.2 2.2.8.8-.3 1.5.9 1.6-.8 1 .2.7-.5 1 1.5-.9 1.6-1.2 1.2-.9.1.1 1.2-.9 1.5-1.2 1.5v.8l1.9 1.7 1.8 1 1.2 1 1.6 1.8h.7l1.3.8.2.9 2.3 1 2-1 .8-1.6.8-1.4.6-1.6 1.2-2.4-.1-1.5.3-.9-.1-1.7.7-2.3.6-.6-.3-1 .9-1.6.7-1.6.2-.9 1.1-1.1.5 1.4v1.9l.6.4v1.3l.7 1.5v1.7ZM519.8 105.3l-.1 1.2h-1.3l.5.6-.7 1.9-.4.5-2 .1-1.2.7-1.9-.3-3.5-.7-.6-1-2.3.5-.2.5-1.5-.4-1.3-.1v-.3l-.7-.1.1-.1v-.1l-.2-.1.1-.1-.2-.2.3-.3-.2-.4.8-.2 1.2.8.3-.8 2.1.2 1.6-.6 1.1.1.8.6.2-.5-.5-1.9.8-.4.8-1.3 1.8.9 1.2-1.2.8-.2 1.9.9 1.1-.1 1.1.5-.2.4Z" stroke-width=".34" stroke="#333" stroke-opacity="1" cursor="pointer" fill="#ffffd4" fill-opacity="1"/><path d="m594 133.2-1.8-.4-1.5-1.4-.6-1.1.5-.1.9.8h1.1l.1.5Zm3-8 1.2-1.2 1.6 1.6 1.7 2.1 1.1.1 1 .9-2 .2v2.3l-.2 1.1-.8.7.4 1.5-.6.1-1.8-1.6.5-1.4-.9-.9-.8.2-2.5 2.2-.5-2.1-1.2-.5-1.2-.8.5-.9-1.5-1.1.4-.7-1-.5-.7-.8.5-.5 2 .9 1.3.1.3-.3-1.5-1.6.5-.4.7.1 2.1 1.8 1.1.2Z" stroke-width=".34" stroke="#333" stroke-opacity="1" cursor="pointer" fill="#ffffd4" fill-opacity="1"/><path d="m558.1 263.6-.2-3.7-.6-1.3 1.6.2.8-1.7 1.4.2.2 1.2.6.7v.9l-.7.7-1 1.5-1 1.1Z" stroke-width=".34" stroke="#333" stroke-opacity="1" cursor="pointer" fill="#fe9929" fill-opacity="1"/><path d="m489.3 96.1 2.1-.6 1.5 1.3 1.3.7-.2 1.9-.6.1-.2 1.7-2.1-1.4-1.2.3-1.6-1.4-1.1-1.2h-1.1l-.3-1 1.8-.6Z" stroke-width=".34" stroke="#333" stroke-opacity="1" cursor="pointer" fill="#ffffd4" fill-opacity="1"/><path d="m487.2 231.1-2.2.4-.7-2.1.1-6.9-.5-.7-.1-1.4-.9-1.1-.9-.9.4-1.6.9-.3.5-1.3 1.3-.3.6-.9.9-.9h.9l2.1 1.7-.1 1 .6 1.8-.6 1.2.3.9-1.3 1.8-.8.9-.5 1.9.1 2Z" stroke-width=".34" stroke="#333" stroke-opacity="1" cursor="pointer" fill="#fec44f" fill-opacity="1"/><path d="m472.5 220.9-1.8-.8-1.3.2-.9.7-1.2-.6-.4-1-1.2-.7-.2-1.7.7-1.3v-1l2.1-2.5.4-2.1.7-.7 1.3.4 1.1-.6.4-.8 2-1.4.5-.9 2.5-1.3 1.4-.4.7.6h1.7l-.2 1.4.3 1.4 1.5 2 .1 1.4 3.1.7-.1 2.1-.6.9-1.3.3-.5 1.3-.9.3h-2.3l-1.3-.3-.8.5-1.2-.2-4.6.1-.1 1.8ZM721.6 183.5l.3 2.2-1-.5.5 2.5-1-1.6-.3-1.5-.8-1.5-1.3-1.8-2.4-.1.4 1.3-.6 1.6-1.2-.6-.3.6-.8-.3-1-.3-.8-2.5-1.2-2.3.2-1.8-1.8-.8.4-1.1 1.5-1.1-2.2-1.6.6-2.1 2.3 1.3 1.2.2.6 2.1 2.6.4h2.4l1.5.5-.7 2.5-1.2.2-.5 1.7 1.6 1.6.2-1.9.7-.1Z" stroke-width=".34" stroke="#333" stroke-opacity="1" cursor="pointer" fill="#fe9929" fill-opacity="1"/><path d="m534.3 116.8.9 1.2.9-.2 1.9.5 3.5.1 1.1-.7 2.8-.7 1.9 1 1.4.4-1.1 1.2-.6 2.1 1 1.7-2.1-.4-2.4 1 .2 1.4-2.2.3-1.9-1-1.8.8-1.8-.1-.4-2-1.3-.9.3-.4-.3-.4.3-.9.9-1-1.3-1.3-.4-1ZM278.5 178.3l-.6.2-.5-1.7-.8-.9.8-1.9.8.1.6 2.5Zm.6-8.5-2.9.5v-1.1l1.2-.2 1.7.1Zm2.1 0-.8 2.2-.4-.4.3-1.6-1-1.2.1-.3ZM525.4 114.9h.9l-.5 1.3 1.3 1.2-.3 1.4-.5.1-.4.3-.8.7-.2 1.6-2.2-1.1-1-1.3-1-.6-1.2-1.1-.6-1-1.3-1.4.4-1.2 1 .7.4-.6 1.1-.1 2.1.5h1.7ZM532.7 88.5h2.2l2.2-1.1.3-1.6 1.7-.9-.5-1.3 1.3-.4 2.2-1.1 2.4.7.5.7 1.1-.4 2.3.7.4 1.3-.3.8 1.8 1.9 1 .5v.5l1.6.5.8.8-.7.6-1.9-.1-.4.3.8 1 .9 1.8-2 .2-.5.6.1 1.5-1-.3-2 .1-.7-.7-.8.5-.9-.4h-1.9l-2.6-.7-2.4-.2H536l-1.1.8-1.1.1-.2-1.3-.9-1.3 1.2-.6-.1-1.1-.8-1.1ZM245.9 196.3v-.4l.3-.2.5.4 1.2-1.9h.5l-.1.5h.5l-.1.8-.6 1.3.1.5-.4 1 .2.3-.5 1.5-.6.8-.5.1-.6 1.1h-.8l.6-3.4ZM305.3 318.6l-1.8.4-1.5-4.2-1.8-3.4.5-2.9-1.5-1.3-.5-2.1-1.5-2.1 1.3-3.2-1.3-2.6.5-1-.6-1.1.9-1.5-.1-2.6v-2.1l.5-1-2.6-4.9 2 .3 1.3-.1.6-.9 2.2-1.2 1.4-1.1 3.4-.6-.2 2.3.4 1.2-.1 2 3.1 2.7 3 .5 1.1 1.1 1.8.6 1.1.9h1.7l1.6.8.2 1.8.6.9.1 1.3h-.7l1.2 3.5 5.1.2-.3 1.7.4 1.2 1.5.8.8 1.9-.3 2.4-.6 1.3.4 1.7-.7.6-.2-.9-2.6-1.5-2.4-.1-4.5.9-1 2.7.1 1.6-.7 3.6-.4-.6-3-.2-.8 2.5-1.7-2.2-3.5-.8Z" stroke-width=".34" stroke="#333" stroke-opacity="1" cursor="pointer" fill="#ffffd4" fill-opacity="1"/><path d="m332.7 341.1 2.8-4.1 2.6-2.9 1.5-1.2 2-1.7-.2-2.4-1.5-1.8-1.2.6.3-1.7.2-1.8-.2-1.7-1-.5-.9.5-1-.2-.4-1.1-.5-2.8-.6-.9-1.8-.8-1 .6-2.8-.6-.2-4.1-.9-1.7.7-.6-.4-1.7.6-1.3.3-2.4-.8-1.9-1.5-.8-.4-1.2.3-1.7-5.1-.2-1.2-3.5h.7l-.1-1.3-.6-.9-.2-1.8-1.6-.8h-1.7l-1.1-.9-1.8-.6-1.1-1.1-3-.5-3.1-2.7.1-2-.4-1.2.2-2.3-3.4.6-1.4 1.1-2.2 1.2-.6.9-1.3.1-2-.3-1.5.5-1.2-.3-.1-4.6-2.1 1.8-2.3-.1-1.1-1.6-1.8-.2.5-1.3-1.5-1.8-1.2-2.7.6-.6v-1.2l1.6-.9-.4-1.6.7-1.1.1-1.4 3-2 2.2-.6.3-.5 2.4.2 1-8.3.1-1.3-.4-1.7-1.2-1.1v-2.2l1.5-.5.5.3.1-1.2-1.5-.3-.1-1.9 5.2.1.9-1 .8.9.5 1.8.5-.4 1.4 1.6 2.1-.2.5-.9 2-.7 1.1-.5.3-1.3 1.9-.8-.1-.7-2.2-.2-.4-1.9.2-2.1-1.2-.7.5-.3 2 .4 2.1.7.7-.7 2-.5 3-1.1 1-1.1-.3-.9 1.3-.1.6.7-.3 1.3.9.5.5 1.4-.7 1-.5 2.6.7 1.5.1 1.4 1.7 1.4 1.3.2.3-.6.8-.1 1.2-.6.9-.8 1.5.3.6-.1 1.5.2.2-.6-.4-.6.2-.9 1.1.3 1.3-.3 1.5.6 1.2.7.8-.9.6.2.3.8 1.3-.2 1-1.2.9-2.2 1.6-2.7.9-.2.7 1.7 1.4 5.3 1.4.5.1 2-2.1 2.5.9.9 4.7.5.1 3 2-1.9 3.4 1 4.4 1.9 1.3 1.7-.4 1.7 3.1-.9 5.2 1.6 4-.1 3.9 2.5 3.5 3.3 2 .9 2.3.1 1 1 1 3.8.4 1.8-.9 5-1.3 2-3.6 4.2-1.6 3.4-1.9 2.6-.6.1-.7 2.2.5 5.6-.5 4.7-.2 2-.8 1.2-.2 4-2.4 3.9-.3 3.2-2 1.3-.5 1.8h-2.8l-4 1.1-1.7 1.4-2.9.8-2.8 2.4-1.9 3-.2 2.3.6 1.7-.1 3-.4 1.5-1.6 1.6-2.1 5.3-1.9 2.4-1.5 1.4-.7 2.9-1.4 1.7-1-1.7.9-1.4-1.8-2.1-2.3-1.6-2.9-2-.9.1-3-2.3ZM783.9 236.4l1-1.2 2.2-1.6-.1 1.5v1.9l-1.3-.1-.5 1ZM716 166.2l1.3 1 .2 1.9-2.1.1-2.2-.2-1.6.4-2.5-1.1-.2-.6 1.2-2.3 1.3-.7 2 .7h1.3ZM556.7 316.6l-3.8 2.2-2.4 2.3-1 2-.8 1.1-1.4.3-.5 1.4-.4 1-1.6.7-2.1-.2-1.2-.8-1.1-.4-1.3.7-.7 1.4-1.3 1-1.3 1.3-1.9.3-.5-1.1.3-1.8-1.4-2.9-.7-.4.3-8.8 2.6-.1.4-10.8 1.9-.1 4.1-1 1 1.2 1.7-1.2h.8l1.5-.6.5.2.9 2.4.5.5.7 1.8 2.9 3.3 1.1.3-.1 1.1.7 1.9 2 .5Z" stroke-width=".34" stroke="#333" stroke-opacity="1" cursor="pointer" fill="#ffffd4" fill-opacity="1"/><path d="m520.6 227.6 2.2-.2.5-.8.4.1.7.7 3.3-1.2 1.1-1.2 1.4-1-.3-1.1.8-.3 2.5.2 2.5-1.4 1.9-3.3 1.3-1.2 1.7-.5.3 1.3 1.6 1.9v1.2l-.4 1.3.2.9.9.9 2 1.3 1.5 1.2v1l1.9 1.6 1.1 1.3.7 1.8 2 1.2.4.9-.9.3h-1.7l-2-.4-1 .3-.4.7-.8.1-1.1-.6-2.9 1.5-1.2-.3-.4.2-.8 1.8-2-.5-1.9-.3-1.7-1.1-2.2-1.1-1.4 1-1.1 1.5-.2 2.1-1.7-.1-1.8-.5-1.6 1.6-1.4 2.8-.2-.9-.2-1.4-1.2-1-1-1.5-.2-1.1-1.3-1.6.2-.9-.2-1.2.1-2.4.7-.5Z" stroke-width=".34" stroke="#333" stroke-opacity="1" cursor="pointer" fill="#fee391" fill-opacity="1"/><path d="m329.4 109.9 1.6.4 2.3-.1-1.6 1.3-.9.1-2.6-1.2-.3-1 1.2-.9Zm6.8-7.5-1.1.1-2.7-.9-1.7-1.4.9-.3 2.8.8 1.9 1.2Zm-144.6 1.8-1.5.4-2.9-1.4v-1l-1.4-1 .1-.9-2-.5.3-1.6.7-.6 1.9.6 1.1.4 2 .3v1l.3 1.4 1.5 1.2Zm159.3-6.4-2.4 2.5 1.8-.9 1.4.6-1.1 1 1.8.8 1.3-.7 2 .9-1.3 2.1 1.8-.5-.2 1.6.3 1.8-1.7 2.6-1.1.1-1.4-.5 1.2-2.4-.6-.4-3.4 2.5-1.4-.1 2-1.3-2-.8-2.6.2-4.5-.1-.1-.8 1.8-1.1-.8-.8 2.5-1.7 3.9-4.7 1.9-1.6 2.3-1 1.1.1-.7.8Zm-168.5-9.7 2.4-.2-3.4 3.3.1 2.3h-.9l-.3-1.4.3-1.3-.4-.9.6-1.2.9-1Zm132.5-22.7-1.7 1.5-.8-.3-.1-.8.2-.2 1.3-.8.9.1Zm-4.6-1.5-3.4 1.5h-1.4v-.8l2.4-1.2h2.8Zm-1.4-7.8-.5 1.1 1.3-.4.7.7 1.6.9 1.8.8-.6 1.3 1.6-.2.9.9-2.3.8-2.8-.6-.4-1.2-2.9 1.4-3.9 1.4.3-1.6-2.9.3 2.7-1.3 1.7-2.1 2.3-2.5Zm21.1-3.9-2.3.1.3-1.3 1.8-1.4 2-.4 1.1.7-.7 1.1-.4.4Zm-35-5.1-2 .9-1.9-.8-1.8.3-1.7-1.1 2.4-.8 2.3-1.1 1.4.7.8.5.1.5Zm24.8 67-1-1.7 1.4-4-.7-.8-1.8.5-.5-.8-2.6 2.2-1.5 2.3-1.3 1.3-1.2.5-.8.2-.5.7h-8l-1.3.6-3.3 2.1-.4.2-1.2 1.2h-4.6l-1.3.5.2.6-.1.9-.2.3-3.7 1.4-2.6.5-3.4 1.6h-.6l-.7-.5-.1-.4.2-.3.9-1 1.7-1.7 1.4-1.7.6-2.6.5-2.7-1.9-1.4.5-.5-.2-.4h-.6l-.3-.5.2-.7-.6.3h-.6l.3-.3-.5-.3.1-.8-1.4-.9-1.5-1-1.8-1.2-1.7-1-2.4.8h-.8l-2.5-.7-2.1.3-1.9-.9-2.1-.4-1.6-.2-.4-.5.4-1.6h-.8l-.6 1.1H193.8l-2.6-2.9-.8-1.2-3.3-1.2.7-2.6 1.6-1.8-1.9-1.2 1.5-2.3-1-2.1 1.2-1.5 2.4-1.3 1.4-1.8-2.1-1.8.6-3.2.6-2-.8-1.3-.4-1.1.3-1.5-3 .9-3.6 1.6-.1-1.8-.3-1.3-1.3-.7-2-.1 16.8-15.3 11.5-9.6 2.8.6 1.6 1.2 1.7.3 3-1.1 3.3-.8 2.5.3 4.1-1.1 3.9-.6.1 1 2.1-.6 1.8-1.2 1 .3.7 2.3 4.5-1.7-1.9 1.9 2.8-.4 1.6-.8 2.1.2 1.8 1 3.6 1 2.2.4 2.1-.2 1.3 1.3-4 1.3 3 .6 5.6-.3 2.1-.5.7 1.6 3.3-1.3-1-1.1 2.1-.9 2.5-.1 1.8-.3 1 .6.7 1.4 2.3-.2 2.5 1.2 3.4-.4h2.8l1.1-1.6 2.1-.4 2.3.8-2 2.5 2.9-2.1 1.6.1 2.9-2.6-.7-1.5-1.4-1.1 2.7-2.7 3.8-1.8 2.1.4 1 1.1.1 2.8-2.7 1.2 3.1.5-2 2.6 4.1-2 1.1 1.7-2 1.9.6 1.7 3.4-1.8 3.1-2.3 2.2-2.7 2.5.2 2.6.3 1.7 1.3-.8 1.3-2.4 1.3.4 1.4-1.1 1.3-5.1 1.8-3.1.4-1.5-.8-1.5 1.3-3.5 2.2-1.4 1.2-3.7 1.8-3 .2-2.4 1.1-1.4 1.8-2.7.3-4 2.2-4.5 3.1-2.3 2.1-2.3 3.3 2.8.4-.7 2.6-.4 2.2 3.4-.6 3.3 1.2 1.6 1.1.8 1.3 2.3.8 1.7 1.2 3.6.2 2.2.3-1.7 2.4-.8 2.9.1 3.2 2 2.8 2.2-1 2.7-2.9 1-4.6-.8-1.5 4.3-1.3 3.5-2 2.2-2 .8-1.9-.2-2.3-1.4-2.1 4.1-2.9.5-2.5 1.8-4.3 1.8-.6 3.2.7 2 .3 2.1-.7 1.4.9 1.7 1.6.1 1 3.6.2-1.2 2.3-1.1 3.5 1.8.5.8 1.6 3.8-1.5 3.5-3.1 2-1.3.5 2.5 1.2 3.5 1 3.4-1.6 1.8 2.3 1.6 1.3 1.6 3.3.7 1.1.9v2.5l1.6.3.5 1.1-.9 3.3-2 1.1-2 1-4.2 1-3.7 2.4-4 .5-4.7-.6-3.5-.1-2.5.2-2.7 2.1-3.4 1.3-4.8 3.9-3.7 2.7 2.2-.5 5.2-3.8 5.7-2.5 3.6-.3 1.6 1.5-2.9 2-.3 3.1v2.2l2.7 1.5 4-.4 3.4-3.3-.5 2.1 1.2 1.1-3.5 1.9-5.8 1.8-2.8 1.2-3.3 2.1-1.8-.2.7-2.5 5-2.5-3.9.1Zm-49.9-76.9-2.2 1.1 4.9-.7 1.2 1.2 3.5-1.2.8.7-1 2.5 2-1.1 1.4-2.5 2-.3 1.4.4 1 1-1.3 2.3-1.2 1.8 2 1.2 2.4 1.2-1.3 1.1-3.3.2.4 1-1.5.9-3.2-.4-2.7-.7-2.4.2-4.4.9-5.3.3-3.7.3.1-1.2-1.9-.7-2 .3-.3-2 1.5-.3 3.4-.4 2.6.1 3-.5-3.1-.5-4.3.2-2.6-.1v-.9l5.5-1h-3l-2.5-.6 3.7-1.9 2.4-.9 6.7-1.5Zm18.6-.8-3.3 1.6-1.1-1.7 1-.3 2.6-.1Zm51 .8-.4.7-1.9-.1h-1.9l-2.3.3-.4-.2-1-1.2.8-.9 1-.2 4 .3Zm-18.7-.1.1 1.5 3.4-2 5.5-1 1.1 2.5-1.6 1.6 4.3-.7 2.5-.9 3.2 1.2 1.7 1.2-.5 1 3.8-.5.9 1.6 4 .9 1 1.1.4 2.3-4.3 1.2 3.6 1.7 2.8.6 1.6 2.3 3 .2-1.6 1.8-5.1 3.1-1.9-1.1-1.7-2.6-2.8.4-1.1 1.5 1.3 1.5 2.1 1.2.4.7v2.7l-1.7 1.9-2.2-.7-4-2.2 1.7 2.4 1.3 1.6-.2 1-5.1-1.1-3.6-1.6-1.7-1.3 1.1-.8-2.3-1.4-2.2-1.2-.4.7-6.1.5-1.2-1 2.6-1.9 3.8-.1 4.3-.3-.1-.9 1.5-1.4 4.2-2.5.1-1.1-.2-.9-2.2-1.3-3.3-.8 1.6-.7-.9-1.6-1.6-.1-.9-.9-1.6.8-3.7.3-6.6-.6-3.4-.7-2.8-.4-.9-.8 3-1.2h-2.7l1.6-2.5 3.3-2.2 2.8-.9 5.3-.7Zm-23.7-1.7 1.7.5 3.5-.3-.2.7-2.8 1.2 1.7 1-2.4 2.2-4 1-1.6-.2-.4-1-2.7-1.9.8-.7 3.5.3-.5-1.6Zm10.6 2.6-3.7 1.8-2-.1.9-2.1 1.2-1.2 1.9-1 2.5-.7 3.7.1 2.9.6-4.7 2.1Zm-54.4 3.4-6.4 1.2.3-1.1-2.7-1.3 2-1 3.5-1.8 3.6-1.6.2-1.4 6.6-.4 1.9.5 4.5.1.9.7.7 1-3 .6-6.5 1.7-4.4 1.7Zm58.8-8.7-1.9.9-2.5-.1-1.5-.7 2.1-1 3.2-.6.7.8Zm-4.3-4 .2 1.1-1.3 1.2-2.7 1.7-3.2.2-1.6-.4 1.6-1.3-3.1.2 2-1.8 1.8.1 3.6-.8 2.3.1Zm-18.4 1.2-.4.8 2.1-.4 1.7.1-1 1.2-2.4 1.1-6.5.3-5.8 1.1h-2.8l.7-.8 5-1-8.5.3-1.9-.4 5.4-2.3 2.6-.6 3.9.7 1.4 1.4 2.9.2.2-2.2 2.7-.8 1.5.2Zm26.1-2 1.1.7h3.4l.7.7-1.3.9 1.5.5.6.6 2.3.1 2.4.2 3.3-.5 3.8-.2 2.7.1 1.1.9-.4 1-1.7.6-3.1.5-2.1-.3-5.5.4h-3.7l-2.7-.3-4-.7.7-1.3 1-1.2-.7-1-3.3-.2-1.3-.7 1.8-1Zm-35.6-1.2-2.7 1.7-2.5.8-1.8.1-4.6.9-3.3.4-1.7-.5 5.4-1.7 5.7-1.5 2.6.1Zm38.1.2-.8.1-3.1-.1.3-.7 3.4.1.8.4Zm-27.6-.4-4.1.7-1.6-.7 2.4-.7 2.8-.3 2 .4Zm3.7-2-2.7.5h-2.8l.5-.3 2.6-.7.8.1Zm21.9 1.2-3 .5-.8-.5.3-.8 1-.9h2.1l.8.2 1.1.7Zm-6.4-.5-.5.9-2.5-.3-1.9-.7-3.7-.1 2.5-.6-1.3-.5 1.1-.9 2.8.3 3.5.8Zm25.5-2.9 1.2.7-3 .6-5.1 1.6-3.1.2-3.3-.3-.7-.9 1-.8 2.1-.5h-3.1l-.9-.7.1-1 2.3-.9 1.9-.5 1.9-.2-.1-.4 3.9-.1.7 1 2.3.4 2.2.4Zm37.2-6.6 4 .2 3.2.2 2.4.5-.5.4-4.6.8-4.2.4-1.9.4h3.6l-4.9 1.2-3.2.5-4.4 1.7-3.8.3-1.5.5-5.3.2 2 .3-1.5.3.3 1.1-2.3.8-3.3.6-1.7.9-3 .6-.3.5 3.1-.1-.5.6-6 1.4-4-.7-5.5.4-2.3-.3-3.2-.1.9-1.1 3.8-.5.9-1.6 1.2-.2 3.6 1-.8-1.4-2.3-.5 2.3-.8 3.6-.5 1.3-.8-1.3-.8.5-1.1 4.4.1 1.1.2 3.4-.7-3.5-.2-5.9.1-2.1-.6-.4-.8-1.1-.6.4-.6 2.9-.4h1.9l3.5-.3 3.2-.7 1.9.1 1.1.5 2.3-.9 2.5-.3 3-.2 4.9-.1.6.2 4.9-.3 3.3.1ZM502.5 107.1l.2.4-.3.3-.1.3.1.2-.1.1.2.1.1-.1.7.1v.3l1.3.1-.1 1.2-1 .5-1.8-.3-.4 1.1-1.2.1-.4-.4-1.3 1-1.1.1-1.1-.6-.8-1.3-1.1.4v-1.3l1.6-1.6-.1-.8 1.1.3.6-.5h2l.5-.6ZM324.4 407.8l2.8 6.5h3.7l-.2 1.2-1.5.9-1.1-.1-1.5-.3-2-.8-2.5-.4-3.5-1.6-3-1.6-4.6-3.2 2.1.6 4.1 1.9 3.4 1.1.6-1.3-.2-2 1.6-1.2Zm-19.1-89.2.4.7-.6 3.2-2.6 1.4.7 5.1-.4.9 1 1.2-1.5 1.9-1.3 2.8-.4 2.8.8 2.9-1 3.1 2.3 5.2.8.5.6 2.8-.7 3 .6 2.5-1.4 1.9.8 2.8 1.5 2.9-1.2 1.1.2 2.7.3 3.1 1.6 3.6-.8.6 1.7 3.5 1.4 1.1-.3 1.2 1.3.6.6 1.1-.8.6.9 1.7.5 4-.3 2.5.8 1.5v1.8l-1.3 1.3 1.4 3.1 1.3 1.1 1.4-.2.9 2.1 1.7 1.7 5.6.4 2.3.5-2-.1-.8.8-1.6 1 .8 2.7-.9.1-3-1-3.4-2-3.6-1.6-1.6-1.9-.1-1.7-1.9-1.9-2.4-5-.1-2.8 1.6-2.3-3.9-.8 1.3-2.7-1-4.9 3.1 1.1-.9-6.2-1.9-.8.5 3.7-1.6-.4-.7-4.3-.9-5.5.5-2-1.6-3-1.1-3.4 1-.1.3-4.8.5-4.8.1-4.5-1.5-4.6.2-2.4-1-3.8.9-3.6-.4-5.9v-6.2l.1-6.8-.8-4.9-1-4.3 1.3-.7.6-1.6 1.5 2.1.5 2.1 1.5 1.3-.5 2.9 1.8 3.4 1.5 4.2ZM769.4 193.7l-2.1 1.4-2.3-.9-.5-2.6 1.1-1.4 2.7-.8 1.5.1.8 1.1-.9 1.3Zm10.9-92.3 4.2 2.1 2.8 2.8h3.6l1.2-1.2 3.3-.8.6 2.6-.2 1.1 1.4 3.2.3 2.9-3.3-.5-1.3 1 2.2 2.6 1.8 3.5h-1.1l.9 1.6-2.6-1.8v1.7l-3 1.3 1.3 1.5-2.2-.1-1.7-.9-.5 2.1-1.8 1.6-1 1.9-3 .9-1.1 1.4-2.3.8.6-1.4-1-1.1.9-2-2.1-1.6-1.6 1-1.7 2.1-.6 2-2.4.1-.6 1.4 2.3 2 2.2.5.7 1.4 2.4.9 1.8-2.2 2.7 1.2 1.7.1 1.1 1.5-3.2.9-.5 1.6-1.7 1.5-.5 2.1 3.4 1.7 2.2 2.9 2.5 2.8 2.6 2.3.8 2.3-1.4.8 1.2 1.6 1.8.9.4 2.5v2.4l-1.3.3-1 3.2-1.1 4-1.6 3.6-3 2.8-3.1 2.5-2.9.3-1.3 1.4-1.1-1-1.2 1.5-3.4 1.5-2.6.5-.4 3.2-1.4.1-1.1-2.2.4-1.1-3.6-1-1.2.5-2.7-.8-1.5-1.2.1-1.7-2.4-.6-1.5-1.1-1.9 1.6-2.5.3h-2.1l-1.3.8-1.2.4.9 3.4h-1.4l-.3-.7-.3-1.3-1.8.9-1.2-.6-2.1-1.1.3-2.5-1.7-.6-1.1-2.8-2.7.5-.2-3.5 1.9-2.6-.4-2.5-.6-2.3-1.3-.7-1.3-1.8-1.4.3-2.9-.5.6-1.2-1.7-1.9-1.5 1.2-2.3-.7-2.5 1.9-1.9 2.3-2 .3-1.3-.8h-1.3l-2-.7-1.3.7-1.2 2.3-.7-2.4-1.4.6-3.1-.3-3.1-.7-2.3-1.3-2.1-.6-1.2-1.4-1.5-.5-3-1.9-2.3-.9-.9.7-4-2.1-2.9-1.9-1.5-3.4 1.9.4-.3-1.5-1.4-1.5-.4-2.5-3.6-3.5-4.5-1.3-1.3-2.3-2.3-1.4-.7-.8-.8-1.7-.3-1.2-1.7-.7-.7.3-1.4-2.8.5-.7-.6-.7 1.9-1.4 1.5-.6 2.8.4.3-1.9 3-.3.4-1.2 3.3-1.6.1-.7-.8-1.7 1.4-.8-4.2-5.1 4.3-1.2.9-.7-.5-5.3 5.1 1 .8-1.3-1.2-3 1.8-.3.9-1.9.8-.2 1.5 2 2.7 1.6 3.9 1.1 2.7 2.3.6 3.5 1.4 1.3 3.1.5 3.4.4 3.7 1.8 1.7.4 2.3 2.7 2.2 1.8 2.7-.1 5.3.7 3-.4 2.6.4 4.4 1.8h2.9l1.6.9 2-1.6 3.5-1 3.5-.1 2.3-1.1.9-1.6 1.2-1-.9-.9-1.4-1.2.2-1.9 1.5.3 2.8.6 1.5-1.6 3-1.1.6-2 1.2-.8 3.2-.4 2 .3-.3-1-3.4-2.1-2.5-.9-1.1 1-2.6-.4-1.1.4-1.3-1.2-.2-3-.2-2.2 3.4 1.1 2.1-1.8-.9-1.3V95l.6-.9-1.2-1.6-1.8-.7.8-1.4 2.4-.5 3-.1 4 .8 2.8 1.1 3.6 2.9 1.8 1.3 2.1 1.7 2.9 2.9Z" stroke-width=".34" stroke="#333" stroke-opacity="1" cursor="pointer" fill="#ffffd4" fill-opacity="1"/><path d="m472.4 234.9-1.2.1-1.9-.6h-1.7l-3.1.5-1.9.9-2.6 1.1-.5-.1.2-2.4.2-.4v-1.2l-1.2-1.3-.8-.2-.8-.8.6-1.3-.2-1.5.1-.9h.4l.2-1.3-.2-.6.2-.4 1-.4-.6-2.4-.6-1.2.2-1 .5-.3.4-.3.7.5h2l.5-.9.5.1.8-.3.4 1.3.6-.4 1.1-.5 1.2.7.4 1 1.2.6.9-.7 1.3-.2 1.8.8.7 4.3-1.1 2.5-.7 3.5 1.1 2.5ZM514.8 243.2l-.3-.2-1.6.4-1.6-.4-1.3.2-4.3-.1.4-2.4-1.1-2-1.2-.5-.5-1.3-.7-.5v-.8l.7-2.1 1.2-2.9.8-.1 1.6-1.7 1-.1 1.5 1.3 1.8-1.1.3-1.2.5-1.2.4-1.5 1.5-1.3.5-2.1.5-.7.4-1.5.7-2 2.2-2.3.1-1 .3-.5-1.1-1.2.1-1 .7-.2 1.1 2 .2 2-.1 2 1.5 2.7h-1.5l-.7.2-1.2-.3-.6 1.4 1.6 1.8 1.2.5.3 1.2.9 2.1-.4.8-1.3 3.1-.7.5-.1 2.4.2 1.2-.2.9 1.3 1.6.2 1.1 1 1.5 1.2 1 .2 1.4.2.9-.1 1.6-2.2-.7-2.1-.8Z" stroke-width=".34" stroke="#333" stroke-opacity="1" cursor="pointer" fill="#fec44f" fill-opacity="1"/><path d="m563 243.4-.8 1-1 .8-1.1 1.6-.5 1.4-.2 2.4-.6 1.2v2.2l-.8.9-.1 1.8-.4.2-.2 1.7.6 1.3.2 3.7.4 2.7-.3 1.6.5 1.8 1.5 1.7 1.4 3.8-1-.4-3.6.6-.7.3-.8 1.9.6 1.4-.6 3.5-.4 3.1.7.5 1.8 1.2.8-.6.1 3.3h-2l-1.1-1.7-.9-1.3-2-.4-.6-1.6-1.6 1-2.1-.5-.9-1.3-1.7-.3-1.2.1-.1-1h-.9l-1.2-.2-1.7.4h-1.1l-.7.2.2-3.6-.9-1.1-.1-1.8.4-1.9-.5-1.1-.1-1.9h-3.2l.2-1.1h-1.3l-.2.6-1.6.1-.7 1.7-.4.8-1.5-.4-.8.4-1.8.2-1-1.5-.6-1-.7-1.8-.7-2.3h-7.8l-1 .3h-.7l-1.1.4-.4-.9.7-.4.1-1.3.4-.7 1-.7.7.3.9-1.1h1.4l.2.9 1 .5 1.6-1.9 1.5-1.5.7-.9-.1-2.5 1.2-2.9 1.2-1.6 1.8-1.5.3-.9.1-1.1.4-1.1-.2-1.7.4-2.7.5-1.8.8-1.6.1-1.9.2-2.1 1.1-1.5 1.4-1 2.2 1.1 1.7 1.1 1.9.3 2 .5.8-1.8.4-.2 1.2.3 2.9-1.5 1.1.6.8-.1.4-.7 1-.3 2 .4h1.7l.9-.3 1.7 2.5 1.2.4.7-.5 1.2.2 1.5-.7.6 1.3 2.4 2-.1 3.5Z" stroke-width=".34" stroke="#333" stroke-opacity="1" cursor="pointer" fill="#ec7014" fill-opacity="1"/><path d="m514.6 264.4-1-1-.8.5-1.1 1.3-2.2-3.2 2.1-1.7-1-2 .9-.7 1.8-.4.2-1.3 1.4 1.4 2.4.2.8-1.5.3-2-.3-2.3-1.2-1.8 1.1-3.5-.6-.6-2 .2-.8-1.5.2-1.3 3.4.1 2.1.8 2.2.7.1-1.6 1.4-2.8 1.6-1.6 1.8.5 1.7.1-.1 1.9-.8 1.6-.5 1.8-.4 2.7.2 1.7-.4 1.1-.1 1.1-.3.9-1.8 1.5-1.2 1.6-1.2 2.9.1 2.5-.7.9-1.5 1.5-1.6 1.9-1-.5-.2-.9h-1.4l-.9 1.1Z" stroke-width=".34" stroke="#333" stroke-opacity="1" cursor="pointer" fill="#fee391" fill-opacity="1"/><path d="m279.2 250.5-1.1-.8-1.3-1-.8.5-2.3-.4-.6-1.3-.5.1-2.6-1.8-.4-.9 1-.2-.1-1.5.7-1.1 1.3-.2 1.1-1.9 1.1-1.6-.9-.7.5-1.8-.5-2.7.6-.8-.3-2.6-1-1.6.4-1.5.8.3.6-.9-.6-1.8.4-.4h1.3l2.1-2.1 1.1-.3.1-1 .7-2.5 1.6-1.4 1.6-.1.3-.6 2 .2 2.2-1.5 1.1-.7 1.4-1.4.9.2.7.8-.6 1-1.8.5-.7 1.5-1.1.9-.8 1.1-.5 2.1-.8 1.8 1.4.2.2 1.4.6.7.1 1.2-.3 1.1v.6l.7.3.6 1 3.4-.3 1.5.4 1.8 2.6 1.1-.3 1.9.1 1.5-.3 1 .5-.6 1.6-.6 1.1-.3 2.1.5 2 .7.9.1.7-1.4 1.5 1 .7.7 1 .8 3-.5.4-.5-1.8-.8-.9-.9 1-5.2-.1.1 1.9 1.5.3-.1 1.2-.5-.3-1.5.5v2.2l1.2 1.1.4 1.7-.1 1.3-1 8.3-1.4-1.6-.8-.1 1.7-3.1-2.1-1.4-1.6.3-1-.6-1.4.8-2-.3-1.6-3.2-1.2-.8-.9-1.4-1.8-1.4ZM259.7 225.2l-1.4-.7-.5-.6.3-.5v-.7l-.7-.7-1-.6-.9-.4-.1-.9-.7-.5.1.9-.6.7-.5-.9-.9-.3-.3-.6.1-.9.4-.9-.7-.5.6-.5.5-.4 1.7.8.6-.4.8.2.4.7.8.2.7-.7.5 1.7 1 1.2 1.1 1.3-1 .2-.1 1.2.6.5-.4.3v.6l-.2.6ZM266 180.1l2.2.2h2.1l2.3 1 .9 1.2 2.4-.4.9.7 1.9 1.9 1.5 1.3h.9l1.5.6-.3.9 1.9.1 1.8 1.2-.4.7-1.8.4-1.7.2-1.8-.3-3.8.3 2-1.7-1-.7-1.7-.2-.8-.9-.4-1.7-1.5.1-2.3-.8-.7-.7-3.3-.4-.9-.6 1.1-.8-2.5-.1-2.1 1.5-1.1.1-.5.7-1.3.4-1.1-.3 1.5-1 .7-1.1 1.3-.6 1.4-.6 2-.3ZM562.2 144h.1l.3-.7h1.8l2.2-.9-1.6 1.3.3.6.1.2-2.4 1.2-1.3-.4-.7-1.2ZM519.6 103.9l-1.1-.5-1.1.1-1.9-.9-.8.2-1.2 1.2-1.8-.9-1.4-1.3-1.3-.7-.3-1.2-.5-.9 1.7-.6.8-.7 1.6-.6.5-.6.6.4 1-.3 1.2.9 1.8.3-.1.8 1.3.6.3-.8 1.6.3.3 1 1.7.1 1.2 1.5h-.7l-.3.5-.5.1-.1.7-.4.1v.3l-.8.3h-1Z" stroke-width=".34" stroke="#333" stroke-opacity="1" cursor="pointer" fill="#ffffd4" fill-opacity="1"/><path d="m502.1 85.4.1 1.1 2.3.7v1l2.3-.5 1.2-.8 2.6 1.1 1.1.9.7 1.5-.6.8.9 1 .7 1.5-.1 1 1.1 1.9-1 .3-.6-.4-.5.6-1.6.6-.8.7-1.7.6.5.9.3 1.2 1.3.7 1.4 1.3-.8 1.3-.8.4.5 1.9-.2.5-.8-.6-1.1-.1-1.6.6-2.1-.2-.3.8-1.2-.8-.8.2-2.5-.9-.5.6h-2l.3-2.1 1.1-2-3.4-.6-1.1-.7v-1.3l-.4-.7.2-1.9-.5-3.1h1.3l.6-1.1.4-2.6-.4-1 .4-.6 1.8-.1.5.6 1.4-1.4-.5-1.1-.2-1.6 1.7.4ZM593.9 211.7l.7.9v1.3l-1.5.7 1.2.8-1 1.6-.6-.5-.6.2h-1.5l-.1-.9-.2-.9.8-1.4.9-1.3 1.2.2Z" stroke-width=".34" stroke="#333" stroke-opacity="1" cursor="pointer" fill="#ffffd4" fill-opacity="1"/><path d="m508.1 83.6-1.2 2.3-2.4-1.6-.4-1.1 3.2-1Zm-6 1.8-1.4.5-1.7-.4-1-1.6-.2-2.9.3-.7.6-.9 1.9-.2.7-.7 1.7-.8v1.4l-.6.9.4.8 1.2.4-.5 1.1-.7-.3-1.4 2ZM405.9 16.6l6-1.1 5.4.1 2.4-.6 5.6-.2 12.4.2 9.3 1.4-3.1.7-6.2.1-8.6.1.6.4 5.8-.2 4.6.6 3.3-.6 1.1.7-2.1 1.1 4.3-.7 8-.7 4.7.3.8.8-6.9 1.4-1 .4-5.4.4 3.8.1-2.3 1.5-1.7 1.4-.6 2.5 1.7 1.4-2.7.1-3 .7 2.9 1.2v2l-2 .2 1.9 2-4 .2 1.8 1-.7.8-2.7.4h-2.6l2 1.7-.2 1-3.5-1-1.1.7 2.4.6 2.1 1.5.3 2-3.5.5-1.2-1-2-1.4.2 1.7-2.5 1.3 5 .1 2.6.1-5.6 2.2-5.8 2.1-5.9.8h-2.2l-2.3 1-3.5 2.8-4.8 1.8-1.4.1-2.9.7-3.1.6-2.2 1.6-.7 1.9-1.6 1.8-4 2.1.1 2.1-1.7 2.3-1.9 2.7-3 .1-2.4-2.2h-4.2l-1.5-1.5-.4-2.7-2.3-3.3-.3-1.8.7-2.4-1.7-2.4 1.5-1.9-.9-.9 3.3-3.1 3.4-.9 1.2-1.1 1.3-2-2.6.9-1.2.4-1.9.4-2-.9.8-1.7 1.4-1.3h1.8l3.5.6-2.5-1.5-1.2-.9-2.1.4-1.2-.7 3.3-2.2-.6-.9-.5-1.7-.7-2.5-1.7-1 .6-.9-3.8-1.4-3.6-.1-4.8.1-4.4.1-1.5-.7-1.8-1.4 5.1-.7 3.6-.1-6.9-.6-3-.9 1-.9 7.4-1 7.1-1.1 1.3-.8-3.8-.7 2.2-.8 6.9-1.3 2.5-.2.1-.9 4.2-.5 5.1-.2 5-.1 1.3.6 5-1 3.3.7 2.1.1 3 .6-3.2-1ZM292.3 190.5l.4-.5h2l1.5.8.7-.1.3 1.1h1.5l-.2.9 1.1.1 1.2 1.1-1.1 1.2-1.2-.7-1.2.2-.8-.2-.6.6-1 .2-.3-.8-.9.5-1.3 2-.6-.5-.1-.8.2-.8-.6-.9.7-.6.3-1.1ZM511.2 179.2l-8.8 5.8-7.5 5.9-3.7 1.3-2.9.3-.1-1.9-1.2-.5-1.6-.8-.6-1.5-8.8-6.5-8.8-6.6-9.6-7.3.1-.6V163l4.2-2.2 2.6-.5 2.1-.8 1-1.5 3-1.2.1-2.2 1.5-.3 1.2-1.1 3.3-.5.5-1.2-.7-.6-.9-3.2-.1-1.8-.9-2 2.4-1.6 2.7-.5 1.6-1.3 2.4-.9 4.2-.5 4.1-.3 1.3.5 2.3-1.2h2.6l1.1.7 1.7-.2-.5 1.5.5 2.9-.5 2.5-1.5 1.7.2 2.2 2.2 1.8v.8l1.6 1.2 1.2 5.4.9 2.7.2 1.4-.4 2.4.2 1.4-.3 1.7.3 1.8-1 1.3 1.6 2.2.1 1.3.9 1.7 1.2-.6 2.1 1.4ZM266.2 260.3l1.4-2.3-.6-1.3-1 1.4-1.6-1.3.5-.9-.5-2.7.9-.5.5-1.8 1-2-.1-1.2 1.4-.7 1.9-1.2 2.6 1.8.5-.1.6 1.3 2.3.4.8-.5 1.3 1 1.1.8.4 2.2-.8 2-2.9 3.2-3.1 1.2-1.6 2.6-.4 2-1.5 1.3-1.2-1.6-1.1-.3-1.1.2-.1-1.1.8-.7ZM576.1 183.7h-30.9l-.5-11.2-.6-10.7-.9-2.4.5-1.9-.5-1.3.8-1.4 3.4-.1 2.5.8 2.6.9 1.2.5 1.9-1 1-.8 2.2-.3 1.9.4.8 1.5.5-1 2.1.7 2 .2 1.2-.7 2.1 5.1-.6 1.2-.3 2.3-.6 1.6-.6.5-.9-1-1.3-1.3-2.1-4.3-.3.3 1.3 3.1 1.9 3.1 2.3 4.7 1 1.6 1 1.7 2.5 3.3-.5.6.2 1.9 3.2 2.7ZM592 212.2l-.9-1-1.2-1.8-1.2-.9-.7-1.1-2.4-1.2h-1.8l-.7-.7-1.5.8-1.6-1.4-.8 2.2-3.1-.6-.3-1.2 1-4.4.1-2 .8-1 1.9-.5 1.2-1.7 1.8 3.5.8 2.8 1.5 1.5 3.8 2.8 1.5 1.7 1.5 1.8.9 1 1.3.9-.7.7ZM458 123.8l.2-2.1-.9-1.3 3.5-2.2 2.9.6h3.3l2.5.5 2-.2 3.9.1 1 1.2 4.4 1.3.9-.6 2.7 1.3 2.8-.4.2 1.8-2.3 2-3.1.6-.2 1-1.5 1.6-1 2.5 1 1.7-1.5 1.3-.5 2-1.9.6-1.8 2.3-3.1.1-2.4-.1-1.6 1.1-1 1.1-1.2-.2-.9-1.1-.6-1.7-2.4-.5-.1-1 .9-1.1.4-.8-.8-.9.7-2-.9-1.8 1-.2.2-1.4.4-.5.1-2.3 1.1-.8-.6-1.5-1.4-.1-.5.4h-1.4l-.5-1.5-1.1.4ZM532.8 77.5v-1.7l-.8.4-1.5-1-.5-1.6 2.6-.8 2.6-.4 2.4.5 2.2-.1.4.5-1.2 1.6 1.2 2.6-.8.9h-1.8l-2-1.1-1-.3Z" stroke-width=".34" stroke="#333" stroke-opacity="1" cursor="pointer" fill="#ffffd4" fill-opacity="1"/><path d="M583.8 206.2h1.8l2.4 1.2.7 1.1 1.2.9 1.2 1.8.9 1-.9 1.3-.8 1.4.2.9.1.9h1.5l.6-.2.6.5-.5 1.1 1 1.7 1.1 1.4 1 1.1 8.8 3.6h2.2l-7.3 9-3.5.1-2.3 2.2h-1.7l-.7 1h-1.8l-1.1-1-2.4 1.2-.8 1.3-1.8-.3-.6-.3-.6.1-.8-.1-3.4-2.5h-1.9l-.9-1v-1.7l-1.4-.5-1.6-3.3-1.3-.7-.5-1.2-1.3-1.5-1.7-.2.9-1.7 1.4-.1.4-.9-.1-2.7.7-3.2 1.2-.8.2-1.2 1.1-2.3 1.6-1.5.9-3 .3-2.6 3.1.6.8-2.2 1.6 1.4 1.5-.8Z" stroke-width=".34" stroke="#333" stroke-opacity="1" cursor="pointer" fill="#ec7014" fill-opacity="1"/><path d="m535.3 47.2.2 1.8 3.4 1.7-1.3 2 3 3-.8 2.2 2.3 2-.4 1.8 3.5 1.8-.4 1.4-1.6 1.6-3.8 3.5-3.8.2-3.5 1-3.4.6-1.5-1.5-2.1-.9v-2.7l-1.4-2.5.7-1.6L526 61l4.1-2.9 1.2-.6-.4-1.1-3-1.3-.9-1-.9-4-3.3-1.7-2.9-1.3 1.1-.6 2.4 1.3 2.5-.1 2.2.6 1.6-1.1.5-1.9 2.8-.9 2.7 1ZM948.8 302.3l.7.9-.8 1.5-1.7.5-1.4-.4.1-1.3 1.2-1.1 1.2.4Zm3-1.6-1.8.6-.1-1.1 1.5-.6.8-.2 1.8-.9-.3 1.4Zm-945.3-.9-.2.1-.3-1.4.5-.2ZM503.2 123l-.7 2.3-1.1-.6-.7-2 .5-1.1 1.5-1.2Zm-10-21.8.5.2h.7l1.1.7 3.4.6-1.1 2-.3 2.1-.6.5-1.1-.3.1.8-1.6 1.6v1.3l1.1-.4.8 1.3v.8l.7 1.1-.8.9.7 2.3 1.3.4-.2 1.3-2.1 1.7-4.8-.8-3.5.9-.3 1.8-2.8.4-2.7-1.3-.9.6-4.4-1.3-1-1.2 1.3-1.8.5-5.9-2.4-3.1-1.8-1.5-3.5-1.1-.2-2.1 3-.7 3.9.8-.7-3.3 2.2 1.2 5.4-2.3.7-2.4 2-.5.3 1h1.1l1.1 1.2 1.6 1.4 1.2-.3ZM509.5 262l-2.7-3-1.8-2.5-1.6-3.1.1-1.1.6-.9.7-2.2.5-2.2.9-.2h3.9l-.1-3.6 1.3-.2 1.6.4 1.6-.4.3.2-.2 1.3.8 1.5 2-.2.6.6-1.1 3.5 1.2 1.8.3 2.3-.3 2-.8 1.5-2.4-.2-1.4-1.4-.2 1.3-1.8.4-.9.7 1 2ZM466.1 88.6l-1.7-.6-1.4.1.6-1.6-.4-1.5 1.8-.1 2.4 1.7Zm7.4-13.5-2.4 3.1 2.3-.4h2.3l-.6 2.3-2 2.5 2.3.2.2.3 1.9 3.3 1.5.5 1.4 3.3.7 1.1 2.7.6-.2 1.8-1.2.9.9 1.5-2 1.5-3.1-.1-3.9.8-1.1-.5-1.6 1.3-2.1-.3-1.6 1.1-1.2-.6 3.4-3 2.1-.6-3.6-.5-.6-1.2 2.4-.9-1.2-1.5.5-1.9 3.3.2.4-1.6-1.5-1.8-2.7-.5-.5-.8.8-1.3-.7-.8-1.2 1.4v-2.7l-1.1-1.5.9-2.9 1.8-2.3 1.7.3ZM581.2 124.8l.1-1.2-1-2.1-1.6-1.1-1.4-.3-1-.9.2-.4 2.1.5 3.7.5 3.6 1.4.5.6 1.4-.5 2.4.6 1 1.3 1.6.7-.5.4 1.5 1.6-.3.3-1.3-.1-2-.9-.5.5-3.3.5-2.6-1.5Z" stroke-width=".34" stroke="#333" stroke-opacity="1" cursor="pointer" fill="#ffffd4" fill-opacity="1"/><path d="m482.8 232.1-4.2 1.8-1.4 1-2.4.9-2.4-.9.1-1.2-1.1-2.5.7-3.5 1.1-2.5-.7-4.3-.4-2.2.1-1.8 4.6-.1 1.2.2.8-.5 1.3.3-.2.9 1.1 1.6v2.2l.2 2.3.7 1.1-.6 2.7.2 1.5.7 2ZM457.6 226.8l-.8-.1-.5 1.3-.8-.1-.5-.6.2-1.2-1.1-1.9-.7.4h-.6l-.7.2v-1.1l-.4-.8.1-.8-.5-1.3-.8-1.1h-2.1l-.6.6h-.8l-.4.7-.3.8-1.5 1.4-1.1-1.8-1-1.2-.7-.4-.7-.6-.2-1.3-.4-.7-.8-.5 1.2-1.5.8.1.7-.5h.6l.4-.4-.2-1 .3-.3.1-1.1 1.2.1 1.9.7.6-.1.2-.3 1.5.2.3-.1.2 1.1h.4l.7-.4.4.1.8.7 1.1.3.7-.7.9-.4.6-.4.6.1.5.6.3.9 1.1 1.2-.5.8-.1 1 .5-.3.4.4-.2.9.8.8-.5.3-.2 1 .6 1.2.6 2.4-1 .4-.2.4.2.6-.2 1.3Z" stroke-width=".34" stroke="#333" stroke-opacity="1" cursor="pointer" fill="#fec44f" fill-opacity="1"/><path d="m435.5 210.3.3-1.3 2.9-.1.6-.7h.9l1 .7h.8l.9-.5.5.9-1.1.6h-1.2l-1.1-.6-1 .7h-.5l-.6.4Z" stroke-width=".34" stroke="#333" stroke-opacity="1" cursor="pointer" fill="#ffffd4" fill-opacity="1"/><path d="m439.9 216.7-1.4-1.3-1.1-.2-.6-.8v-.5l-.8-.6-.1-.6 1.4-.5.9.1.7-.4 4.9.1-.1 1.1-.3.3.2 1-.4.4h-.6l-.7.5-.8-.1Z" stroke-width=".34" stroke="#333" stroke-opacity="1" cursor="pointer" fill="#fee391" fill-opacity="1"/><path d="m505.3 247-.5-.5.9-3.4 4.3.1.1 3.6h-3.9ZM539.3 142.3l1.5 1 1.9-.1 1.9.2v.5l1.3-.4-.2.9-3.6.3v-.5l-3.1-.6Zm4.4-15.3-1.5-.1-1.3-.3-2.9.8 1.9 1.6-1.2.5h-1.4l-1.4-1.5-.4.7.7 1.7 1.4 1.5-.9.6 1.5 1.4 1.3.9.2 1.7-2.4-.8.9 1.5-1.6.3 1.2 2.7h-1.7l-2.1-1.3-1.1-2.4-.6-2-1.1-1.4-1.4-1.7-.2-.9 1-1.4v-1l.8-.4v-.8l1.6-.3.8-.6h1.4l.3-.5.5-.1 1.8.1 1.8-.8 1.9 1 2.2-.3-.2-1.4 1.3.7-.6 1.9ZM242 208.6l-1.3-.5-1.6-.1-1.2-.6-1.3-1.2.2-.9.4-.7-.3-.6 1.5-2.5h3.4l.2-1-.4-.2-.3-.6-.8-.7-.9-1h1.2l.2-1.7h4.9l-.3 2.4-.6 3.4h.8l.8.5.2-.4.8.4-1.4 1.1-1.3.9-.2.5.1.6-.6.8-.7.2.1.3-.5.4-1 .7ZM321.3 224.8l1.7 1.1 1.6 1.9.1 1.6.9.1 1.4 1.4 1.1 1.1-.5 2.7-1.7.8.1.7-.5 1.6 1.2 2.1h.8l.3 1.7 1.6 2.7-.6.1-1.5-.3-.9.8-1.2.6-.8.1-.3.6-1.3-.2-1.7-1.4-.1-1.4-.7-1.5.5-2.6.7-1-.5-1.4-.9-.5.3-1.3-.6-.7-1.3.1-1.8-2.3.8-.8-.1-1.4 1.7-.5.7-.5-.9-1.2.3-1.1Z" stroke-width=".34" stroke="#333" stroke-opacity="1" cursor="pointer" fill="#ffffd4" fill-opacity="1"/><path d="m249.2 210.8-.4-.9-.8-.3.3-1.2-.3-.3-.6-.2-1.1.3-.1-.4-.8-.4-.5-.6-.7-.3.6-.8-.1-.6.2-.5 1.3-.9 1.4-1.1.2.1.7-.5.7-.1.2.3.5-.2 1.2.3 1.2-.1.9-.3.3-.4.8.2.6.2.7-.1.6-.2 1.1.4h.5l.7.6.7.7.9.4.6.9-.9-.1-.4.4-.9.4h-.7l-.6.4-.5-.1-.4-.5-.3.1-.4.7h-.3l-.1.6-1 .8-.5.4-.3.4-.7-.6-.7.8-.5-.1-.7.1v1.5h-.4l-.4.7ZM524.7 111.8l.7 1.2.8.8-.8 1.1-1.1-.6h-1.7l-2.1-.5-1.1.1-.4.6-1-.7-.4 1.2 1.3 1.4.6 1 1.2 1.1 1 .6 1 1.3 2.2 1.1-.2.5-2.4-1.1-1.4-1.1-2.3-.9-2.2-2.1.5-.3-1.2-1.2-.1-1-1.6-.5-.7 1.3-.7-1V113l1.7.1.4-.5.9.5.9.1-.1-.9.8-.3.2-1.1 1.8-.8.8.3 1.8 1.3 2.1.6Z" stroke-width=".34" stroke="#333" stroke-opacity="1" cursor="pointer" fill="#ffffd4" fill-opacity="1"/><path d="M292.3 190.5v1.7l-.3 1.1-.7.6.6.9-.2.8-1.7-.5-1.2.2-1.6-.2-1.3.5-1.3-.9.4-1 2.3.4 2 .3 1-.7-1.1-1.3.2-1.2-1.6-.4.7-.9 1.6.2Z" stroke-width=".34" stroke="#333" stroke-opacity="1" cursor="pointer" fill="#fec44f" fill-opacity="1"/><path d="m518.2 109 .7-1.9-.5-.6h1.3l.1-1.2 1.2.7.9.4 1.9-.4.2-.6.9-.1 1.1-.4.3.2 1-.4.5-.7.7-.2 2.6.9.5-.3 1.4.8.3.8-1.4.6-.9 2-1.2 2-1.9.6-1.4-.2-1.8.8-.8.5-2.1-.6-1.8-1.3-.8-.3-.6-1Z" stroke-width=".34" stroke="#333" stroke-opacity="1" cursor="pointer" fill="#ffffd4" fill-opacity="1"/><path d="M800 280.9h-1.1l-3.3-2.1 2.5-.6 1.3.9.9 1Zm11.7-4.1.2.6v.9l-2 2.3-2.3.6-.3-.3.3-1 1.3-1.9Zm-18.6-2.4.9.8 1.6-.2.6 1.3-3.1.6-1.9.4-1.4-.1 1-1.7h1.5Zm13.3 0-.6 1.7-4 .8-3.5-.3.1-1.1 2.1-.7 1.6.9 1.8-.2Zm-37.7-4 5.1.3.6-1.2 4.9 1.4.8 2 4 .6 3.1 1.7-3.1 1.2-2.9-1.2-2.4.1-2.7-.3-2.4-.5-3.1-1.2-1.9-.3-1.1.4-4.8-1.2-.4-1.3-2.4-.2 2-2.9 3.2.2 2.1 1.1 1.1.3Zm69.5-1.7-1.5 2.1-.1-2.3.5-1.1.6-1 .6.9Zm-19.4-8.3-1.1 1-1.8-.5-.5-1.3 2.7-.2Zm8.6-1.1.8 2.3-2.1-1.2-2.3-.3-1.5.2-1.8-.1.7-1.6 3.3-.1Zm28.1-1.5-.5 9.9-.8 9.8-2.1-2.5-2.7-.6-.7.9-3.4.1 1.4-2.5 1.7-.8-.4-3.3-1.2-2.5-5-2.6-2.1-.2-3.9-2.8-.8 1.4-1.1.3-.5-1.1V260l-1.9-1.5 2.9-1.1 1.9.1-.2-.8h-3.9l-1.1-1.8-2.3-.6-1.1-1.5 3.6-.7 1.3-1 4.3 1.3.4 1.1.6 4.9 2.7 1.8 2.4-3.2 3.1-1.9h2.3l2.3 1.1 1.9 1.1Zm-41.9-12.1-2.1 3-2 .6-2.6-.6-4.4.2-2.3.4-.4 2.3 2.3 2.6 1.5-1.3 5-1-.3 1.3-1.1-.4-1.2 1.8-2.4 1.1 2.4 3.9-.5 1 2.2 3.5-.1 2-1.5.9-1-1.1 1.4-2.4-2.6 1.1-.6-.8.4-1.2-1.9-1.7.3-3-1.8.9.1 3.6-.1 4.3-1.7.4-1.1-.9.9-2.8-.3-2.9H797l-.8-2 1.2-2 .4-2.4 1.4-4.6.6-1.2 2.2-2.2 2.1.8 3.4.5 3-.2 2.6-2.2Zm9.2.9-.1 2.6-1.4-.3-.4 1.9 1.1 1.6-.8.3-1-1.9-.8-3.9.5-2.4.8-1.1.2 1.7 1.6.3Zm-50.7-2.7.4 2.1 1.9 1.7 1.7-.6 1.7.2 1.5-1.6 1.3-.2 2.5.8 2.2-.6 1.3-4.2 1-1.1.7-3.4h3.1l2.3.5-1.4 2.7 2.1 2.9-.5 1.4 3.1 2.8-3.2.3-.9 2.1.2 2.7-2.6 2.1-.2 3-1.2 4.6-.3-1.1-3.1 1.4-1-1.9-1.9-.1-1.3-1-3.2 1.1-.9-1.5-1.7.2-2.2-.4-.3-4-1.3-.8-1.3-2.6-.4-2.7.3-2.7Zm-10.7 23.7-3 .1-2.1-2.5-3.3-2.5-1.1-1.8-1.9-2.5-1.3-2.2-1.9-4.2-2.4-2.6-.8-2.5-1-2.4-2.4-1.9-1.5-2.6-2.1-1.7-2.9-3.3-.3-1.5 1.8.1 4.1.6 2.5 2.9 2.1 2.1 1.5 1.2 2.6 3.3h2.7l2.3 2.1 1.6 2.5 2 1.4-1.1 2.4 1.6 1.1.9.1.4 2.1.9 1.7 2 .2 1.2 1.9-.8 3.8Z" stroke-width=".34" stroke="#333" stroke-opacity="1" cursor="pointer" fill="#fee391" fill-opacity="1"/><path d="m675.1 143 3.6 3.5.4 2.5 1.4 1.5.3 1.5-1.9-.4 1.5 3.4 2.9 1.9 4 2.1-1.3 1.3-.4 2.9 2.7 1.1 2.7 1.5 3.7 1.7 3.6.4 1.7 1.5 2.1.3 3.2.7 2.2-.1v-1.2l-.7-1.9v-1.3l1.4-.6.7 2.4.2.6 2.5 1.1 1.6-.4 2.2.2 2.1-.1-.2-1.9-1.3-1 2-.3 1.9-2.3 2.5-1.9 2.3.7 1.5-1.2 1.7 1.9-.6 1.2 2.9.5.4 1.1-.7.6.6 1.8-2-.5-2.9 2.1.5 1.7-1 2.5.1 1.5-.7 2.5-2.2-.7.4 3.1-.4 1 .5 1.3-1.2.7-2.1-4.8-.7.1-.2 1.9-1.6-1.6.5-1.7 1.2-.2.7-2.5-1.5-.5h-2.4l-2.6-.4-.6-2.1-1.2-.2-2.3-1.3-.6 2.1 2.2 1.6-1.5 1.1-.4 1.1 1.8.8-.2 1.8 1.2 2.3.8 2.5-.2 1.1-1.8-.1-3.1.7.4 2.2-1.1 1.8-3.5 2.1-2.5 3.5-1.8 1.9-2.4 2 .2 1.4-1.2.7-2.3 1.1-1.2.2-.6 2.3.9 3.9.4 2.5-.9 2.8.3 5.2-1.4.1-1 2.3.8 1-2.4.9-.8 2-1 .9-2.6-2.8-1.5-4.3-1.2-3-1-1.4-1.6-2.9-1-3.8-.6-1.9-2.7-4.1-1.7-5.9-1.2-3.8-.4-3.7-.8-2.8-3.6 1.8-1.9-.4-3.8-3.6 1.1-1.1-.9-1.2-3.3-2.5 1.5-2.1h5.7l-.9-2.5-1.6-1.6-.7-2.3-1.9-1.3 2.4-3.2 3 .2 2.1-3.1 1.1-3.1 1.8-3-.5-2.2 1.8-1.7-2.4-1.5-1.3-2.1-1.6-2.6.9-1.3 4 .7 2.7-.4Z" stroke-width=".34" stroke="#333" stroke-opacity="1" cursor="pointer" fill="#fe9929" fill-opacity="1"/><path d="m466.1 88.6.3 2.1-1.8 2.5-4.2 1.8-3.2-.5 2.1-3-1.1-2.9 3.2-2.3 1.8-1.3.4 1.5-.6 1.6 1.4-.1ZM614.1 137.8l2.1-.5 1.4-1.8 1.7.1 1-.5 1.8.2 3.1 1.6 2 .3 3.5 2.7 1.8.1.8 2.5-.2 3.7-.3 2.2 1.2.5-.8 1.6 1.3 2.4.6 2 2 .5.5 1.9-1.8 2.7 1.5 1.6 1.3 1.9 2.6 1.3.5 2.6 1.3.5.4 1.4-3.5 1.6-.5 3.5-5-.9-2.9-.7-3-.4-1.5-3.7-1.3-.6-2 .6-2.4 1.4-3.3-1-2.8-2.3-2.6-.8-2.1-2.9-2.4-4-1.3.5-1.8-1-.8 1.1-1.6-1.5-.2-1.6h-.8l.1-2.2-1.7-2.3-3.3-1.7-2.2-2.8.3-2.4 1.1-1-.5-1.8-1.8-.9-2.2-3.6-1.8-2.4.4-.9-1.4-3.5 1.5-.8.6 1.1 1.5 1.4 1.8.4.9-.1 2.5-2.2.8-.2.9.9-.5 1.4 1.8 1.6.6-.1 1.2 2.2 2.5.6 2 1.5 3.6.5 3.7-.8Z" stroke-width=".34" stroke="#333" stroke-opacity="1" cursor="pointer" fill="#ffffd4" fill-opacity="1"/><path d="m593.6 141.5 1.8.9.5 1.8-1.1 1-.3 2.4 2.2 2.8 3.3 1.7 1.7 2.3-.1 2.2h.8l.2 1.6 1.6 1.5-1.5-.1-1.8-.2-1.5 2.8-4.8-.2-7.9-6.1-4-2.1-3.2-.8-1.5-3.7 5.2-3.1.5-3.6-.6-2.2 1.3-.8.9-1.9 1-.4 3 .4 1 .7 1.1-.5ZM451.1 54l-.7 1.7 2.1 1.8-2.9 2-6.1 1.8-1.9.5-2.6-.4-5.6-.8 2.2-1.2-4.1-1.3 3.6-.5.1-.8-4.1-.6 1.7-1.7 3.1-.4 2.8 1.8 3.3-1.5 2.4.8 3.4-1.4ZM570.5 151.4l-.3.9-1-.4-.3 2 .7.3-.6.5-.1.7 1.2-.4.2 1.2-.9 4.8-2.1-5.1.6-1-.2-.2.6-1.4.2-2.3.3-.8h.9l.2-.5.7-.1.1 1.3-.2.4ZM518.4 134.7l-.7 2.4.4.9-.4 1.6-2-1.2-1.3-.3-3.5-1.5.2-1.6 3 .3 2.5-.3Zm-15.9-8.9 1.5 2.1-.2 4-1.1-.2-1 1-.9-.8-.2-3.6-.7-1.7 1.4.1Zm10.2-15.8-.2 1.5.7 1.3-2-.5-1.8 1.1.2 1.5-.3.8.9 1.5 2.4 1.5 1.3 2.5 2.9 2.4h1.9l.6.6-.6.6 2.3 1.1 1.8.9 2.2 1.6.3.5-.3 1.1-1.5-1.4-2.2-.5-.9 1.9 1.9 1.1-.2 1.6-1 .2-1.2 2.6-1 .2-.1-.9.5-1.6.5-.7-1.1-1.7-.9-1.5-1-.4-.8-1.3-1.6-.5-1.1-1.2-1.9-.2-1.9-1.4-2.4-1.9-1.7-1.7-.9-3-1.2-.3-2-1-1.1.4-1.3 1.4-1 .2.2-1.3-1.3-.4-.7-2.3.8-.9-.7-1.1v-.8l1.1.6 1.1-.1 1.3-1 .4.4 1.2-.1.4-1.1 1.8.3 1-.5.1-1.2 1.5.4.2-.5 2.3-.5.6 1ZM276.5 194.2l1.7.3 1.4.7.3.9H278l-.8.5-1.4-.5-1.4-1.1.4-.7 1.1-.2Z" stroke-width=".34" stroke="#333" stroke-opacity="1" cursor="pointer" fill="#ffffd4" fill-opacity="1"/><path d="m570.2 152.3.3-.9 3 1.2 4.5-3.3 1.5 3.7-.4.5-4.9 1.5 2.8 3-.8.5-.3 1-1.9.4-.5 1.1-1 .9-2.9-.4-.2-.5.9-4.8-.2-1.2.3-.8ZM819.3 147l.8 1-.7 1.9-1.4-1-1 .7v1.8l-2-.9-.5-1.4.6-1.8 1.6.3.4-1.2Zm11.5-9 .3 2.4 1.2 1.5-.3 2.1-2.5 1.5-4.4.1-2 3.5-2.2-1.2-1.1-2.2-4.1.6-2.4 1.5h-2.9l3.5 2.2.4 5.2-1.2 1.2-1.7-1.1-.4-2.8-2-.8-1.8-2.1 2-.9.5-1.9 1.8-1.6.9-2.1 4.6-.9 3 .7v-5.4l2.4 1.5 2.1-3.1.8-1.1-.5-3.7-2.4-3.4-.1-1.9 2.3-.5 3.8 4.1 1.3 2.5-.6 3Zm-5.5-21 2.1.6.8-1.3 2.9 3.4-3.1.8-.1 3-5.2-2.1.8 3.3h-2.7l-2.2-2.9-.3-2.3 2.5-.2-2.1-4.1-.9-2.3 5 3.1ZM652.1 122.6l-1.2.6-2.5 2.1-.5 2.1h-.9l-1.1-1.4-3.1-.1-1.2-2.4h-1.2l-.7-3-3.6-2.2-4 .2-2.7.5-3.1-2.7-2.3-1.1-4.3-2.2-.5-.2-5.7 1.7 3 11-1.2.2-2.3-2.4-1.9-.8-2.6.6-.8 1-.3-.7.3-1.3-.7-1-3.1-1-1.7-2.7-1.5-.8-.3-.9 2.4.3-.5-2.2 1.9-.5 2.2.4-.3-2.8-.9-1.9-2.3.2-2.2-.7-2.4 1.3-2.1.6-1.3-.5-.1-1.5-2-2-1.7.1-2.5-2 .8-2.2-.8-.6 1-3.2 2.8 1.7-.3-2.2 3.8-3.1 3.6-.1 5.7 2 3 1.2 2.1-1.2 3.6-.1 3.5 1.5.3-.9 3.3.2.1-1.4-4.4-2 1.6-1.4-.7-.8 1.9-.7-2.4-2 .7-1 8-1 .8-.7 5.1-1 1.4-1.2 4.3.6 2.1 3 2-.7 3.3.9.6 1.6 2-.2 4.4-2.7-.4.9 3.9 2.2 8.6 7.4.5-1.5 4 1.6 2.9-.7 1.5.5 1.9 1.7 1.9.6 1.6 1.2 2.8-.4 2.1 1.8-.9 1.9-1.8.3 1.2 3-.8 1.3-5.1-1 .5 5.3-.9.7-4.3 1.2 4.2 5.1-1.4.8.8 1.7-1.6-.4-1.7-1.1-3.6-.3-4.1-.1-.7.3-3.9-1.2-1.2.6.2 1.7-4.3-1-1.4.4Z" stroke-width=".34" stroke="#333" stroke-opacity="1" cursor="pointer" fill="#ffffd4" fill-opacity="1"/><path d="m590.8 255.1-1.9 1.2-.7 1.2-1 .3-.4 2.1-.9 1.2-.5 2-1.1 1-3.8-3-.1-1.8-9.6-6.1-.5-.3v-3.2l.8-1.3 1.3-1.9.9-2.2-1.2-3.5-.3-1.5-1.3-2.1 1.6-1.8 1.8-2 1.4.5v1.7l.9 1h1.9l3.4 2.5.8.1.6-.1.6.3 1.8.3.8-1.3 2.4-1.2 1.1 1h1.8l-2.3 3.4.1 11Z" stroke-width=".34" stroke="#333" stroke-opacity="1" cursor="pointer" fill="#fe9929" fill-opacity="1"/><path d="m652.1 122.6.2-1.3 1.4-.4 4.3 1-.2-1.7 1.2-.6 3.9 1.2.7-.3 4.1.1 3.6.3 1.7 1.1 1.6.4-.1.7-3.3 1.6-.4 1.2-3 .3-.3 1.9-2.8-.4-1.5.6-1.9 1.4.6.7-.5.7-4.5.5-3.4-1-2.6.2-.2-1.7 2.8.5.6-.9 2 .3 2.5-2.2-3.4-1.5-1.5.7-2.2-1.1 1.5-2Z" stroke-width=".34" stroke="#333" stroke-opacity="1" cursor="pointer" fill="#ffffd4" fill-opacity="1"/><path d="m751.4 213.2-.9-3.6 1.4-2.5 3.3-.6 2.5.5 2.4 1.1.9-2 2.5 1.1.8 2 .1 3.6-4.2 2.3 1.3 1.8-2.8.3-2.2 1.2-2.2-.5-1.2-1.5Z" stroke-width=".34" stroke="#333" stroke-opacity="1" cursor="pointer" fill="#fee391" fill-opacity="1"/><path d="m797.2 133.6 3.9 3.5 1.6 2 1.6 3.4-.2 1.7-2 .6-1.5 1.2-2.2.3-1-1.7-.5-2.2-2.5-3.1 1.6-.5-2.9-2.6v-.3l1.2.1.3-1.3 1.7-.2.9-.2ZM530.1 123.9l-.3-1.1-.6-.3-.6-.8.4-.7.5-.2.3-1 .4-.1.4.4.5.2.3.4.4.2.6.5h.3l-.2.7-.3.4.1.2-.5.1-1.4.5v.6ZM602.7 159.6l.7 1.3-.1.7 1.1 2.3-1.9.1-.8-1.5-2.3-.3 1.5-2.8ZM757.7 207l.7-1.4-.2-2.6-2.4-2.6-.6-3-2.4-2.4-2-.2-.4 1-1.5.1-.8-.5-2.6 1.8-.4-2.7.2-3.2-1.8-.1-.5-1.8-1.2-1 .3-1.1 2-1.9.3.7h1.4l-.9-3.4 1.2-.4 2 2.3 1.6 2.8h3.2l1.4 2.6-1.5.8-.6 1.1 3.4 1.8 2.7 3.6 2.1 2.6 2.3 2.1.9 2.2-.1 3-2.5-1.1-.9 2ZM570.6 149.6l-.7.1-.2.5h-.8l.6-2.4 1-2.2v-.1l1.2.2.5 1.2-1.2 1.1Z" stroke-width=".34" stroke="#333" stroke-opacity="1" cursor="pointer" fill="#ffffd4" fill-opacity="1"/><path d="m459.5 236.8-.7.1-2.8-1.5-2.4-2.3-2.2-1.6-1.8-2 .6-.9.2-.9 1.2-1.6 1.2-1.5h.6l.7-.4 1.1 1.9-.2 1.2.5.6.8.1.5-1.3.8.1-.1.9.2 1.5-.6 1.3.8.8.8.2 1.2 1.3v1.2l-.2.4ZM518.7 181.1l-1.9 1.1-1.5-1.7-4.1-1.3-1.2-1.9-2.1-1.4-1.2.6-.9-1.7-.1-1.3-1.6-2.2 1-1.3-.3-1.8.3-1.7-.2-1.4.4-2.4-.2-1.4-.9-2.7 1.3-.7.1-1.3-.3-1.2 1.7-1.2.8-.9 1.2-.9.1-2.3 3 1 1-.3 2.2.5 3.4 1.4 1.3 2.7 2.3.6 3.7 1.2 2.8 1.5 1.2-.8 1.1-1.3-.7-2.4.7-1.4 1.7-1.4 1.8-.4 3.4.6 1 1.3h.9l.9.5 2.5.4.7 1-.8 1.4.5 1.3-.5 1.9.9 2.4.6 10.7.5 11.2.2 6h-3v1.3l-10.6-5.8-10.6-5.8Z" stroke-width=".34" stroke="#333" stroke-opacity="1" cursor="pointer" fill="#fee391" fill-opacity="1"/><path d="m697.3 227.3-.3 3.2-1.1.8-2.3.7-1.3-2.4-.7-4.3 1-4.9 1.9 1.6 1.3 2.2Z" stroke-width=".34" stroke="#333" stroke-opacity="1" cursor="pointer" fill="#ffffd4" fill-opacity="1"/><path d="m554.3 337.3.9.9-.9 1.5-.5 1-1.5.5-.5.9-1 .3-1.7-2.3 1.5-1.9 1.4-1.2 1.3-.6Z" stroke-width=".34" stroke="#333" stroke-opacity="1" cursor="pointer" fill="#fee391" fill-opacity="1"/><path d="m530.8 87.3-.2-.7.1-.8-1.1-.5-2.4-.5-.8-2.3 2.4-.9 3.7.2 2.2-.3.4.6 1.2.2 2.3 1.3.5 1.3-1.7.9-.3 1.6-2.2 1.1h-2.2l-.7-.9ZM494 99.4l.4.7v1.3h-.7l-.5-.2.2-1.7Z" stroke-width=".34" stroke="#333" stroke-opacity="1" cursor="pointer" fill="#ffffd4" fill-opacity="1"/><path d="m526.4 82.5-.2-2.2.8-1.7 1.9-1 2.1 2.1 1.7-.1.1-2.1 1.8-.5 1 .3 2 1.1h1.8l1.2.6.4 1.4 1.1 1.7-2.2 1.1-1.3.4-2.3-1.3-1.2-.2-.4-.6-2.2.3-3.7-.2ZM474.6 143.9l.9 2 .1 1.8.9 3.2.7.6-.5 1.2-3.3.5-1.2 1.1-1.5.3-.1 2.2-3 1.2-1 1.5-2.1.8-2.6.5-4.2 2.2v3.8h-11.4l1.9-1.7 3.8-2 1.3-.9 2.2-2.5-.5-3.7 1-2.6.4-1.6 1.7-2 2.6-1.4 1.9-1.3 1.7-3.1.9-1.8h1.8l1.5 1.3 2.4-.3 2.6.7ZM542.3 105l.5-.4 1.5-.3 1.8.9 1 .1 1.2.8v1l.9.5.5 1.2 1 .8-.1.4.5.3-.6.2-1.4-.1-.3-.4-.5.3.2.5-.5.9-.2 1-.6.4-.6-1.4.1-1.2-.3-1.3-1.6-1.8-.9-1.2-.9-.9Z" stroke-width=".34" stroke="#333" stroke-opacity="1" cursor="pointer" fill="#ffffd4" fill-opacity="1"/><path d="m611.1 287.6.6 1.3.6 2 .2 3.6.6 1.4-.4 1.5-.5.9-.8-1.8-.5.9.3 2.2-.3 1.3-.8.7-.3 2.5-1.3 3.6-1.6 4.1-2 5.7-1.4 4.2-1.4 3.5-2.2.7-2.4 1.3-1.4-.8-1.9-1-.6-1.6v-2.7l-.8-2.4v-2.2l.6-2.2 1.2-.5.1-1 1.4-2.3.4-1.9-.6-1.4-.3-1.9-.1-2.8 1.1-1.7.4-1.9 1.3-.1 1.5-.6 1-.6h1.2l1.6-1.7 2.3-1.9.8-1.5-.2-1.3 1.1.4 1.5-2.1.2-1.8.9-1.4Z" stroke-width=".34" stroke="#333" stroke-opacity="1" cursor="pointer" fill="#fe9929" fill-opacity="1"/><path d="M248.4 194.2h-.5l-1.2 1.9-.5-.4-.3.2v.4H241l-.2 1.7h-1.2l.9 1 .8.7.3.6.4.2-.2 1h-3.4l-1.5 2.5.3.6-.4.7-.2.9-2.6-3.3-1.3-1-2-.8-1.5.3-2.3 1.1-1.3.3-1.8-.8-1.9-.6-2.3-1.4-1.9-.4-2.8-1.4-2-1.4-.5-.8-1.5-.2-2.5-1-.9-1.3-2.5-1.8-1-1.9-.4-1.4.9-.3-.1-.9.7-.8.2-1-.7-1.4v-1.2l-.6-1.5-1.8-3-2.2-2.3-.9-1.9-1.9-1.2-.3-.8.8-1.8-1.2-.7-1.1-1.5-.1-2.1-1.3-.3-1.1-1.6-.8-1.4.1-1-.7-2.2-.2-2.3.4-1.2-1.4-1.2-.9.1-1.2-.8-.8 1.2v1.5l-.5 2.2.5 1.3 1.3 2.1.2.7.3.2.1 1h.5v1.9l.5.8.3 1.1 1.3 1.5.1 2.8.5 1.3.4 1.4-.1 1.6 1.2.1.8 1.4.7 1.3-.2.6-1.3 1.1h-.4l-.4-1.9-1.4-1.7-1.5-1.4-1.2-.8.5-2.2v-1.6l-1-1-1.4-1.3-.5.4-.4-.8-1.4-.8-1.1-1.7.3-.2 1 .1 1.2-1.1.5-1.3-1.4-2.2-1.2-.8-.4-1.9-.3-2-.4-2.4-.1-2.7 3-.2 3.3-.4-.4.6 3.3 1.5 5.1 2.1h7.1l.4-1.3h4.4l.6 1.1 1 1 1.1 1.3.4 1.6.2 1.6 1.1.9 1.9.9 2.2-2.3 2.1-.1 1.5 1.2.8 2.1.5 1.7 1.1 1.7.1 2.2.4 1.4 1.8.9 1.7.7 1-.1-1.5 2.6-.8 2.2-.9 4-.5 1.5.2 1.7.6 1.4.2 2.4 1.4 2.2.3 1.7.9 1.5 2.6.8.9 1.3 2.5-.9 2-.3 2-.5 1.8-.5 1.8-1.3.9-1.7.5-2.5.6-.9 1.9-.8 2.8-.7 2.3.1 1.7-.3.5.7-.3 1.4-1.6 1.8-.9 1.9.4.5-.6 1.3-.9 2.3-.6-.7ZM530.1 123.9h.3v-.6l1.4-.5.5-.1.9-.2h1.1l1.3.9.4 2-.5.1-.3.5h-1.4l-.8.6-1.6.3-1.1-.7-.5-1.3Z" stroke-width=".34" stroke="#333" stroke-opacity="1" cursor="pointer" fill="#ffffd4" fill-opacity="1"/><path d="m447.9 205.9.9-.5.4-1.8.9-.1 1.8.9 1.5-.6 1 .2.4-.7h10.6l.6-2.2-.4-.3-1.2-13-1.1-13.1h3.9l8.8 6.6 8.8 6.5.6 1.5 1.6.8 1.2.5.1 1.9 2.9-.3v7l-1.4 2-.2 1.9-2.4.4-3.5.3-1 1.1-1.7.1h-1.7l-.7-.6-1.4.4-2.5 1.3-.5.9-2 1.4-.4.8-1.1.6-1.3-.4-.7.7-.4 2.1-2.1 2.5v1l-.7 1.3.2 1.7-1.1.5-.6.4-.4-1.3-.8.3-.5-.1-.5.9h-2l-.7-.5-.4.3-.8-.8.2-.9-.4-.4-.5.3.1-1 .5-.8-1.1-1.2-.3-.9-.5-.6-.6-.1-.6.4-.9.4-.7.7-1.1-.3-.8-.7-.4-.1-.7.4h-.4l-.2-1.1.2-1-.2-1.1-1-.9-.5-1.7ZM741.3 220l-.4-2.2.6-2.3-1-1.8-.1-3.3-1.2-1.5-1.3-3.6-.9-3.9-1.5-2.5-1.5 1.6-2.7 2.1-1.5-.3-1.8-.7.5-3.7-.9-2.8-2.6-3.5.2-1.1-1.6-.4-2.2-2.4-.5-2.5 1 .5-.3-2.2 1.2-.7-.5-1.3.4-1-.4-3.1 2.2.7.7-2.5-.1-1.5 1-2.5-.5-1.7 2.9-2.1 2 .5-.6-1.8.7-.6-.4-1.1 1.4-.3 1.3 1.8 1.3.7.6 2.3.4 2.5-1.9 2.6.2 3.5 2.7-.5 1.1 2.8 1.7.6-.3 2.5 2.1 1.1 1.2.6 1.8-.9.3 1.3-2 1.9-.3 1.1-1.4.7-1.4 1.3-1.8.2-.7 3.2-1 .6 1.6 2.6 2 2.2 1.3 2-.6 2.6-.9.6.8 1.5 2 2.4.5 1.7.1 1.4 1.3 2.7-1.2 2.8Z" stroke-width=".34" stroke="#333" stroke-opacity="1" cursor="pointer" fill="#fe9929" fill-opacity="1"/><path d="m527.8 121.4-1 1.5.3.9-.5-.2-.8-1-1.1-.6.2-.5.2-1.6.8-.7.4-.3.7.5.4.4.8.3 1 .7-.2.2-.4.7-.6.3ZM683.9 101.9l2.2-.6 3.1-2.5 2.8-1.3 2.5.9h2.4l2.3 1.4 2.4.1 3.7.7 1.1-2-1.9-1.7.7-3 3.2 1.2 2.3.3 3.1.7 1.8 2.2 3.9 1.2 1.9-.5 2.7-.4 2.5.4 3.1 1.4 2.3 1.5h2.2l3.2.4 1.7-.7 2.7-.5 2.1-2 1.6.3 1.9 1 2.6-.3.2 2.2.2 3 1.3 1.2 1.1-.4 2.6.4 1.1-1 2.5.9 3.4 2.1.3 1-2-.3-3.2.4-1.2.8-.6 2-3 1.1-1.5 1.6-2.8-.6-1.5-.3-.2 1.9 1.4 1.2.9.9-1.2 1-.9 1.6-2.3 1.1-3.5.1-3.5 1-2 1.6-1.6-.9h-2.9l-4.4-1.8-2.6-.4-3 .4-5.3-.7-2.7.1-2.2-1.8-2.3-2.7-1.7-.4-3.7-1.8-3.4-.4-3.1-.5-1.4-1.3-.6-3.5-2.7-2.3-3.9-1.1-2.7-1.6Z" stroke-width=".34" stroke="#333" stroke-opacity="1" cursor="pointer" fill="#ffffd4" fill-opacity="1"/><path d="m571.5 284.7 2-.2 3.2.8.7-.3 1.8-.1 1-.9h1.6l2.9-1.1 2.2-1.8.4 1.4-.3 3 .3 2.6-.1 4.7.4 1.5-.9 2.2-1.1 2.1-1.8 1.8-2.5 1.2-3 1.4-3.1 3.3-1.1.5-1.9 2.2-1.1.7-.4 2.1 1.1 2.3.4 1.8v.9l.5-.2-.2 3-.5 1.4.5.5-.4 1.2-1.2 1.1-2.2 1-3.2 1.7-1.2 1.1.1 1.3.7.2-.4 1.5h-1.9l-.1-1.3-.3-1.4-.2-1 .7-3.4-.6-2.2-1-4.2 2.9-3.4.8-2.2.4-.3.4-1.7-.4-.9.2-2.3.7-2.1.1-3.8-1.3-1-1.3-.2-.5-.7-1.2-.7-2.2.1-.1-1.1-.2-2.2 8.1-2.5 1.5 1.5.7-.3 1 .8.1 1.2-.6 1.4.1 2.1 1.7 1.9.9-2.1 1.1-.7v-3.8l-1.1-2.2-.9-1-.9.1-.6-4Z" stroke-width=".34" stroke="#333" stroke-opacity="1" cursor="pointer" fill="#fe9929" fill-opacity="1"/><path d="m447.9 205.9-1.7-2.1-1.6-2.2-1.7-.8-1.3-.9-1.4.1-1.3.6-1.3-.2-.9.9-.2-1.6.7-1.5.4-2.8-.2-3-.3-1.5.3-1.5-.6-1.4-1.4-1.3.6-1h10.3l-.5-4.4.7-1.5 2.5-.3v-7.7l8.5.2.1-4.6 9.6 7.3h-3.9l1.1 13.1 1.2 13 .4.3-.6 2.2h-10.6l-.4.7-1-.2-1.5.6-1.8-.9-.9.1-.4 1.8Z" stroke-width=".34" stroke="#333" stroke-opacity="1" cursor="pointer" fill="#fee391" fill-opacity="1"/><path d="m571.5 284.7-.8 2.3.6 4 .9-.1.9 1 1.1 2.2v3.8l-1.1.7-.9 2.1-1.7-1.9-.1-2.1.6-1.4-.1-1.2-1-.8-.7.3-1.5-1.5-1.4-.7.9-2.8.9-1.1-.4-2.5.6-2.4.5-.9-.7-2.5-1.2-1.4 2.6.6.5.8.9 1.4Z" stroke-width=".34" stroke="#333" stroke-opacity="1" cursor="pointer" fill="#fe9929" fill-opacity="1"/><path d="m751.5 231.2.7.3 1.6 1.8 1.2 2.1.3 2-.2 1.4.2 1 .3 1.8 1 .8 1.1 2.7.1.8-.4.3-1.1.4-.4-.2-2.7-2.3-3.2-2.4-.4-1.6-1.6-2-.5-2.5-1-1.6.2-2.2-.7-1.3.5-.5 2.2 1.3.3 1.5 1.7-.3Zm42.2 6.3-2.3-.5h-3.1l-.7 3.4-1 1.1-1.3 4.2-2.2.6-2.5-.8-1.3.2-1.5 1.6-1.7-.2-1.7.6-1.9-1.7-.4-2.1 1.9 1.1 2.1-.6.5-2.5 1.1-.6 3.1-.7 1.9-2.3 1.2-1.9 1.3 1.5.5-1 1.3.1v-1.9l.1-1.5 1.9-2.1 1.2-2.4h1.1l1.4 1.5.2 1.3 1.8.9 2.3.9-.1 1.2-1.8.1.5 1.5Z" stroke-width=".34" stroke="#333" stroke-opacity="1" cursor="pointer" fill="#ffffd4" fill-opacity="1"/><path d="m522 336.2-1.8-2.3-1-2.2-.4-2.9-.6-2.2-.8-4.7.1-3.6-.3-1.6-1-1.3-1.3-2.5-1.3-3.6-.6-1.9-2-2.9-.2-2.3 1.3-.6 1.6-.5 1.7.1 1.5 1.3.4-.2 10.7-.1 1.8 1.4 6.3.5 4.9-1.3 2.2-.6 1.7.1 1 .7v.3l-1.5.6h-.8l-1.7 1.2-1-1.2-4.1 1-1.9.1-.4 10.8-2.6.1-.3 8.8-.5 11.1-2.4 1.6-1.3.2-1.6-.6-1.2-.2-.4-1.3-.9-.8Z" stroke-width=".34" stroke="#333" stroke-opacity="1" cursor="pointer" fill="#fee391" fill-opacity="1"/><path d="m912.9 313.6 1.7 1.8 1 1.4-1.2.8-1.2-.9-1.5-1.3-1.3-1.6-1.2-2.1-.1-1.1 1.1.1 1.2 1 .9 1Z" stroke-width=".34" stroke="#333" stroke-opacity="1" cursor="pointer" fill="#ffffd4" fill-opacity="1"/><path d="m485.7 214 .1-2.1-3.1-.7-.1-1.4-1.5-2-.3-1.4.2-1.4 1.7-.1 1-1.1 3.5-.3 2.4-.4.2-1.9 1.4-2v-7l3.7-1.3 7.5-5.9 8.8-5.8 4.1 1.3 1.5 1.7 1.9-1.1.7 4.6 1 .8.1 1 1.1 1-.6 1.3-.8 6.1-.1 4-3.3 2.8-1.1 4 1.2 1.1v1.9l1.7.1-.3 1.4-.7.2-.1 1h-.5l-1.8-3.3-.6-.1-2.1 1.7-2-.9-1.5-.2-.7.5-1.6-.1-1.5 1.2-1.4.1-3.2-1.5-1.2.7-1.4-.1-1-1.1-2.6-1.1-2.9.3-.6.7-.4 1.7-.8 1.2-.1 2.7-2.1-1.7h-.9Z" stroke-width=".34" stroke="#333" stroke-opacity="1" cursor="pointer" fill="#fe9929" fill-opacity="1"/><path d="m502.6 235.6-2.7 1.1-1.1-.2-1 .7-2.1-.1-1.4-1.8-.9-2.2-1.9-2h-4.3l.1-4.8-.1-2 .5-1.9.8-.9 1.3-1.8-.3-.9.6-1.2-.6-1.8.1-1 .1-2.7.8-1.2.4-1.7.6-.7 2.9-.3 2.6 1.1 1 1.1 1.4.1 1.2-.7 3.2 1.5 1.4-.1 1.5-1.2 1.6.1.7-.5 1.5.2 2 .9 2.1-1.7.6.1 1.8 3.3h.5l1.1 1.2-.3.5-.1 1-2.2 2.3-.7 2-.4 1.5-.5.7-.5 2.1-1.5 1.3-.4 1.5-.5 1.2-.3 1.2-1.8 1.1-1.5-1.3-1 .1-1.6 1.7-.8.1-1.2 2.9Z" stroke-width=".34" stroke="#333" stroke-opacity="1" cursor="pointer" fill="#ec7014" fill-opacity="1"/><path d="m252.9 216.6-.8-1-1.1-1.2-.5-1-1.1-1-1.2-1.3.3-.5.4.5.3-.3.8-.1.4-.7h.4v-1.5l.7-.1.5.1.7-.8.7.6.3-.4.5-.4 1-.8.1-.6h.3l.4-.7.3-.1.4.5.5.1.6-.4h.7l.9-.4.4-.4.9.1-.2.3-.2.6.1 1.1-.7 1.1-.4 1.2-.2 1.3.1.8v1.3l-.4.3-.4 1.3.1.8-.6.8.1.8.4.5-.7.7-.8-.2-.4-.7-.8-.2-.6.4-1.7-.8ZM495.6 89.7l.4 1-.4 2.6-.6 1.1h-1.3l.5 3.1-1.3-.7-1.5-1.3-2.1.6-1.7-.2 1.2-.8 1.8-4.3 3.1-1.2ZM535.3 47.2l.4-1.8-2.7-1-2.8.9-.5 1.9-1.6 1.1-2.2-.6-2.5.1-2.4-1.3-1.1.6-1.1.1v1.7l-3.8-.4-.3 1.4h-1.9l-1 1.9-1.6 2.9-2.7 3.7.8.9-.6 1h-2l-1.1 2.5.5 3.6 1.4 1.4-.4 3.2-1.6 1.9-.8 1.6-1.6-1.7-4 3.2-2.8.7-3.1-1.4-.9-3-.9-6.4 1.9-1.7 5.3-2.3 3.8-2.7 3.4-3.7 4.2-5.1 3-1.9 4.8-3.2 4-1.1 3.2.2 2.4-2.1 3.5.1 3.2-.5 6.5 1.8-2.3.7 2.5 1.6-3 1Zm-12.9-21-3.5.9-3.2-.5 1-.6-1.2-.7 3.4-.4.9.8Zm-12-4 5.9 1.6-4 .8-.6 1.6-1.4.5-.4 1.8-2.1.1-4-1.4 1.4-.8-2.7-.6-3.6-1.8-1.5-1.7 4.4-.8 1 .8 2.4-.1.5-.7 2.4-.1Zm11.4-1.5 3.5.7-2 1.2-4.8.2-5-.3-.5-.6-2.4-.1-2-.9 4.9-.5 2.5.4 1.5-.6Z" stroke-width=".34" stroke="#333" stroke-opacity="1" cursor="pointer" fill="#ffffd4" fill-opacity="1"/><path d="M706.8 165.9v1.3l.7 1.9v1.2l-2.2.1-3.2-.7-2.1-.3-1.7-1.5-3.6-.4-3.7-1.7-2.7-1.5-2.7-1.1.4-2.9 1.3-1.3.9-.7 2.3.9 3 1.9 1.5.5 1.2 1.4 2.1.6 2.3 1.3 3.1.7Z" stroke-width=".34" stroke="#333" stroke-opacity="1" cursor="pointer" fill="#fee391" fill-opacity="1"/><path d="m902.8 373.3-.4 1.3 2.6-1.2-.2 1.2-1 1.3-1.9 1.4-3.4 2.2-2.2 1.1-.2 1.5h-1.9l-3 1.1-2.3 2-3.8 3-3 1.3-1.9.8h-2.1l-.7-1-2.4-.2.5-1.1 3-2.2 5.4-2.9 2-.6 2.7-1.1 3.3-1.6 2.6-1.5 2.8-2.2 1.5-.8 1.6-1.7 2.8-1.3Zm13.6-14.3-.2 3.2 1.3-2.1.7.9-1.2 2.2 1.4 1 1.5.3 2.2-1.2 1 .4-2.4 2.6-2 1.8-1.8-.1-1.3.9-.7 1.3-.8.6-2.1 1.6-2.8 2-2.8 1.2.2-.8-.7-.4 3.3-2.4.4-1.7-1.8-1.2.8-1.1 2.5-1 2-2.3 1.2-2 .2-2 .4-.5-.4-1.3-.3-2.6.2-2.2 1-.2.4 1.7 1.5.7ZM619.7 199.8l-1-2.1-2.4-5 7.6-3 1.2-6-1.4-2.2v-1.2l.6-1.2-.1-1.3 1.2-.6-.5-.4v-2h1.3l1.4 2.1 1.5 1.1 2 .4 1.6.5 1.3 1.8.8 1 1 .3v.7l-.7 1.8-.4.9-1 .9-.8 2.1-1.2-.2-.5.8-.2 1.5.5 2-.3.4H630l-1.5 1.1-.1 1.5-.6.6h-1.6l-1 .7.1 1.2-1.2.9-1.5-.3-1.7 1Zm5.9-27.3-.6-1.1.6-1 .4.3-.1 1.2Z" stroke-width=".34" stroke="#333" stroke-opacity="1" cursor="pointer" fill="#ffffd4" fill-opacity="1"/><path d="m667 138 2.3 1.4 1.3 2.3 4.5 1.3-1.8 2.5-2.7.4-4-.7-.9 1.3 1.6 2.6 1.3 2.1 2.4 1.5-1.8 1.7.5 2.2-1.8 3-1.1 3.1-2.1 3.1-3-.2-2.4 3.2 1.9 1.3.7 2.3 1.6 1.6.9 2.5h-5.7l-1.5 2.1-2-.8-1-2.2-2.3-2.3-4.7.6H643l-3.6.5.5-3.5 3.5-1.6-.4-1.4-1.3-.5-.5-2.6-2.6-1.3-1.3-1.9-1.5-1.6 4.5 1.6 2.5-.5 1.6.4.4-.6 1.8.2 3.1-1.2-.3-2.6 1.1-1.7h1.9l.1-.8 1.8-.4 1 .2.8-.8-.5-1.8.7-1.8 1.5-.8-1.5-2 2.4.1.5-1.1-.4-1.1.9-1.3-.6-1.5-.9-1.3 1.1-1.3 2.5-.6 2.8-.4 1.1-.5Z" stroke-width=".34" stroke="#333" stroke-opacity="1" cursor="pointer" fill="#ec7014" fill-opacity="1"/><path d="m273.1 228.2-.9-.9-.5-1.6.7-.8-.6-.2-.5-1-1.3-.8-1.1.2-.6 1-1.1.8-.6.1-.3.6 1.2 1.6-.8.4-.4.5-1.2.1-.4-1.8-.4.5-.8-.1-.5-1.3-1.1-.2-.7-.3h-1.1l-.1.7-.3-.5.2-.6.2-.6v-.6l.4-.3-.6-.5.1-1.2 1-.2.9 1-.1.7 1.1.1.3-.2.6.7 1.4-.2 1.1-.8 1.7-.6.9-.9 1.5.2-.1.3 1.4.1 1.2.5.8.9 1 .9-.4.4.6 1.8-.6.9-.8-.3ZM297.2 303l-.6 1.6-1.3.7-2.8-1.7-.3-1.2-5.5-3.1-5.1-3.3-2.1-1.8-1.3-2.5.3-.9-2.5-3.9-3-5.6-2.8-6-1.2-1.4-.9-2.2-2.2-2-1.9-1.2.8-1.3-1.4-2.9.8-2.1 2-1.9.4 1.2-.8.7.1 1.1 1.1-.2 1.1.3 1.2 1.6 1.5-1.3.4-2 1.6-2.6 3.1-1.2 2.9-3.2.8-2-.4-2.2.7-.3 1.8 1.4.9 1.4 1.2.8 1.6 3.2 2 .3 1.4-.8 1 .6 1.6-.3 2.1 1.4-1.7 3.1.8.1 1.4 1.6-2.4-.2-.3.5-2.2.6-3 2-.1 1.4-.7 1.1.4 1.6-1.6.9v1.2l-.6.6 1.2 2.7 1.5 1.8-.5 1.3 1.8.2 1.1 1.6 2.3.1 2.1-1.8.1 4.6 1.2.3 1.5-.5 2.6 4.9-.5 1v2.1l.1 2.6-.9 1.5.6 1.1-.5 1 1.3 2.6Z" stroke-width=".34" stroke="#333" stroke-opacity="1" cursor="pointer" fill="#ffffd4" fill-opacity="1"/><path d="m815.5 224.6.4 2 .3 1.7-.7 2.8-1.2-3.1-1.1 1.5 1 2.3-.7 1.4-3.2-1.8-.9-2.2.7-1.4-1.8-1.4-.7 1.2-1.3-.1-1.9 1.7-.5-.9.9-2.5 1.6-.9 1.4-1.1 1 1.3 2-.8.3-1.3 1.9-.1-.4-2.3 2.3 1.4.3 1.5Zm-6.8-5.6-.9 1-.6 1.9-.8.9-1.8-2.1.5-.8.5-.8.2-1.9 1.4-.2-.2 2 1.6-2.9Zm-14.3 2.9-3.3 2.9 1.1-2.1 1.8-1.9 1.4-2.1 1.1-3 .7 2.5-1.6 1.6Zm8.2-7.8 1.7 1h1.7l.1 1.2-1.1 1.3-1.6.9-.3-1.4.1-1.5Zm9.5-.8 1.1 3.4-2.1-.8.1 1 .9 1.9-1.2.6-.3-2.1-.8-.1-.7-1.9 1.6.3-.1-1.2-1.9-2.3 2.5.1Zm-10.8-2.7-.4 2.6-1.3-1.5-1.7-2.3 2.3.1Zm-3-16.4 1.7.9.7-.8.4.7-.2 1.3 1.2 2.2-.3 2.5-1.4 1v2.4l.9 2.4 1.5.3 1.1-.3 3.5 1.6-.1 1.7 1 .7-.1 1.4-2.2-1.5-1.2-1.6-.6 1.1-1.9-1.8-2.3.5-1.4-.7V207l.7-.8-.9-.7-.2 1.1-1.5-1.7-.6-1.4-.5-2.8 1.2.9-.5-4.7.4-2.7ZM894.3 270.6l-.8.3-1.1-1.2-1-1.9-.4-2.3.4-.3.2.9.8.7 1.1 1.9 1.2 1Zm-10.1-4.1-1.4.3-.5.8-1.5.7-1.4.8-1.4-.1-2.1-.8-1.5-.9.3-.9 2.3.4 1.5-.2.5-1.4.4-.1.2 1.6 1.5-.2.8-1.1 1.6-1.1-.2-1.7 1.6-.1.5.5-.2 1.7Zm-30 11 .8-9.8.5-9.9 4.5 2.1 4.8 1.7 1.8 1.6 1.4 1.5.2 1.8 4.4 1.8.5 1.6-2.5.4.4 2 2.2 2 1.5 3.2 1.5-.1-.2 1.3 2 .5-.9.6 2.7 1.2-.4.9-1.8.2-.6-.8-2.2-.3-2.6-.4-1.9-2-1.3-1.6-1.2-2.7-3.3-1.3-2.3.9-1.7 1 .1 2.2-2.2 1-1.4-.5Zm33.3-13.9-.9.8-.4-1.8-.5-1.2-1.2-1-1.4-1.2-1.9-.9.7-.8 1.5.9.8.6 1.1.8 1 1.2 1 1Z" stroke-width=".34" stroke="#333" stroke-opacity="1" cursor="pointer" fill="#fee391" fill-opacity="1"/><path d="m514.4 96.6-1.1-1.9.1-1-.7-1.5-.9-1 .6-.8-.7-1.5 1.5-.8 3.3-1.3 2.7-1 2.3.5.3.7h2.1l2.8.3h4.1l1.2.3.7.9.3 1.3.8 1.1.1 1.1-1.2.6.9 1.3.2 1.3 1.5 2.5-.2.9-1.1.3-1.8 2.4.8 1.3-.5-.1-2.4-1.2-1.6.5-1.1-.3-1.3.6-1.3-1-.9.3-.2-.1-1.2-1.5-1.7-.1-.3-1-1.6-.3-.3.8-1.3-.6.1-.8-1.8-.3ZM306.1 194.2l1.3.2.5.6-.8.8h-2l-1.5.1v-1.3l.4-.5Z" stroke-width=".34" stroke="#333" stroke-opacity="1" cursor="pointer" fill="#ffffd4" fill-opacity="1"/><path d="m796.7 122.3.6.5-1-.2-.5 1-.1 1 1.3 2.2-.9.6-.2.6-.4.9-1.4.4-.6.8.6 1.3-.2.4 1.3.5 2 1.3v.7l-.9.2-1.7.2-.3 1.3-1.2-.1v.3l-1.5-.6v.6l-.6.2-.4-.5-.7-.3-.9-.5v-1.3l.4-.4-.5-.5-.1-1.6-.4-.5-1.6-.4-1.6-.8 1-1.9 1.8-1.6.5-2.1 1.7.9 2.2.1-1.3-1.5 3-1.3v-1.7Z" stroke-width=".34" stroke="#333" stroke-opacity="1" cursor="pointer" fill="#fe9929" fill-opacity="1"/><path d="m458 123.8.9-.8 1.1-.4.5 1.5h1.4l.5-.4 1.4.1.6 1.5-1.1.8-.1 2.3-.4.5-.2 1.4-1 .2.9 1.8-.7 2 .8.9-.4.8-.9 1.1.1 1-1 .8-1.3-.4-1.3.3.5-2.3-.2-1.9-1.1-.3-.5-1.1.2-2 1.1-1 .2-1.3.6-1.8-.1-1.2-.4-1.1ZM316.6 317.1l.7-3.6-.1-1.6 1-2.7 4.5-.9 2.4.1 2.6 1.5.2.9.9 1.7.2 4.1 2.8.6 1-.6 1.8.8.6.9.5 2.8.4 1.1 1 .2.9-.5 1 .5.2 1.7-.2 1.8-.3 1.7-.2 2.7-2 2.3-2 .5-2.9-.5-2.7-.8 1.9-4.6-.5-1.3-2.8-1.2-3.4-2.2-2.2-.5ZM611.8 175.3l-.4-2.1.5-1.6.7-.4.9 1 .2 1.8-.4 1.7-.7.2ZM533.3 106l.9-.6 1.5.3h1.5l1.2.7.7-.4 1.7-.3.5-.7h1l.7.3.9.9.9 1.2 1.6 1.8.3 1.3-.1 1.2.6 1.4 1.1.5 1.1-.5 1.1.5.2.8-1.1.6-.7-.2-.2 3.6-1.4-.4-1.9-1-2.8.7-1.1.7-3.5-.1-1.9-.5-.9.2-.9-1.2-.5-.5.5-.5-.6-.4-.7.7-1.5-.9-.3-1.2-1.5-.7-.4-1-1.4-1.1 1.9-.6 1.2-2 .9-2ZM810.3 97.6l6.5 5.2-4.2-1 1.7 4.3 4.5 3 1.4 2-3-1.7v2.3l-2.2-2.5-1.8-2.9-2.6-3.2-1.1-2.2-3-3.9-3.7-2.8-3.2-4 .9-1.3-2.1-1.3.6-.4 2.3 1.9 3.3 2.8 2.3 2.8ZM530.8 87.3h-4.1l-2.8-.3.4-1.2 2.9-1 2.4.5 1.1.5-.1.8Zm-399-33.7.4.7 2.3-1.9 4.8.4.4 2.4-3.6 1.2-3.6.2-3.7 2.6-1.6.6-1.8-.1-.2-.9-1.6-.8 1.1-1.1-1.4-.5-2.8.4.3-1 1.8-.9-3.3.6-.9 1.2-2.8 1.2 15.7-10.4 1.7 1.9 1.3 2.6Zm689.3-10.8-1.9.1-1.6-.8.6-1Zm-679.5-.2-2.7.2 2.9-1.7.4-.1h1.6l1.5.7-.7.3Zm602.3-5.7-2.7.1-4.2-.3-.5-.1.4-1 1.9-.2 4 .9Zm6.1-4.4-.6.9-3.2-.2-4.8-.9-.8-.8 3.9.4Zm-11.9-1.1 1.3 1.7-6.7-.1-2.1.6-5.9-1.5-1.5-1.6 1.6-.5 4.8.1ZM589.2 43.1l-1 .2-6.4-.3-1.1-1.2-3.7-.6-.9-1.3 1.6-.6-.8-1.3 2.6-2.1-1.9-.3 3.2-2-1.2-1.1 3.3-1.2 4.8-1.5 5.5-.4 2.4-.9 3.1-.3 2 .9-.6.7-5.4 1.2-4.7 1.1-4.1 2.2-1.3 2.4L583 39l1.5 2Zm206.6 77.6h1.1l-1.8-3.5-2.2-2.6 1.3-1 3.3.5-.3-2.9-1.4-3.2.2-1.1-.6-2.6-3.3.8-1.2 1.2h-3.6l-2.8-2.8-4.2-2.1-4.7-.9-2.9-2.9-2.1-1.7-1.8-1.3-3.6-2.9-2.8-1.1-4-.8-3 .1-2.4.5-.8 1.4 1.8.7 1.2 1.6-.6.9v3.1l.9 1.3-2.1 1.8-3.4-1.1-2.6.3-1.9-1-1.6-.3-2.1 2-2.7.5-1.7.7-3.2-.4H732l-2.3-1.5-3.1-1.4-2.5-.4-2.7.4-1.9.5-3.9-1.2-1.8-2.2-3.1-.7-2.3-.3-3.2-1.2-.7 3 1.9 1.7-1.1 2-3.7-.7-2.4-.1-2.3-1.4h-2.4l-2.5-.9-2.8 1.3-3.1 2.5-2.2.6-.8.2-2.1-1.8-2.8.4-1.6-1.2-1.9-.6-1.9-1.7-1.5-.5-2.9.7-4-1.6-.5 1.5-8.6-7.4-3.9-2.2.4-.9-4.4 2.7-2 .2-.6-1.6-3.3-.9-2 .7-2.1-3-4.3-.6-1.4 1.2-5.1 1-.8.7-8 1-.7 1 2.4 2-1.9.7.7.8-1.6 1.4 4.4 2-.1 1.4-3.3-.2-.3.9-3.5-1.5-3.6.1-2.1 1.2-3-1.2-5.7-2-3.6.1-3.8 3.1.3 2.2-2.8-1.7-1 3.2.8.6-.8 2.2 2.5 2 1.7-.1 2 2 .1 1.5 1.3.5-.6 1.7-2.2.5-1.7 3.1 2.8 2.8.2 2 3.5 3.5-1.2 1.2-.3.8-1.1-.2-2.1-1.8-.7-.1-1.6-.7-1-1.3-2.4-.6-1.4.5-.5-.6-3.6-1.4-3.7-.5-2.1-.5-.2.4-3.6-2.5-2.9-1.2-2.4-1.7 1.7-.5 1.5-2.5-1.6-1.1 3.3-1.2-.2-.7-2 .5-.2-1.3 1-.8 2.3-.2.1-1-.8-1.6.6-1.6-.2-.8-3.6-1h-1.4l-1.7-1.3-1.7.4-3.1-1-.1-.6-1-1.2-1.9-.2-.4-.9.5-.5-1.8-1.7-2.3.3-.7-.1-.5.6-.8-.1-.9-1.8-.8-1 .4-.3 1.9.1.7-.6-.8-.8-1.6-.5v-.5l-1-.5-1.8-1.9.3-.8-.4-1.3-2.3-.7-1.1.4-.5-.7-2.4-.7-1.1-1.7-.4-1.4-1.2-.6.8-.9-1.2-2.6 1.2-1.6-.4-.5 2.1-1.5-2.5-1.3 3.8-3.5 1.6-1.6.4-1.4-3.5-1.8.4-1.8-2.3-2 .8-2.2-3-3 1.3-2-3.4-1.7-.2-1.8 1.5-.2 3-1 1.8-.9 3.6 1.5 5.5.6 8.3 2.9 1.9 1.3.7 1.7-1.7 1.4-3 .7-9.5-2-1.4.3 3.8 1.9.5 1.2.9 2.8 2.8.8 1.8.7-.1-1.3-1.6-1.2 1-1 5.4 1.7 1.5-.7-2-1.9 3.9-2.6 1.8.2 2.2.9.5-1.8-2.2-1.6.4-1.5-2-1.6 5.7.8 1.7 1.5-2.3.3.5 1.4 1.9.9 2.9-.6-.2-1.6 3.6-1.2 5.8-2.2 1.5.1-1.2 1.5 2.6.3 1-.9h3.6l2.3-1.1 3 1.5 1.4-1.7-2.8-1.4.5-.9 6.1.8 3.1.8 8.8 2.9.5-1.3-2.8-1.4-.4-.5-2.5-.3V45l-2.3-1.9-.5-.8 2-2.2-.3-2.3 1-.4 5.4.6 1.3 1.4-.3 1.9 1.7.8 1.8 1.8 1.8 3.4 3.1 1.6.3 1.7-1.7 3.7 2.5.4.3-.9 1.8-.7-.3-1.3.9-1.2-2.1-1.5-.2-1.7-2.2-.2-1.4-1.4-.2-2.5-3.8-2 2.1-1.7-1.7-1.7.9-.1 2 1.4 1 2.3 2.3.5-2.1-1.8 2.4-1 3.7-.1 4.6 1.4-3.3-2-2.3-2.6 2.8-.5 4.4.1 3.7-.3-2.6-1.2.7-1.6 1.9-.1 2.4-1.1 4.3-.3-.1-.6 4.4-.3 2.1.6 2.5-1.3 3.3.1-.7-1 .5-1 2.9-.9 3.9.8-1.7.5 4.4.4 1.9 1.1.9-.6h5.2l5.4 1.2 2.5.8 1.2 1.2-1.1.7-3.2 1.3-.6.7 2.7.4 3.4.6 1.1-.5 2.7 1.5.1-.6 2.5-.4 6.3.4 1.8 1.2 8.2.3-2.3-1.8 4.5.4h2.9l4.6 1.3 2.8 1.5.2 1 4.8 2 4.2 1-1.4-2.6 4.4 1.1 2.3-.7 4.7.8.4-.7 3.6.4-4.5-2.3 1-1.1 19 1.6 3.8 1.5 7.6 1.9 7-.5 4.4.4 3.1 1 2.4 1.9 3.4.7 1.9-.5 3.3-.1 4.3.5 3.3-.3 6.7 2.3 1.2-.8-4-1.7-.9-1.1 7.2.7 3.8-.1 7.4 1.2 4.4 1.1 15.7 10.4-1 1.1-2.9-.2 3.9 1.5 4.3 2.2 1.9.7 1.8 1.1.5.7-4.7-.6-3.1 2.1-1.4.3-.8 1.9-.9 1.7.8 1.3-5.4-1.9-2.9 2.1-2.2-1-.6 1.2-3.4-.4 1.5 1.8.6 2.7 1.3 1.2 3.2.6 4.3 4.1-2 .1 1.6 2.4 2.2 1.2-2.3 1.5 2.5 3.2-2.7.7 2.2 3-.8 2.7-2.7-2-5-4.2-7.6-6.4-3-3.9.1-1.7-1.3-1.3 2.6-.6-.1-3.6.3-2.8 1.2-2.2-3.1-3.8-2.2.2 1.5 2.2-1.7 3-5.7-3.3-4.3.9-.1 4.6 3.7 1.7-4 .7-3 .3-2-2-3.8-.4-1.2 1.4-7-.5-6.2.8-1.7 5.5-2.3 6.6 3.8.4 2.7 1.8 2.7.6.2-1.4 2.6.2 6 3.2 2.2 2.4.7 2.9 2.6 3.5 2.4 4.6-.5 4.3.7 2-.9 3.5-1 3.4-.4 1.8-2.2 1.7-1.5.1-2.4-1.5-1.9 2.2.2 1-.6-.5ZM659 25.2l-8.5.8-.6-2.8 1-.3 1.5.2 5.9 1.2Zm-95.1-4.7-2 .2-1.4.2v.3l-1.8.3-2-.5.5-.6h-3.7l3-.4h2.5l.6.5.7-.5 1.3-.3 2.7.5Zm84.8 3.4-3.4.3-5.5-.6-3.8-.8-3.2-1.6-2.7-.3 2.5-1.4 3-.4 4.4 1 6.5 1.9Z" stroke-width=".34" stroke="#333" stroke-opacity="1" cursor="pointer" fill="#ffffd4" fill-opacity="1"/><path d="m561 253.4 1.1 1.7-.2 1.8-.8.4-1.4-.2-.8 1.7-1.6-.2.2-1.7.4-.2.1-1.8.8-.9.6.4Z" stroke-width=".34" stroke="#333" stroke-opacity="1" cursor="pointer" fill="#fec44f" fill-opacity="1"/><path d="m592.6 200.7-.4-1.3-.8-.9-.3-1.2-1.4-1.1-1.6-2.5-.9-2.5-1.9-2-1.2-.5-1.9-2.9-.5-2.1v-1.8l-1.7-3.3-1.3-1.2-1.4-.6-1-1.8.1-.6-.8-1.6-.8-.7-1.2-2.2-1.8-2.5-1.4-2h-1.3l.2-1.7.1-1 .2-1.2 2.9.4 1-.9.5-1.1 1.9-.4.3-1 .8-.5-2.8-3 4.9-1.5.4-.5 3.2.8 4 2.1 7.9 6.1 4.8.2 2.3.3.8 1.5 1.9-.1 1.3 2.6 1.3.7.6 1 1.9 1.3.3 1.3-.2 1 .4 1 .9.8.4 1 .5.7.8.6.7-.2.6 1.2.2.7 1.2 3 8 1.6.4-.7 1.4 2.2-1.2 6-7.6 3-7.5 1.2-2.3 1.3-1.7 3.2-1.2.5-.7-1-1 .1-2.6-.3-.5-.3-3 .1-.7.3-1.1-.8-.6 1.5.3 1.2Z" stroke-width=".34" stroke="#333" stroke-opacity="1" cursor="pointer" fill="#ffffd4" fill-opacity="1"/><path d="m570.1 221.5-.4-.1v-1.5l-.3-1-1.4-1.2-.4-2.2.3-2.2-1.3-.2-.1.6-1.6.2.7.9.2 1.8-1.4 1.6-1.3 2.2-1.3.3-2.3-1.7-1 .6-.2.9-1.4.5-.1.7h-2.6l-.4-.7-1.9-.1-.9.6-.8-.3-1.4-1.8-.4-.8-1.9.4-.7 1.4-.7 2.7-.9.6-.8.3-.2-.1-.9-.9-.2-.9.4-1.3v-1.2l-1.6-1.9-.3-1.3v-.7l-1-.9-.1-1.8-.6-1.1-.9.1.3-1.1.6-1.2-.3-1.3.8-.9-.5-.7.6-1.9 1.2-2.2 2.2.2-.5-11.9v-1.3h3l-.2-6H576.1l1 2.9-.5.6.5 3.1 1.2 3.6 1.1.7 1.4 1.1-1.2 1.7-1.9.5-.8 1-.1 2-1 4.4.3 1.2-.3 2.6-.9 3-1.6 1.5-1.1 2.3-.2 1.2-1.2.8-.7 3.2Z" stroke-width=".34" stroke="#333" stroke-opacity="1" cursor="pointer" fill="#fe9929" fill-opacity="1"/><path d="m570.1 221.5.1 2.3-.4.9-1.4.1-.9 1.7 1.7.2 1.3 1.5.5 1.2 1.3.7 1.6 3.3-1.8 2-1.6 1.8-1.6 1.4H567l-2.1.7-1.7-.7-1.1.8-2.4-2-.6-1.3-1.5.7-1.2-.2-.7.5-1.2-.4-1.7-2.5-.4-.9-2-1.2-.7-1.8-1.1-1.3-1.9-1.6v-1l-1.5-1.2-1.8-1.2.8-.3.9-.6.7-2.7.7-1.4 1.9-.4.4.8 1.4 1.8.8.3.9-.6 1.9.1.4.7h2.6l.1-.7 1.4-.5.2-.9 1-.6 2.3 1.7 1.3-.3 1.3-2.2 1.4-1.6-.2-1.8-.7-.9 1.6-.2.1-.6 1.3.2-.3 2.2.4 2.2 1.4 1.2.3 1v1.5Z" stroke-width=".34" stroke="#333" stroke-opacity="1" cursor="pointer" fill="#fe9929" fill-opacity="1"/><path d="m435.8 209-1-2.3-1.3-1.1 1.2-.6 1.3-2.1.7-1.6.9-.9 1.3.2 1.3-.6 1.4-.1 1.3.9 1.7.8 1.6 2.2 1.7 2.1.1 1.9.5 1.7 1 .9.2 1.1-.2 1-.3.1-1.5-.2-.2.3-.6.1-1.9-.7-1.2-.1-4.9-.1-.7.4-.9-.1-1.4.5-.4-2.4 2.4.1.6-.4h.5l1-.7 1.1.6h1.2l1.1-.6-.5-.9-.9.5h-.8l-1-.7h-.9l-.6.7Z" stroke-width=".34" stroke="#333" stroke-opacity="1" cursor="pointer" fill="#fee391" fill-opacity="1"/><path d="m909.7 281.6.6 1h-1.8l-.8-1.8 1.5.7Zm-3.1-1.8h-1.1l-1.6-.3-.5-.4.3-1.2 1.7.4.8.7Zm2.3-.8-.5.5-1.7-2.6-.4-1.8h.9l.8 2.4Zm-4.4-3.9v.6l-1.9-1.2-1.4-1.1-.9-1 .4-.3 1.2.7 2 1.4Zm-6-2.9-.5.1-1.1-.7-1-1.2.2-.5 1.5 1.3Z" stroke-width=".34" stroke="#333" stroke-opacity="1" cursor="pointer" fill="#ffffd4" fill-opacity="1"/><path d="m449.6 229.5-.7-.2-1.9-1.2-1.4-1.6-.4-1.1-.4-2.2 1.5-1.4.3-.8.4-.7h.8l.6-.6h2.1l.8 1.1.5 1.3-.1.8.4.8v1.1l.7-.2-1.2 1.5-1.2 1.6-.2.9Z" stroke-width=".34" stroke="#333" stroke-opacity="1" cursor="pointer" fill="#fec44f" fill-opacity="1"/><path d="m248 209.6-.4.7h-1.5l-.9-.3-1-.6-1.5-.2-.7-.6.1-.5 1-.7.5-.4-.1-.3.7-.2.7.3.5.6.8.4.1.4 1.1-.3.6.2.3.3Z" stroke-width=".34" stroke="#333" stroke-opacity="1" cursor="pointer" fill="#ffffd4" fill-opacity="1"/><path d="M606.9 225.9h-2.2l-8.8-3.6-1-1.1-1.1-1.4-1-1.7.5-1.1 1-1.6.8.6.6 1.2 1.2 1.3h1.4l2.4-.8 2.9-.3 2.3-1 1.3-.2.9-.5 1.5-.1.9-.1 1.2-.4 1.4-.3 1.2-1.1h1l.1.9-.2 1.7.1 1.6-.5 1.1-.7 3.3-1.1 3.3-1.6 3.9-2.2 4.4-2.2 3.4-3 4.1-2.7 2.4-3.9 3-2.5 2.3-2.9 3.7-.6 1.6-.6.7-1.6-2.5-.1-11 2.3-3.4.7-1h1.7l2.3-2.2 3.5-.1Z" stroke-width=".34" stroke="#333" stroke-opacity="1" cursor="pointer" fill="#fec44f" fill-opacity="1"/><path d="m534.3 116.8-.5.7.4 1 1.3 1.3-.9 1-.3.9.3.4-.3.4h-1.1l-.9.2-.1-.2.3-.4.2-.7h-.3l-.6-.5-.4-.2-.3-.4-.5-.2-.4-.4-.4.1-.3 1-.5.2.2-.2-1-.7-.8-.3-.4-.4-.7-.5.5-.1.3-1.4-1.3-1.2.5-1.3h-.9l.8-1.1-.8-.8-.7-1.2 1.8-.8 1.4.2 1.4 1.1.4 1 1.5.7.3 1.2 1.5.9.7-.7.6.4-.5.5ZM328.1 232l3.1.6.3-.6 2.2-.2 2.8.8-1.4 2.6.1 2.1 1 1.8-.5 1.3-.2 1.4-.7 1.2-1.5-.6-1.3.3-1.1-.3-.2.9.4.6-.2.6-1.5-.2-1.6-2.7-.3-1.7h-.8l-1.2-2.1.5-1.6-.1-.7 1.7-.8ZM523.7 101.3l.2.1.9-.3 1.3 1 1.3-.6 1.1.3 1.6-.5 2.4 1.2-.6.7-.3 1.2-.5.3-2.6-.9-.7.2-.5.7-1 .4-.3-.2-1.1.4-.9.1-.2.6-1.9.4-.9-.4-1.2-.7-.4-1 .2-.4.3-.6h1l.8-.3v-.3l.4-.1.1-.7.5-.1.3-.5ZM512.7 110l1.9.3 1.2-.7 2-.1.4-.5.4.1.6 1-1.8.8-.2 1.1-.8.3.1.9-.9-.1-.9-.5-.4.5-1.7-.1.6-.2-.7-1.3ZM503.7 74.5l.8-1.6 1.6-1.9.4-3.2-1.4-1.4-.5-3.6 1.1-2.5h2l.6-1-.8-.9 2.7-3.7 1.6-2.9 1-1.9h1.9l.3-1.4 3.8.4v-1.7l1.1-.1 2.9 1.3 3.3 1.7.9 4 .9 1-3.4.8-1.6 1.8.6 1.7-2.9 2.1-3.6 2.3-1 3.9 1.7 1.9 2.2 1.5-1.5 3.1-2.2.7-.2 4.7-1 2.6-2.7-.2-1 2.2-2.6.1-.9-2.6-2.1-3.2ZM562.8 330.6l-.6 1.4-1.6.3-1.4-1.6v-1.1l.8-1.1.3-.9.8-.2 1.3.5.3 1.4Z" stroke-width=".34" stroke="#333" stroke-opacity="1" cursor="pointer" fill="#ffffd4" fill-opacity="1"/><path d="m578 149.3-4.5 3.3-3-1.2v-.1l.2-.4-.1-1.3.4-1.6 1.2-1.1-.5-1.2-1.2-.2-.5-2.3.5-1.2.6-.7.5-.6V139l.8.6 2.7-.9 1.4.6h2l2.7-1.1h1.4l2.7-.5-.9 1.9-1.3.8.6 2.2-.5 3.6Z" stroke-width=".34" stroke="#333" stroke-opacity="1" cursor="pointer" fill="#fee391" fill-opacity="1"/><path d="m518.3 211.2.3-1.4-1.7-.1v-1.9l-1.2-1.1 1.1-4 3.3-2.8.1-4 .8-6.1.6-1.3-1.1-1-.1-1-1-.8-.7-4.6 2.5-1.7 10.6 5.8 10.6 5.8.5 11.9-2.2-.2-1.2 2.2-.6 1.9.5.7-.8.9.3 1.3-.6 1.2-.3 1.1.9-.1.6 1.1.1 1.8 1 .9v.7l-1.7.5-1.3 1.2-1.9 3.3-2.5 1.4-2.5-.2-.8.3.3 1.1-1.4 1-1.1 1.2-3.3 1.2-.7-.7-.4-.1-.5.8-2.2.2.4-.8-.9-2.1-.3-1.2-1.2-.5-1.6-1.8.6-1.4 1.2.3.7-.2h1.5l-1.5-2.7.1-2-.2-2Z" stroke-width=".34" stroke="#333" stroke-opacity="1" cursor="pointer" fill="#fe9929" fill-opacity="1"/><path d="m485 231.5-2.2.6-.6-1-.7-2-.2-1.5.6-2.7-.7-1.1-.2-2.3v-2.2l-1.1-1.6.2-.9h2.3l-.4 1.6.9.9.9 1.1.1 1.4.5.7-.1 6.9Z" stroke-width=".34" stroke="#333" stroke-opacity="1" cursor="pointer" fill="#fee391" fill-opacity="1"/><path d="m751.4 213.2-2.5-1.3h-2.2l.1-2.3h-2.3l.1 3.3-1 4.4-.7 2.7.4 2.1 1.7.1 1.3 2.8.6 2.6 1.6 1.7 1.6.4 1.4 1.5-.8 1.3-1.7.3-.3-1.5-2.2-1.3-.5.5-1.1-1.2-.5-1.4-1.5-1.7-1.4-1.5-.3 1.8-.6-1.7.2-1.9.5-2.9 1.1-3.1 1.2-2.8-1.3-2.7-.1-1.4-.5-1.7-2-2.4-.8-1.5.9-.6.6-2.6-1.3-2-2-2.2-1.6-2.6 1-.6.7-3.2 1.8-.2 1.4-1.3 1.4-.7 1.2 1 .5 1.8 1.8.1-.2 3.2.4 2.7 2.6-1.8.8.5 1.5-.1.4-1 2 .2 2.4 2.4.6 3 2.4 2.6.2 2.6-.7 1.4-2.5-.5-3.3.6-1.4 2.5ZM654.1 128.7l-.6.9-2.8-.5.2 1.7 2.6-.2 3.4 1 4.5-.5 1.4 2.8.7-.3 1.7.7.3 1.2.8 1.7h-2.5l-1.8-.3-1.2 1.4-1 .3-.7.6-1.2-1-.5-2.5-.8-.1v-1l-1.5-.6-.8 1 .1 1.2-.3.5-1.5-.1-.4 1.4-1-.6-1.6 1-.8-.4.6-3-1.1-2.3-2-.7.3-1.3 2 .1.8-1.6.2-2 3-.7-.1 1.4.6.9ZM633.3 142.5l-.8-2.5-1.8-.1-3.5-2.7-2-.3-3.1-1.6-1.8-.2-1 .5-1.7-.1-1.4 1.8-2.1.5-.8-2.1-.3-3.1-2.2-1.1.2-2-1.7-.2v-2.5l2.5.7 1.9-.9-2.2-1.8-1.1-1.7-1.8.7.3 2.2-1.2-1.9.8-1 2.6-.6 1.9.8 2.3 2.4 1.2-.2h2.7l-.8-1.5 1.9-1.1 1.5-1.7 3.7 1.6.9 2.4 1.1.6 2.6-.2 1 .6 2 3.1 3.3 2 2 1.4 3 1.5 3.6 1.3.4 1.8-.8-.1-1.4-.8-.1 1.1-2 .6.1 2.4-1.2.9-1.9.5-.2 1.3-1.8.4ZM811.7 276.8l.3-.7 2.4-.7 1.8-.1.9-.3 1 .3-1.1.8-2.9 1.4-2.2.8v-.9ZM316.6 217.6l1.5-.4.6.1-.3 2.2-2.2.3-.5-.2.9-.9ZM504.2 158.6l-1.2-5.4-1.6-1.2v-.8l-2.2-1.8-.2-2.2 1.5-1.7.5-2.5-.5-2.9.5-1.5 2.6-1.2 1.8.3v1.6l2.1-1.1.2.5-1.2 1.5v1.4l.9.7-.2 2.7-1.6 1.5.5 1.6 1.3.1.7 1.4 1 .5-.1 2.3-1.2.9-.8.9-1.7 1.2.3 1.2-.1 1.3ZM581.2 124.8l2.6-.1 2.6 1.5.6 1v1.5l2 .7 1.1.9-1.5.8 1.4 3.5-.4.9 1.8 2.4-1.1.5-1-.7-3-.4-1 .4-2.7.5h-1.4l-2.7 1.1h-2l-1.4-.6-2.7.9-.8-.6v1.7l-.5.6-.6.7-1.1-1.4.8-1.1-1.5.2-2.2-.7-1.5 1.8-3.7.3-2.2-1.6-2.7-.1-.5 1.2-1.7.4-2.6-1.6-2.7.1-1.7-3-2-1.7.9-2.3-1.7-1.5 2.4-2.8 3.8-.2.7-2.2 4.7.4 2.7-2 2.7-.8 4-.1 4.6 2.1 3.7 1.2 2.8-.5 2.1.3Zm-37.5 2.2.5-.4.6-1.9-1.3-.7 2.4-1 2.1.4.4 1.2 2.3.9-.4.8-2.8.1-1 1-1.8 1.6-1-1.4Z" stroke-width=".34" stroke="#333" stroke-opacity="1" cursor="pointer" fill="#ffffd4" fill-opacity="1"/><path d="m570.3 252.9.5.3 9.6 6.1.1 1.8 3.8 3-1.3 3.7.1 1.7 1.7 1.1.1.8-.8 1.8.1.9-.2 1.5.9 1.9 1 3 1 .6-2.2 1.8-2.9 1.1h-1.6l-1 .9-1.8.1-.7.3-3.2-.8-2 .2-.6-4.1-.9-1.4-.5-.8-2.6-.6-1.5-.9-1.6-.5-1.1-.5-1.1-.7-1.4-3.8-1.5-1.7-.5-1.8.3-1.6-.4-2.7 1.1-.2 1-1.1 1-1.5.7-.7v-.9l-.6-.7-.2-1.2.8-.4.2-1.8-1.1-1.7 1-.3h2.9Z" stroke-width=".34" stroke="#333" stroke-opacity="1" cursor="pointer" fill="#fe9929" fill-opacity="1"/><path d="m561 253.4-1.6 1-.6-.4v-2.2l.6-1.2.2-2.4.5-1.4 1.1-1.6 1-.8.8-1-1-.5.1-3.5 1.1-.8 1.7.7 2.1-.7h1.9l1.6-1.4 1.3 2.1.3 1.5 1.2 3.5-.9 2.2-1.3 1.9-.8 1.3v3.2l-5.4.2H562Z" stroke-width=".34" stroke="#333" stroke-opacity="1" cursor="pointer" fill="#fe9929" fill-opacity="1"/><path d="m552.4 93.7.8.1.5-.6.7.1 2.3-.3 1.8 1.7-.5.5.4.9 1.9.2 1 1.2.1.6 3.1 1 1.7-.4 1.7 1.3h1.4l3.6 1 .2.8-.6 1.6.8 1.6-.1 1-2.3.2-1 .8.2 1.3-1.9.2-1.3 1-2.2.1-1.9 1.1.5 1.9 1.3.7 2.4-.2-.3 1.1-2.5.5-3 1.7-1.4-.6.3-1.4-2.8-.9.4-.5 2.1-1-.8-.7-3.8-.7-.4-1.1-2.1.3-.6 1.7-1.6 2.1-1.1-.5-1.1.5-1.1-.5.6-.4.2-1 .5-.9-.2-.5.5-.3.3.4 1.4.1.6-.2-.5-.3.1-.4-1-.8-.5-1.2-.9-.5v-1l-1.2-.8-1-.1-1.8-.9-1.5.3-.5.4h-1l-.5.7-1.7.3-.7.4-1.2-.7h-1.5l-1.5-.3-.9.6-.3-.8-1.4-.8.3-1.2.6-.7.5.1-.8-1.3 1.8-2.4 1.1-.3.2-.9-1.5-2.5 1.1-.1 1.1-.8h1.7l2.4.2 2.6.7h1.9l.9.4.8-.5.7.7 2-.1 1 .3-.1-1.5.5-.6ZM332.7 341.1l1.6-.3 3 2.3.9-.1 2.9 2 2.3 1.6 1.8 2.1-.9 1.4 1 1.7-.8 1.9-2.5 1.7-2-.6-1.3.3-2.5-1.3-1.7.1-1.9-1.6-.1-2 .4-.7-.6-3 .2-3.1ZM72.4 192.4l-.5.6-.6-.5.3-.8-.2-1.1.2-.4.6-.4v-.6l.2-.3h.2l.8.5.5.3.3.4.4 1.1-.1.1-1.2.7Zm-.3-4.7-.9.3-.3-.7-.3-.2v-.2l.4-.3.8.3.6.5Zm-1.4-1.6-.2.4-1.3-.1.2-.4Zm-2.2-.4-.2.2-.2-.1-.9-.1-.1-.7-.1-.1.8-.4.2.2Zm-3.9-2-.4.3-.8-.5.2-.3.5-.3.6.1Zm255.2-69.6.1 1-3 1.4-2.8 1-2.8.9-1.9 1.8-.6.7-.5 1.5.3 1.6.9.1.1-1.1.6.7-.5.8-1.8.5h-1.2l-1.9.5-1.1.1-1.5.2-2.3.8 3.8-.5.5.5-3.7.9H299l.1-.3-1 .8.7.1-1.2 2.2-2.5 2.3.1-.8-.5-.1-.6-.8v1.6l.5.6-.3 1.1-1.1 1.2-2.1 2.4-.2-.1 1.3-2.1-.9-1.1.5-2.5-.9 1.3v1.9l-1.5-.5 1.4 1-.7 2.8.6.2v1.1l-.4 3-2.2 2.2-2.9.9-2.1 1.8-1.3.2-1.5 1.1-.7 1-3.2 2-1.8 1.4-1.6 1.8-.9 2.1v2.1l.3 2.6.7 2.1-.2 1.3.5 3.5-.4 2.1-.3 1.1-.9 1.9-.9.4-1.2-.4-.2-1.3-.9-.7-.9-2.6-.7-2.3-.2-1.2.9-2-.4-1.7-1.4-2.5-.9-.4-2.9 1.3-.4-.1-.9-1.4-1.5-.8-2.9.4-2.2-.3-2 .2-1.2.4.3.8-.4 1.3.4.6-.5.4-.9-.5-1.1.6-1.8-.1-1.6-1.6-2.3.4-1.7-.7-1.6.2-2.3.7-2.9 2.2-2.9 1.3-1.7 1.5-.9 1.3-.5 2.1-.2 1.5.3 1-1 .1-1.7-.7-1.8-.9-.4-1.4-.1-2.2-1.1-1.7-.5-1.7-.8-2.1-1.5-1.2-2.1.1-2.2 2.3-1.9-.9-1.1-.9-.2-1.6-.4-1.6-1.1-1.3-1-1-.6-1.1h-4.4l-.4 1.3h-7.1l-5.1-2.1-3.3-1.5.4-.6-3.3.4-3 .2.2-1.6-1-1.7-1.1-.4.1-.8-1.4-.2-.5-.8-2.3-.3-.4-.5.4-1.6-1.2-3-.2-4.2.4-.7-.6-1-.7-2.5.9-2.5-.5-1.6 1.8-2.5 1.3-2.6.6-2.2 2.5-2.8 1.9-2.7 1.9-2.7 2.1-4 .8-2.5.2-1.4.7-.6 2.7 1-.5 2.8 1.1-.8 1.1-2.4.8-2.4h64.4l.6-1.1h.8l-.4 1.6.4.5 1.6.2 2.1.4 1.9.9 2.1-.3 2.5.7h.8l2.4-.8 1.7 1 1.8 1.2 1.5 1 1.4.9-.1.8.5.3-.3.3h.6l.6-.3-.2.7.3.5h.6l.2.4-.5.5 1.9 1.4-.5 2.7-.6 2.6-1.4 1.7-1.7 1.7-.9 1-.2.3.1.4.7.5h.6l3.4-1.6 2.6-.5 3.7-1.4.2-.3.1-.9-.2-.6 1.3-.5h4.6l1.2-1.2.4-.2 3.3-2.1 1.3-.6h8l.5-.7.8-.2 1.2-.5 1.3-1.3 1.5-2.3 2.6-2.2.5.8 1.8-.5.7.8-1.4 4Zm-174-34.7-3.3 1.1-.4-.8 1.1-1.3 3-1 1.6-.4 1.3.2v.9Zm-18.4-7.8-1.8.4-.7-.5-.4-.7 2.6-.5 1.4.2Zm.6-10.5.6.5 1.6-.3.8.7 1.5.4-.5.2-2.3.6-.8-.6-.2-.5-2 .2-.2-.2Zm56.5 11.5.1 1.8 3.6-1.6 3-.9-.3 1.5.4 1.1.8 1.3-.6 2-.6 3.2 2.1 1.8-1.4 1.8-2.4 1.3-.3-1-1.2-.9 1.5-2.5-.7-2.3 1.2-2.6-1.9-.2-3.3-.1-1.8-.8-1.6-2.9-1.5-.5-2.7-1-3.2.2-2.8-1.2-1.2-1.2-3 .6-1.7 1.9-1.3.2-3.1.6-2.9.9-3 .6 1.5-1.7 3.9-2.7 3.2-.8.2-.7-4.4 1.5-3.5 1.9-5.3 1.9.1 1.4-4.2 2-3.6 1.2-3.1.8-1.9 1.3-5 1.4-2.1 1.4-3.8 1.2-1.3-.3-2.9.8-3.3 1-2.9 1-4.7.8.2-.5 3.9-1.3 3.1-.9 4-1.6 3.1-.3 2.3-1.1 4.9-1.7 1.1-.6 2.6-1 2.8-2.1 2.9-1.7-3.4.9-.2-.5-2.3 1 .2-1.4-1.7 1 .8-1.4-3.5 1.1h-1.3l1.7-1.6 1.6-1-.2-1-3.4.5-.2-1.3-.7-.7 1.9-1.5-.2-1.2 2.8-1.5 3.6-1.6 2.5-1.3 1.9-.2.9.4 3.3-1.3 1.2.2 2.6-.8 1.2-1.2-.5-.5 2.8-1h-1.3l-2.9.6-1.4.6-.8-.6-3.3.3-2.1-.7.6-1-.5-1.6 4.3-1.1 6.2-1.2h1.7l-2.1 1.3 4.4-.1.5-1.7-1.1-1 .4-1.2-.3-1.1-1.5-.9 3-1.3 3.5-.1 4.2-1.1 2.2-1.3 3.7-1.2 2.3-.3 5.3-1.1 1.4.2 4.9-1.3 2.1.5-.3 1.1 1.6-.5 3 .2-1 .6 2.3.4 2.3-.3 3 .8 3.3.3 1.1.3 3-.4 2 .7 1.6.4-11.5 9.6-16.8 15.3 2 .1 1.3.7ZM645.4 137.3l-.4-1.8-3.6-1.3-3-1.5-2-1.4-3.3-2-2-3.1-1-.6-2.6.2-1.1-.6-.9-2.4-3.7-1.6-1.5 1.7-1.9 1.1.8 1.5h-2.7l-3-11 5.7-1.7.5.2 4.3 2.2 2.3 1.1 3.1 2.7 2.7-.5 4-.2 3.6 2.2.7 3h1.2l1.2 2.4 3.1.1 1.1 1.4h.9l.5-2.1 2.5-2.1 1.2-.6.9.3-1.5 2 2.2 1.1 1.5-.7 3.4 1.5-2.5 2.2-2-.3-1 .1-.6-.9.1-1.4-3 .7-.2 2-.8 1.6-2-.1-.3 1.3 2 .7 1.1 2.3-.6 3-2-.6ZM291.2 214.5l-.1.7-1.6.4.8 1.3-.2 1.6-1.2 1.7.8 2.4 1.2-.2.7-2.1-.8-1.1v-2.3l3.4-1.2-.3-1.4 1-1 .8 2.1 1.9.1 1.6 1.7.1 1h2.3l2.9-.3 1.4 1.3 2 .4 1.6-.9v-.8l3.3-.2h3.2l-2.3.9.9 1.4 2.1.2 1.9 1.5.3 2.4h1.4l1 .7-2.1 1.7-.3 1.1.9 1.2-.7.5-1.7.5.1 1.4-.8.8 1.8 2.3.3.9-1 1.1-3 1.1-2 .5-.7.7-2.1-.7-2-.4-.5.3 1.2.7-.2 2.1.4 1.9 2.2.2.1.7-1.9.8-.3 1.3-1.1.5-2 .7-.5.9-2.1.2-1.4-1.6-.8-3-.7-1-1-.7 1.4-1.5-.1-.7-.7-.9-.5-2 .3-2.1.6-1.1.6-1.6-1-.5-1.5.3-1.9-.1-1.1.3-1.8-2.6-1.5-.4-3.4.3-.6-1-.7-.3v-.6l.3-1.1-.1-1.2-.6-.7-.2-1.4-1.4-.2.8-1.8.5-2.1.8-1.1 1.1-.9.7-1.5ZM761.9 185l-3 2.6-1.7 2.8-.3 2.1 2.5 3.2 3.1 3.9 2.6 1.9 1.9 2.4 1.9 5.6.2 5.3-2 2-2.9 1.9-1.9 2.6-3.2 2.8-1.1-2 .6-2-2.1-1.7 2.2-1.2 2.8-.3-1.3-1.8 4.2-2.3-.1-3.6-.8-2 .1-3-.9-2.2-2.3-2.1-2.1-2.6-2.7-3.6-3.4-1.8.6-1.1 1.5-.8-1.4-2.6h-3.2l-1.6-2.8-2-2.3 1.3-.8h2.1l2.5-.3 1.9-1.6 1.5 1.1 2.4.6-.1 1.7 1.5 1.2ZM921.7 299.7l-.9.4-.6-1.4.3-.8Zm-1-4.7v2.5l-.6-.4-.6.2-.2-.9.4-2.3Z" stroke-width=".34" stroke="#333" stroke-opacity="1" cursor="pointer" fill="#ffffd4" fill-opacity="1"/><path d="m619.7 199.8-1.8.8-.4 1.3v1.1l-2.6 1.2-4.1 1.4-2.3 2.2-1.1.1-.8-.1-1.5 1.2-1.7.6-2.2.1-.6.2-.6.8-.6.2-.4.8-1.3-.1-.9.4-1.8-.1-.8-1.8v-1.6l-.4-.9-.7-2.2-.8-1.3.5-.1-.3-1.4.3-.6-.2-1.3 1.1-1-.3-1.2.6-1.5 1.1.8.7-.3 3-.1.5.3 2.6.3 1-.1.7 1 1.2-.5 1.7-3.2 2.3-1.3 7.5-1.2 2.4 5ZM522 336.2l1.3-1.5.9.8.4 1.3 1.2.2 1.6.6 1.3-.2 2.4-1.6.5-11.1.7.4 1.4 2.9-.3 1.8.5 1.1 1.9-.3 1.3-1.3 1.3-1 .7-1.4 1.3-.7 1.1.4 1.2.8 2.1.2 1.6-.7.4-1 .5-1.4 1.4-.3.8-1.1 1-2 2.4-2.3 3.8-2.2 1.1.1 1.2.5.9-.4 1.4.3 1 4.2.6 2.2-.7 3.4.2 1-1.3-.5-.8.2-.3.9-.8 1.1v1.1l1.4 1.6 1.6-.3.6-1.4h1.9l-.8 2.2-.5 2.5-.7 1.4-1.9 1.5-.5.5-1.3 1.5-.8 1.5-1.6 2.2-3.2 3.1-1.9 1.8-2 1.4-2.8 1.2-1.3.1-.4.9-1.5-.5-1.3.6-2.7-.6-1.5.4-1.1-.2-2.6 1.2-2.2.5-1.7 1.1-1.1.1-1-1.1h-.8l-1-1.4-.2.4-.3-.8.1-1.7-.7-2.1.9-.5v-2.3l-1.5-2.8-1.1-2.6Zm32.3 1.1-1-.9-1.3.6-1.4 1.2-1.5 1.9 1.7 2.3 1-.3.5-.9 1.5-.5.5-1 .9-1.5Z" stroke-width=".34" stroke="#333" stroke-opacity="1" cursor="pointer" fill="#fec44f" fill-opacity="1"/><path d="m566.9 277.8 1.2 1.4.7 2.5-.5.9-.6 2.4.4 2.5-.9 1.1-.9 2.8 1.4.7-8.1 2.5.2 2.2-2 .4-1.6 1.2-.3 1-1 .3-2.4 2.4-1.5 2-.9.1-.8-.4-2.9-.3-.5-.2v-.3l-1-.7-1.7-.1-2.2.6-1.7-1.8-1.7-2.5.4-9.6h5.5l-.2-1 .4-1.1-.4-1.4.3-1.5-.2-.9h.9l.1 1 1.2-.1 1.7.3.9 1.3 2.1.5 1.6-1 .6 1.6 2 .4.9 1.3 1.1 1.7h2l-.1-3.3-.8.6-1.8-1.2-.7-.5.4-3.1.6-3.5-.6-1.4.8-1.9.7-.3 3.6-.6 1 .4 1.1.7 1.1.5 1.6.5Z" stroke-width=".34" stroke="#333" stroke-opacity="1" cursor="pointer" fill="#fe9929" fill-opacity="1"/><path d="m561.3 317.1-1.4-.3-.9.4-1.2-.5-1.1-.1-1.6-1.3-2-.5-.7-1.9.1-1.1-1.1-.3-2.9-3.3-.7-1.8-.5-.5-.9-2.4 2.9.3.8.4.9-.1 1.5-2 2.4-2.4 1-.3.3-1 1.6-1.2 2-.4.1 1.1 2.2-.1 1.2.7.5.7 1.3.2 1.3 1-.1 3.8-.7 2.1-.2 2.3.4.9-.4 1.7-.4.3-.8 2.2Z" stroke-width=".34" stroke="#333" stroke-opacity="1" cursor="pointer" fill="#fec44f" fill-opacity="1"/><path d="m415.8 205.2-.1.1h-.2l-.2-.3.1-.1.3-.2.1.1.1.2Zm3-.8h-.1l-.1-.2v-.2l.1-.2h.2l.1.2v.3Zm-.7.4-.2.3-.3-.1-.4-.5v-.2l.1-.2v-.3h.2v.2l.4.4Zm1.5-3.8.3.1h.1l.2.1v.3l-.1.2-.3.1h-.2l-.1-.1.2-.4Zm-3-1.1.1.1-.1.1-.4-.1h-.1l-.2.3-.2-.4v-.1l.1-.1.3.1Zm3.1-.1-.1.1-.1-.2-.1-.3.2-.1h.1Zm-5.2-.5-.4.1-.2-.1.1-.2.3-.1.2.2Zm-.7-.4-.3.1-.1-.1v-.2l-.1-.1v-.1l.6-.3h.3l.1.3-.1.1ZM595.8 287.2l-.3.1-.1-.2v-.1h.2Zm1.8-.7.2.4v.3l-.1.1-.1-.1-.2-.2-.5-.3h.5v-.1l.1-.1Zm-2.6-.6v.1l-.4-.3-.2-.2.1-1 .1-.1.1-.1.1.1v.7l.2.4.1.3ZM630.6 311.8l-.2.1h-.4l-.2-.2.1-.1v-.2l.1-.4.2-.1.2-.1v-.3l.2-.1.2-.1.2.3.1.4v.4l-.2.1-.1.2ZM627.8 264.2v.2h-.2v-.2l-.2-.1-.1-.2.2-.1ZM610.9 172l-.1.2-.1-.1-.2-.4v-.2l-.2-.5.1-.1h.3l-.1.1.2.2ZM675.4 240.3h-.1v-.2h.2v.2Zm.2-2.8h-.1v-.2h.1ZM931.1 232.4l-.1-.1v-.2h.1Zm3.5-3.9.4.2.3-.1-.2.1h-.1l-.4-.1ZM913.5 234v.1l-.2-.1.1-.1Zm-12.8-4.5-.1.1-.2-.1-.1-.2-.1-.1v-.1l.2-.1h.2l.2.3-.1.1Zm-17.9-1.6-.1-.1v-.1h.1Zm.7-.3h-.1v-.1h.1Zm-37.1-6.3v-.2h.1l.1.1-.1.1ZM924.6 251.6l.1-.1.1.1v.1h-.2v-.1ZM837.5 227.8h-.1l-.1-.2v-.3l.1-.2h.1l.1.3-.1.2ZM27.3 292.4h-.8l-.4-.2H26l-.3-.2-.2-.2.2-.1h.4l.7.2.1.2h.1l.2.1Zm-2.7-1.8.4.3.2.4-.2.4-.2-.1-.4.1-.1-.1-.7-.6-.2-.2h.3l.5-.1ZM757.4 246.2l-1.1.4-.4-.2.2-.7.2-.1h.3l.4.1h.2v.2ZM23.4 314.3l.1.4-.2-.2-.1-.1Zm-.8-.4.1-.1.1.1-.1.2-.1-.1-.5-.2.1-.1h.2Zm1.1-7.7-.1.2-.2-.2.1-.2.2.1.1.1ZM953.5 274.2l.2-.3.2.1-.2.4Zm1.1-1.7.1.1h-.1Zm1 2.9h.1v.3l-.3.2v.1l-.1.1v-.4l.2-.3Zm1.6 2.8v.1l-.1.2V278.2Zm-9 9.4h.4v.2l-.4-.1Zm2.5-15.7-.1-.2h.1Zm-2.5-4.9.1.1.1.1-.1-.1-.2-.1ZM317.7 198.6l-.1.2-.3-.1-.1-.1v-.1l.2-.2.4.2v.1Zm0-1.6v.1l-.3-.1.1-.4.2.1ZM322.7 210.6h-.1l-.3-.1v-.6h.2l.3.5ZM318.4 204l-.3.1v-.5l-.2-.4.1-.2v-.1l.4.1.1.2v.5ZM316.6 213.8l-.1-.1.1-.2.2-.4.2.1-.2.5ZM315.5 198.4l-.1.1-.1-.1.1-.2.1.1Zm-.2-.3-.2-.2-.2-.1-.1-.1v-.1l.1-.1.2.2.1.2h.1ZM319.1 208.4l-.2.3-.2-.2v-.4l.2-.3.1-.2.1-.1.1.3ZM318.3 210.4h-.1l-.2-.2v-.3l.2-.1.1-.1h.1v.5ZM483.4 121.7l.2-.1h.2l.3.1V122l-.6.2-.1-.1v-.2ZM502.6 108l-.1.1.2.1v.1l-.1.1-.1.1-.2-.1.1-.1-.1-.2.1-.3ZM516.4 141.9v.1h-.3l-.2-.1v-.4l.5.3ZM497.9 118.3h-.2v-.1ZM509.7 117.7l.2-.2.2.1-.1.2h-.2ZM60.7 243.9l.1.1.2.1v-.1.2h-.1v.2l.1.1h.1l.1.1v.1h.2v.1H61.1v-.1H61l-.3-.1h-.1v-.1l-.1-.1h-.2v-.2h.2-.1v.2h.2l.1.1v-.1h-.1v-.1h.1v.1h.1v-.1h-.1v-.1h.1v-.1.2l.1-.1v-.1h-.1l-.1-.1h-.1v-.1.1h-.1v-.1h.1ZM497.7 248.7l.3.4-.2.5-.4.3-.2-.5.1-.3Z" stroke-width=".34" stroke="#333" stroke-opacity="1" cursor="pointer" fill="#ffffd4" fill-opacity="1"/></g></g><g><g class="numericColorLegend"><path stroke="#333" stroke-width=".3" d="M153.5 532.14v-3M197.26 532.14v-3M271.97 532.14v-3M346.69 532.14v-3M421.4 532.14v-3M496.12 532.14v-3M570.83 532.14v-3M645.55 532.14v-3M720.26 532.14v-3"/><path fill="url(#d)" stroke="#333" stroke-width=".3" d="M129.74 532.14h47.52v10h-47.52z"/><path fill="#ffffd4" stroke="#333" stroke-width=".3" d="M197.26 532.14h74.71v10h-74.71z"/><path fill="#fee391" stroke="#333" stroke-width=".3" d="M271.97 532.14h74.71v10h-74.71z"/><path fill="#fec44f" stroke="#333" stroke-width=".3" d="M346.69 532.14h74.71v10h-74.71z"/><path fill="#fe9929" stroke="#333" stroke-width=".3" d="M421.4 532.14h74.71v10H421.4z"/><path fill="#ec7014" stroke="#333" stroke-width=".3" d="M496.12 532.14h74.71v10h-74.71z"/><path fill="#cc4c02" stroke="#333" stroke-width=".3" d="M570.83 532.14h74.71v10h-74.71z"/><path fill="#8c2d04" stroke="#333" stroke-width=".3" d="M645.55 532.14h74.71v10h-74.71z"/><text x="129.74" y="515.64" dy=".71em" font-size="13.5" fill="#111">No data</text><text x="193.48" y="515.64" dy=".71em" font-size="13.5" fill="#111">0</text><text x="247.2" y="515.64" dy=".71em" font-size="13.5" fill="#111">1 million</text><text x="321.92" y="515.64" dy=".71em" font-size="13.5" fill="#111">5 million</text><text x="392.85" y="515.64" dy=".71em" font-size="13.5" fill="#111">10 million</text><text x="467.56" y="515.64" dy=".71em" font-size="13.5" fill="#111">50 million</text><text x="538.5" y="515.64" dy=".71em" font-size="13.5" fill="#111">100 million</text><text x="613.21" y="515.64" dy=".71em" font-size="13.5" fill="#111">500 million</text><text x="697.31" y="515.64" dy=".71em" font-size="13.5" fill="#111">1 billion</text></g></g></g><g class="SourcesFooter" style="fill:#777"><g style="fill:#777"><text font-size="12.6" x="15" y="582.7"><tspan x="15" y="582.73">Source: Calculated by Our World in Data based on the World Bank</tspan></text></g><text font-size="12.6" x="627.9" y="582.7"><tspan x="627.86" y="582.73"><a target="_blank" style="fill:#777" href="https://ourworldindata.org/energy">OurWorldInData.org/energy</a> • <a style="fill:#777" class="cclogo" href="http://creativecommons.org/licenses/by/4.0/deed.en_US" target="_blank">CC BY</a></tspan></text></g></svg>