<svg xmlns="http://www.w3.org/2000/svg" version="1.1" style="font-family:Lato,'Helvetica Neue',Helvetica,Arial,sans-serif;font-size:18px;background-color:#fff;text-rendering:geometricPrecision;-webkit-font-smoothing:antialiased" width="850" height="600" viewBox="0 0 850 600"><g class="HeaderView"><g transform="matrix(.29 0 0 .29 774 15)"><svg className="owidLog" width="210" height="120" viewBox="0 0 210 120" fill="none" xmlns="http://www.w3.org/2000/svg"><g clip-path="url(#a)"><path d="M0 0h210v107.89H0V0z" fill="#002147"/><path d="M40.98 32.25c0 2.36-.38 4.53-1.12 6.51a14.26 14.26 0 0 1-8.1 8.4c-1.9.78-4.02 1.17-6.34 1.17a16.6 16.6 0 0 1-6.33-1.17 14.31 14.31 0 0 1-8.08-8.4 18.29 18.29 0 0 1-1.12-6.51c0-2.36.38-4.53 1.12-6.5.75-1.97 1.8-3.67 3.17-5.1a14.32 14.32 0 0 1 4.9-3.34c1.92-.8 4.03-1.19 6.34-1.19 2.32 0 4.43.4 6.34 1.19 1.92.8 3.56 1.9 4.93 3.34a14.87 14.87 0 0 1 3.17 5.1 18.1 18.1 0 0 1 1.12 6.5zm-4.38 0c0-1.94-.26-3.68-.8-5.22a10.91 10.91 0 0 0-2.24-3.89 9.68 9.68 0 0 0-3.52-2.46 11.95 11.95 0 0 0-4.62-.86c-1.68 0-3.21.28-4.6.86a9.88 9.88 0 0 0-3.54 2.46 10.91 10.91 0 0 0-2.24 3.9c-.53 1.53-.8 3.27-.8 5.2 0 1.94.27 3.68.8 5.22a11.17 11.17 0 0 0 2.24 3.9 10.01 10.01 0 0 0 3.55 2.44c1.38.56 2.9.83 4.6.83s3.24-.27 4.61-.83a9.8 9.8 0 0 0 3.52-2.44 11.17 11.17 0 0 0 2.25-3.9c.53-1.54.8-3.28.8-5.21zm26.22-6.54V48H60.5c-.56 0-.9-.27-1.05-.81l-.31-2.4a12.45 12.45 0 0 1-3.26 2.6c-1.2.64-2.58.96-4.13.96-1.22 0-2.3-.2-3.24-.6a6.52 6.52 0 0 1-2.33-1.7 7.37 7.37 0 0 1-1.43-2.67c-.3-1.04-.46-2.2-.46-3.45V25.7h3.91v14.22c0 1.68.38 2.99 1.15 3.91.77.93 1.96 1.39 3.54 1.39 1.16 0 2.24-.27 3.23-.82a10.42 10.42 0 0 0 2.8-2.28V25.7h3.91zm8.61 4.47a9.94 9.94 0 0 1 2.6-3.56 5.64 5.64 0 0 1 3.76-1.3c.47 0 .92.05 1.34.15.44.1.83.27 1.17.49l-.3 2.92c-.09.37-.3.55-.66.55-.2 0-.5-.04-.9-.13a6.21 6.21 0 0 0-3.24.18 4.23 4.23 0 0 0-1.47.92c-.42.4-.81.9-1.17 1.5-.33.58-.64 1.26-.92 2.02V48H67.7V25.71h2.25c.42 0 .72.08.88.25.16.16.27.44.33.83l.26 3.39zm61.16-13.7L122.75 48h-3.82l-7.99-24.05a21.95 21.95 0 0 1-.42-1.58 38.36 38.36 0 0 1-.44 1.58L102.05 48h-3.83L88.4 16.47h3.54c.38 0 .7.1.95.29.26.2.43.43.5.73l6.52 21.9.28 1.28.29 1.46.3-1.46.38-1.27 7.41-21.91c.1-.25.26-.48.51-.69.27-.22.58-.33.95-.33h1.23c.38 0 .69.1.92.29a1.77 1.77 0 0 1 .53.73l7.4 21.9a28.4 28.4 0 0 1 .68 2.62 29.52 29.52 0 0 1 .52-2.61l6.54-21.91a1.31 1.31 0 0 1 .48-.7c.27-.21.58-.32.95-.32h3.32zm9.35 8.88c1.63 0 3.1.27 4.4.82a9.43 9.43 0 0 1 5.46 5.94c.5 1.4.74 2.98.74 4.73 0 1.76-.25 3.34-.74 4.75a9.43 9.43 0 0 1-5.46 5.92c-1.3.52-2.77.79-4.4.79-1.64 0-3.12-.27-4.44-.8a9.42 9.42 0 0 1-3.35-2.3c-.92-1-1.63-2.2-2.13-3.61-.49-1.41-.73-3-.73-4.75s.24-3.33.73-4.73c.5-1.43 1.2-2.64 2.13-3.63a9.4 9.4 0 0 1 3.35-2.31c1.32-.55 2.8-.82 4.44-.82zm0 19.89c2.2 0 3.84-.73 4.93-2.2 1.08-1.48 1.63-3.54 1.63-6.18 0-2.66-.55-4.72-1.63-6.2-1.09-1.49-2.73-2.23-4.93-2.23-1.12 0-2.09.2-2.93.57a5.71 5.71 0 0 0-2.06 1.65 7.5 7.5 0 0 0-1.24 2.67c-.26 1.04-.4 2.22-.4 3.54 0 2.64.55 4.7 1.64 6.18 1.1 1.47 2.76 2.2 4.99 2.2zm17.97-15.07a9.94 9.94 0 0 1 2.6-3.56 5.64 5.64 0 0 1 3.76-1.3c.47 0 .91.05 1.34.15.44.1.83.27 1.16.49l-.28 2.92c-.09.37-.31.55-.66.55-.2 0-.5-.04-.9-.13a6.2 6.2 0 0 0-3.24.18 4.23 4.23 0 0 0-1.47.92c-.43.4-.82.9-1.17 1.5a13.1 13.1 0 0 0-.92 2.02V48h-3.94V25.71h2.24c.43 0 .72.08.88.25.17.16.28.44.33.83l.27 3.39zm15.04-14.59V48h-3.92V15.6h3.92zm19.55 15.43a6.22 6.22 0 0 0-2.38-2.05 6.7 6.7 0 0 0-2.86-.6c-2.07 0-3.66.75-4.77 2.23-1.12 1.48-1.68 3.6-1.68 6.33 0 1.46.13 2.7.38 3.74a7.29 7.29 0 0 0 1.1 2.56 4.35 4.35 0 0 0 1.78 1.45c.7.3 1.5.46 2.4.46 1.29 0 2.41-.3 3.36-.88a9.6 9.6 0 0 0 2.67-2.49V31.02zm3.91-15.43V48h-2.33c-.56 0-.9-.27-1.06-.81l-.35-2.71a12.13 12.13 0 0 1-3.25 2.77 8.28 8.28 0 0 1-4.23 1.06 7.31 7.31 0 0 1-6.14-2.9c-.73-.96-1.3-2.15-1.69-3.57a18.35 18.35 0 0 1 .07-9.48 11.29 11.29 0 0 1 1.89-3.7 8.7 8.7 0 0 1 7.06-3.34 7.96 7.96 0 0 1 6.12 2.62V15.59h3.91zM46.61 70.71V93H42.7V70.71h3.91zm.84-7c0 .39-.08.75-.24 1.09a2.81 2.81 0 0 1-1.52 1.47 2.67 2.67 0 0 1-2.16 0 2.9 2.9 0 0 1-1.45-1.47 2.67 2.67 0 0 1 0-2.16c.15-.35.35-.65.6-.9.25-.27.53-.47.85-.62a2.67 2.67 0 0 1 2.16 0c.35.15.65.35.9.62.27.25.47.55.62.9.16.34.24.7.24 1.08zm7.97 10.24c.49-.54 1-1.04 1.54-1.48a9.85 9.85 0 0 1 3.66-1.84 8.96 8.96 0 0 1 5.43.35c.94.4 1.72.97 2.33 1.71a7.36 7.36 0 0 1 1.43 2.67c.32 1.04.49 2.19.49 3.45V93h-3.94V78.81c0-1.69-.4-3-1.17-3.92-.76-.93-1.93-1.4-3.5-1.4a6.6 6.6 0 0 0-3.25.83c-1 .56-1.92 1.31-2.77 2.27V93h-3.94V70.71h2.35c.56 0 .9.28 1.04.82l.3 2.42zm57.7 3.3c0 2.36-.37 4.5-1.11 6.44a14.3 14.3 0 0 1-3.17 4.98 14.1 14.1 0 0 1-4.93 3.2c-1.9.76-4.02 1.13-6.33 1.13H85.8V61.47h11.77c2.31 0 4.42.39 6.33 1.15a13.8 13.8 0 0 1 8.1 8.18 17.75 17.75 0 0 1 1.12 6.45zm-4.37 0c0-1.94-.26-3.67-.8-5.2a10.94 10.94 0 0 0-2.23-3.87 9.57 9.57 0 0 0-3.53-2.42 12.23 12.23 0 0 0-4.61-.83h-7.5v24.62h7.5c1.7 0 3.24-.28 4.61-.84a9.7 9.7 0 0 0 3.53-2.4 10.94 10.94 0 0 0 2.24-3.87c.53-1.53.8-3.26.8-5.2zm19.8 5.72c-1.8.06-3.34.2-4.62.44-1.26.22-2.3.51-3.1.88-.8.36-1.37.8-1.74 1.3-.35.5-.53 1.05-.53 1.67 0 .58.1 1.1.3 1.52a3 3 0 0 0 .76 1.05c.34.27.73.46 1.17.6a6.13 6.13 0 0 0 1.45.17 7.28 7.28 0 0 0 3.5-.81 11.95 11.95 0 0 0 2.82-2.2v-4.62zm-12.65-9.11a12.73 12.73 0 0 1 3.98-2.66c1.43-.59 3-.88 4.73-.88 1.25 0 2.36.2 3.33.61a6.81 6.81 0 0 1 3.94 4.38c.33 1.04.5 2.19.5 3.43V93h-1.74a1.8 1.8 0 0 1-.88-.18c-.2-.13-.36-.38-.48-.74l-.44-2.12-1.72 1.46a9.48 9.48 0 0 1-3.74 1.7c-.69.15-1.46.23-2.3.23-.87 0-1.69-.12-2.45-.35a5.34 5.34 0 0 1-3.34-2.93 6.64 6.64 0 0 1-.49-2.64c0-.88.25-1.72.73-2.53a6.33 6.33 0 0 1 2.35-2.17c1.09-.63 2.5-1.15 4.25-1.54 1.75-.41 3.89-.65 6.42-.7v-1.75c0-1.73-.37-3.03-1.12-3.91-.75-.9-1.84-1.34-3.28-1.34-.97 0-1.78.12-2.44.37-.64.23-1.2.5-1.7.81l-1.23.82c-.33.23-.67.35-1 .35-.27 0-.5-.07-.69-.2a2.1 2.1 0 0 1-.48-.53l-.7-1.25zm27.67 19.5c-1.76 0-3.12-.5-4.07-1.48-.94-.98-1.41-2.4-1.41-4.25V74h-2.68a.9.9 0 0 1-.6-.2c-.16-.14-.24-.36-.24-.66v-1.56l3.65-.46.9-6.89a.9.9 0 0 1 .29-.52.88.88 0 0 1 .62-.22H142v7.67h6.44V74H142v13.38c0 .94.22 1.63.68 2.09.45.45 1.04.68 1.76.68a3.21 3.21 0 0 0 1.85-.53l.55-.35c.16-.12.3-.18.41-.18.2 0 .4.13.55.38l1.15 1.87a7.45 7.45 0 0 1-2.44 1.5 8.53 8.53 0 0 1-2.95.52zm19.68-10.4c-1.8.07-3.34.21-4.62.45-1.26.22-2.3.51-3.1.88-.8.36-1.37.8-1.74 1.3-.35.5-.53 1.05-.53 1.67 0 .58.1 1.1.3 1.52a2.9 2.9 0 0 0 .76 1.05c.34.27.73.46 1.17.6a6.13 6.13 0 0 0 1.45.17 7.3 7.3 0 0 0 3.5-.81 12.04 12.04 0 0 0 2.82-2.2v-4.62zm-12.65-9.1a12.72 12.72 0 0 1 3.99-2.66c1.42-.59 3-.88 4.72-.88 1.25 0 2.36.2 3.33.61a6.81 6.81 0 0 1 3.94 4.38c.33 1.04.5 2.19.5 3.43V93h-1.74a1.8 1.8 0 0 1-.88-.18c-.2-.13-.36-.38-.48-.74l-.44-2.12-1.72 1.46a9.48 9.48 0 0 1-3.74 1.7c-.69.15-1.46.23-2.3.23-.87 0-1.69-.12-2.45-.35a5.33 5.33 0 0 1-3.34-2.93 6.62 6.62 0 0 1-.49-2.64c0-.88.25-1.72.73-2.53a6.33 6.33 0 0 1 2.35-2.17c1.09-.63 2.5-1.15 4.25-1.54a31.2 31.2 0 0 1 6.42-.7v-1.75c0-1.73-.37-3.03-1.12-3.91-.75-.9-1.84-1.34-3.28-1.34-.97 0-1.78.12-2.44.37-.64.23-1.2.5-1.7.81l-1.22.82c-.34.23-.68.35-1.02.35-.26 0-.49-.07-.68-.2a1.88 1.88 0 0 1-.48-.53l-.7-1.25zM40.98 32.25c0 2.36-.38 4.53-1.12 6.51a14.26 14.26 0 0 1-8.1 8.4c-1.9.78-4.02 1.17-6.34 1.17a16.6 16.6 0 0 1-6.33-1.17 14.31 14.31 0 0 1-8.08-8.4 18.29 18.29 0 0 1-1.12-6.51c0-2.36.38-4.53 1.12-6.5.75-1.97 1.8-3.67 3.17-5.1a14.32 14.32 0 0 1 4.9-3.34c1.92-.8 4.03-1.19 6.34-1.19 2.32 0 4.43.4 6.34 1.19 1.92.8 3.56 1.9 4.93 3.34a14.87 14.87 0 0 1 3.17 5.1 18.1 18.1 0 0 1 1.12 6.5zm-4.38 0c0-1.94-.26-3.68-.8-5.22a10.91 10.91 0 0 0-2.24-3.89 9.68 9.68 0 0 0-3.52-2.46 11.95 11.95 0 0 0-4.62-.86c-1.68 0-3.21.28-4.6.86a9.88 9.88 0 0 0-3.54 2.46 10.91 10.91 0 0 0-2.24 3.9c-.53 1.53-.8 3.27-.8 5.2 0 1.94.27 3.68.8 5.22a11.17 11.17 0 0 0 2.24 3.9 10.01 10.01 0 0 0 3.55 2.44c1.38.56 2.9.83 4.6.83s3.24-.27 4.61-.83a9.8 9.8 0 0 0 3.52-2.44 11.17 11.17 0 0 0 2.25-3.9c.53-1.54.8-3.28.8-5.21zm26.22-6.54V48H60.5c-.56 0-.9-.27-1.05-.81l-.31-2.4a12.45 12.45 0 0 1-3.26 2.6c-1.2.64-2.58.96-4.13.96-1.22 0-2.3-.2-3.24-.6a6.52 6.52 0 0 1-2.33-1.7 7.37 7.37 0 0 1-1.43-2.67c-.3-1.04-.46-2.2-.46-3.45V25.7h3.91v14.22c0 1.68.38 2.99 1.15 3.91.77.93 1.96 1.39 3.54 1.39 1.16 0 2.24-.27 3.23-.82a10.42 10.42 0 0 0 2.8-2.28V25.7h3.91zm8.61 4.47a9.94 9.94 0 0 1 2.6-3.56 5.64 5.64 0 0 1 3.76-1.3c.47 0 .92.05 1.34.15.44.1.83.27 1.17.49l-.3 2.92c-.09.37-.3.55-.66.55-.2 0-.5-.04-.9-.13a6.21 6.21 0 0 0-3.24.18 4.23 4.23 0 0 0-1.47.92c-.42.4-.81.9-1.17 1.5-.33.58-.64 1.26-.92 2.02V48H67.7V25.71h2.25c.42 0 .72.08.88.25.16.16.27.44.33.83l.26 3.39zm61.16-13.7L122.75 48h-3.82l-7.99-24.05a21.95 21.95 0 0 1-.42-1.58 38.36 38.36 0 0 1-.44 1.58L102.05 48h-3.83L88.4 16.47h3.54c.38 0 .7.1.95.29.26.2.43.43.5.73l6.52 21.9.28 1.28.29 1.46.3-1.46.38-1.27 7.41-21.91c.1-.25.26-.48.51-.69.27-.22.58-.33.95-.33h1.23c.38 0 .69.1.92.29a1.77 1.77 0 0 1 .53.73l7.4 21.9a28.4 28.4 0 0 1 .68 2.62 29.52 29.52 0 0 1 .52-2.61l6.54-21.91a1.31 1.31 0 0 1 .48-.7c.27-.21.58-.32.95-.32h3.32zm9.35 8.88c1.63 0 3.1.27 4.4.82a9.43 9.43 0 0 1 5.46 5.94c.5 1.4.74 2.98.74 4.73 0 1.76-.25 3.34-.74 4.75a9.43 9.43 0 0 1-5.46 5.92c-1.3.52-2.77.79-4.4.79-1.64 0-3.12-.27-4.44-.8a9.42 9.42 0 0 1-3.35-2.3c-.92-1-1.63-2.2-2.13-3.61-.49-1.41-.73-3-.73-4.75s.24-3.33.73-4.73c.5-1.43 1.2-2.64 2.13-3.63a9.4 9.4 0 0 1 3.35-2.31c1.32-.55 2.8-.82 4.44-.82zm0 19.89c2.2 0 3.84-.73 4.93-2.2 1.08-1.48 1.63-3.54 1.63-6.18 0-2.66-.55-4.72-1.63-6.2-1.09-1.49-2.73-2.23-4.93-2.23-1.12 0-2.09.2-2.93.57a5.71 5.71 0 0 0-2.06 1.65 7.5 7.5 0 0 0-1.24 2.67c-.26 1.04-.4 2.22-.4 3.54 0 2.64.55 4.7 1.64 6.18 1.1 1.47 2.76 2.2 4.99 2.2zm17.97-15.07a9.94 9.94 0 0 1 2.6-3.56 5.64 5.64 0 0 1 3.76-1.3c.47 0 .91.05 1.34.15.44.1.83.27 1.16.49l-.28 2.92c-.09.37-.31.55-.66.55-.2 0-.5-.04-.9-.13a6.2 6.2 0 0 0-3.24.18 4.23 4.23 0 0 0-1.47.92c-.43.4-.82.9-1.17 1.5a13.1 13.1 0 0 0-.92 2.02V48h-3.94V25.71h2.24c.43 0 .72.08.88.25.17.16.28.44.33.83l.27 3.39zm15.04-14.59V48h-3.92V15.6h3.92zm19.55 15.43a6.22 6.22 0 0 0-2.38-2.05 6.7 6.7 0 0 0-2.86-.6c-2.07 0-3.66.75-4.77 2.23-1.12 1.48-1.68 3.6-1.68 6.33 0 1.46.13 2.7.38 3.74a7.29 7.29 0 0 0 1.1 2.56 4.35 4.35 0 0 0 1.78 1.45c.7.3 1.5.46 2.4.46 1.29 0 2.41-.3 3.36-.88a9.6 9.6 0 0 0 2.67-2.49V31.02zm3.91-15.43V48h-2.33c-.56 0-.9-.27-1.06-.81l-.35-2.71a12.13 12.13 0 0 1-3.25 2.77 8.28 8.28 0 0 1-4.23 1.06 7.31 7.31 0 0 1-6.14-2.9c-.73-.96-1.3-2.15-1.69-3.57a18.35 18.35 0 0 1 .07-9.48 11.29 11.29 0 0 1 1.89-3.7 8.7 8.7 0 0 1 7.06-3.34 7.96 7.96 0 0 1 6.12 2.62V15.59h3.91zM46.61 70.71V93H42.7V70.71h3.91zm.84-7c0 .39-.08.75-.24 1.09a2.81 2.81 0 0 1-1.52 1.47 2.67 2.67 0 0 1-2.16 0 2.9 2.9 0 0 1-1.45-1.47 2.67 2.67 0 0 1 0-2.16c.15-.35.35-.65.6-.9.25-.27.53-.47.85-.62a2.67 2.67 0 0 1 2.16 0c.35.15.65.35.9.62.27.25.47.55.62.9.16.34.24.7.24 1.08zm7.97 10.24c.49-.54 1-1.04 1.54-1.48a9.85 9.85 0 0 1 3.66-1.84 8.96 8.96 0 0 1 5.43.35c.94.4 1.72.97 2.33 1.71a7.36 7.36 0 0 1 1.43 2.67c.32 1.04.49 2.19.49 3.45V93h-3.94V78.81c0-1.69-.4-3-1.17-3.92-.76-.93-1.93-1.4-3.5-1.4a6.6 6.6 0 0 0-3.25.83c-1 .56-1.92 1.31-2.77 2.27V93h-3.94V70.71h2.35c.56 0 .9.28 1.04.82l.3 2.42zm57.7 3.3c0 2.36-.37 4.5-1.11 6.44a14.3 14.3 0 0 1-3.17 4.98 14.1 14.1 0 0 1-4.93 3.2c-1.9.76-4.02 1.13-6.33 1.13H85.8V61.47h11.77c2.31 0 4.42.39 6.33 1.15a13.8 13.8 0 0 1 8.1 8.18 17.75 17.75 0 0 1 1.12 6.45zm-4.37 0c0-1.94-.26-3.67-.8-5.2a10.94 10.94 0 0 0-2.23-3.87 9.57 9.57 0 0 0-3.53-2.42 12.23 12.23 0 0 0-4.61-.83h-7.5v24.62h7.5c1.7 0 3.24-.28 4.61-.84a9.7 9.7 0 0 0 3.53-2.4 10.94 10.94 0 0 0 2.24-3.87c.53-1.53.8-3.26.8-5.2zm19.8 5.72c-1.8.06-3.34.2-4.62.44-1.26.22-2.3.51-3.1.88-.8.36-1.37.8-1.74 1.3-.35.5-.53 1.05-.53 1.67 0 .58.1 1.1.3 1.52a3 3 0 0 0 .76 1.05c.34.27.73.46 1.17.6a6.13 6.13 0 0 0 1.45.17 7.28 7.28 0 0 0 3.5-.81 11.95 11.95 0 0 0 2.82-2.2v-4.62zm-12.65-9.11a12.73 12.73 0 0 1 3.98-2.66c1.43-.59 3-.88 4.73-.88 1.25 0 2.36.2 3.33.61a6.81 6.81 0 0 1 3.94 4.38c.33 1.04.5 2.19.5 3.43V93h-1.74a1.8 1.8 0 0 1-.88-.18c-.2-.13-.36-.38-.48-.74l-.44-2.12-1.72 1.46a9.48 9.48 0 0 1-3.74 1.7c-.69.15-1.46.23-2.3.23-.87 0-1.69-.12-2.45-.35a5.34 5.34 0 0 1-3.34-2.93 6.64 6.64 0 0 1-.49-2.64c0-.88.25-1.72.73-2.53a6.33 6.33 0 0 1 2.35-2.17c1.09-.63 2.5-1.15 4.25-1.54 1.75-.41 3.89-.65 6.42-.7v-1.75c0-1.73-.37-3.03-1.12-3.91-.75-.9-1.84-1.34-3.28-1.34-.97 0-1.78.12-2.44.37-.64.23-1.2.5-1.7.81l-1.23.82c-.33.23-.67.35-1 .35-.27 0-.5-.07-.69-.2a2.1 2.1 0 0 1-.48-.53l-.7-1.25zm27.67 19.5c-1.76 0-3.12-.5-4.07-1.48-.94-.98-1.41-2.4-1.41-4.25V74h-2.68a.9.9 0 0 1-.6-.2c-.16-.14-.24-.36-.24-.66v-1.56l3.65-.46.9-6.89a.9.9 0 0 1 .29-.52.88.88 0 0 1 .62-.22H142v7.67h6.44V74H142v13.38c0 .94.22 1.63.68 2.09.45.45 1.04.68 1.76.68a3.21 3.21 0 0 0 1.85-.53l.55-.35c.16-.12.3-.18.41-.18.2 0 .4.13.55.38l1.15 1.87a7.45 7.45 0 0 1-2.44 1.5 8.53 8.53 0 0 1-2.95.52zm19.68-10.4c-1.8.07-3.34.21-4.62.45-1.26.22-2.3.51-3.1.88-.8.36-1.37.8-1.74 1.3-.35.5-.53 1.05-.53 1.67 0 .58.1 1.1.3 1.52a2.9 2.9 0 0 0 .76 1.05c.34.27.73.46 1.17.6a6.13 6.13 0 0 0 1.45.17 7.3 7.3 0 0 0 3.5-.81 12.04 12.04 0 0 0 2.82-2.2v-4.62zm-12.65-9.1a12.72 12.72 0 0 1 3.99-2.66c1.42-.59 3-.88 4.72-.88 1.25 0 2.36.2 3.33.61a6.81 6.81 0 0 1 3.94 4.38c.33 1.04.5 2.19.5 3.43V93h-1.74a1.8 1.8 0 0 1-.88-.18c-.2-.13-.36-.38-.48-.74l-.44-2.12-1.72 1.46a9.48 9.48 0 0 1-3.74 1.7c-.69.15-1.46.23-2.3.23-.87 0-1.69-.12-2.45-.35a5.33 5.33 0 0 1-3.34-2.93 6.62 6.62 0 0 1-.49-2.64c0-.88.25-1.72.73-2.53a6.33 6.33 0 0 1 2.35-2.17c1.09-.63 2.5-1.15 4.25-1.54a31.2 31.2 0 0 1 6.42-.7v-1.75c0-1.73-.37-3.03-1.12-3.91-.75-.9-1.84-1.34-3.28-1.34-.97 0-1.78.12-2.44.37-.64.23-1.2.5-1.7.81l-1.22.82c-.34.23-.68.35-1.02.35-.26 0-.49-.07-.68-.2a1.88 1.88 0 0 1-.48-.53l-.7-1.25zM40.98 32.25c0 2.36-.38 4.53-1.12 6.51a14.26 14.26 0 0 1-8.1 8.4c-1.9.78-4.02 1.17-6.34 1.17a16.6 16.6 0 0 1-6.33-1.17 14.31 14.31 0 0 1-8.08-8.4 18.29 18.29 0 0 1-1.12-6.51c0-2.36.38-4.53 1.12-6.5.75-1.97 1.8-3.67 3.17-5.1a14.32 14.32 0 0 1 4.9-3.34c1.92-.8 4.03-1.19 6.34-1.19 2.32 0 4.43.4 6.34 1.19 1.92.8 3.56 1.9 4.93 3.34a14.87 14.87 0 0 1 3.17 5.1 18.1 18.1 0 0 1 1.12 6.5zm-4.38 0c0-1.94-.26-3.68-.8-5.22a10.91 10.91 0 0 0-2.24-3.89 9.68 9.68 0 0 0-3.52-2.46 11.95 11.95 0 0 0-4.62-.86c-1.68 0-3.21.28-4.6.86a9.88 9.88 0 0 0-3.54 2.46 10.91 10.91 0 0 0-2.24 3.9c-.53 1.53-.8 3.27-.8 5.2 0 1.94.27 3.68.8 5.22a11.17 11.17 0 0 0 2.24 3.9 10.01 10.01 0 0 0 3.55 2.44c1.38.56 2.9.83 4.6.83s3.24-.27 4.61-.83a9.8 9.8 0 0 0 3.52-2.44 11.17 11.17 0 0 0 2.25-3.9c.53-1.54.8-3.28.8-5.21zm26.22-6.54V48H60.5c-.56 0-.9-.27-1.05-.81l-.31-2.4a12.45 12.45 0 0 1-3.26 2.6c-1.2.64-2.58.96-4.13.96-1.22 0-2.3-.2-3.24-.6a6.52 6.52 0 0 1-2.33-1.7 7.37 7.37 0 0 1-1.43-2.67c-.3-1.04-.46-2.2-.46-3.45V25.7h3.91v14.22c0 1.68.38 2.99 1.15 3.91.77.93 1.96 1.39 3.54 1.39 1.16 0 2.24-.27 3.23-.82a10.42 10.42 0 0 0 2.8-2.28V25.7h3.91zm8.61 4.47a9.94 9.94 0 0 1 2.6-3.56 5.64 5.64 0 0 1 3.76-1.3c.47 0 .92.05 1.34.15.44.1.83.27 1.17.49l-.3 2.92c-.09.37-.3.55-.66.55-.2 0-.5-.04-.9-.13a6.21 6.21 0 0 0-3.24.18 4.23 4.23 0 0 0-1.47.92c-.42.4-.81.9-1.17 1.5-.33.58-.64 1.26-.92 2.02V48H67.7V25.71h2.25c.42 0 .72.08.88.25.16.16.27.44.33.83l.26 3.39zm61.16-13.7L122.75 48h-3.82l-7.99-24.05a21.95 21.95 0 0 1-.42-1.58 38.36 38.36 0 0 1-.44 1.58L102.05 48h-3.83L88.4 16.47h3.54c.38 0 .7.1.95.29.26.2.43.43.5.73l6.52 21.9.28 1.28.29 1.46.3-1.46.38-1.27 7.41-21.91c.1-.25.26-.48.51-.69.27-.22.58-.33.95-.33h1.23c.38 0 .69.1.92.29a1.77 1.77 0 0 1 .53.73l7.4 21.9a28.4 28.4 0 0 1 .68 2.62 29.52 29.52 0 0 1 .52-2.61l6.54-21.91a1.31 1.31 0 0 1 .48-.7c.27-.21.58-.32.95-.32h3.32zm9.35 8.88c1.63 0 3.1.27 4.4.82a9.43 9.43 0 0 1 5.46 5.94c.5 1.4.74 2.98.74 4.73 0 1.76-.25 3.34-.74 4.75a9.43 9.43 0 0 1-5.46 5.92c-1.3.52-2.77.79-4.4.79-1.64 0-3.12-.27-4.44-.8a9.42 9.42 0 0 1-3.35-2.3c-.92-1-1.63-2.2-2.13-3.61-.49-1.41-.73-3-.73-4.75s.24-3.33.73-4.73c.5-1.43 1.2-2.64 2.13-3.63a9.4 9.4 0 0 1 3.35-2.31c1.32-.55 2.8-.82 4.44-.82zm0 19.89c2.2 0 3.84-.73 4.93-2.2 1.08-1.48 1.63-3.54 1.63-6.18 0-2.66-.55-4.72-1.63-6.2-1.09-1.49-2.73-2.23-4.93-2.23-1.12 0-2.09.2-2.93.57a5.71 5.71 0 0 0-2.06 1.65 7.5 7.5 0 0 0-1.24 2.67c-.26 1.04-.4 2.22-.4 3.54 0 2.64.55 4.7 1.64 6.18 1.1 1.47 2.76 2.2 4.99 2.2zm17.97-15.07a9.94 9.94 0 0 1 2.6-3.56 5.64 5.64 0 0 1 3.76-1.3c.47 0 .91.05 1.34.15.44.1.83.27 1.16.49l-.28 2.92c-.09.37-.31.55-.66.55-.2 0-.5-.04-.9-.13a6.2 6.2 0 0 0-3.24.18 4.23 4.23 0 0 0-1.47.92c-.43.4-.82.9-1.17 1.5a13.1 13.1 0 0 0-.92 2.02V48h-3.94V25.71h2.24c.43 0 .72.08.88.25.17.16.28.44.33.83l.27 3.39zm15.04-14.59V48h-3.92V15.6h3.92zm19.55 15.43a6.22 6.22 0 0 0-2.38-2.05 6.7 6.7 0 0 0-2.86-.6c-2.07 0-3.66.75-4.77 2.23-1.12 1.48-1.68 3.6-1.68 6.33 0 1.46.13 2.7.38 3.74a7.29 7.29 0 0 0 1.1 2.56 4.35 4.35 0 0 0 1.78 1.45c.7.3 1.5.46 2.4.46 1.29 0 2.41-.3 3.36-.88a9.6 9.6 0 0 0 2.67-2.49V31.02zm3.91-15.43V48h-2.33c-.56 0-.9-.27-1.06-.81l-.35-2.71a12.13 12.13 0 0 1-3.25 2.77 8.28 8.28 0 0 1-4.23 1.06 7.31 7.31 0 0 1-6.14-2.9c-.73-.96-1.3-2.15-1.69-3.57a18.35 18.35 0 0 1 .07-9.48 11.29 11.29 0 0 1 1.89-3.7 8.7 8.7 0 0 1 7.06-3.34 7.96 7.96 0 0 1 6.12 2.62V15.59h3.91zM46.61 70.71V93H42.7V70.71h3.91zm.84-7c0 .39-.08.75-.24 1.09a2.81 2.81 0 0 1-1.52 1.47 2.67 2.67 0 0 1-2.16 0 2.9 2.9 0 0 1-1.45-1.47 2.67 2.67 0 0 1 0-2.16c.15-.35.35-.65.6-.9.25-.27.53-.47.85-.62a2.67 2.67 0 0 1 2.16 0c.35.15.65.35.9.62.27.25.47.55.62.9.16.34.24.7.24 1.08zm7.97 10.24c.49-.54 1-1.04 1.54-1.48a9.85 9.85 0 0 1 3.66-1.84 8.96 8.96 0 0 1 5.43.35c.94.4 1.72.97 2.33 1.71a7.36 7.36 0 0 1 1.43 2.67c.32 1.04.49 2.19.49 3.45V93h-3.94V78.81c0-1.69-.4-3-1.17-3.92-.76-.93-1.93-1.4-3.5-1.4a6.6 6.6 0 0 0-3.25.83c-1 .56-1.92 1.31-2.77 2.27V93h-3.94V70.71h2.35c.56 0 .9.28 1.04.82l.3 2.42zm57.7 3.3c0 2.36-.37 4.5-1.11 6.44a14.3 14.3 0 0 1-3.17 4.98 14.1 14.1 0 0 1-4.93 3.2c-1.9.76-4.02 1.13-6.33 1.13H85.8V61.47h11.77c2.31 0 4.42.39 6.33 1.15a13.8 13.8 0 0 1 8.1 8.18 17.75 17.75 0 0 1 1.12 6.45zm-4.37 0c0-1.94-.26-3.67-.8-5.2a10.94 10.94 0 0 0-2.23-3.87 9.57 9.57 0 0 0-3.53-2.42 12.23 12.23 0 0 0-4.61-.83h-7.5v24.62h7.5c1.7 0 3.24-.28 4.61-.84a9.7 9.7 0 0 0 3.53-2.4 10.94 10.94 0 0 0 2.24-3.87c.53-1.53.8-3.26.8-5.2zm19.8 5.72c-1.8.06-3.34.2-4.62.44-1.26.22-2.3.51-3.1.88-.8.36-1.37.8-1.74 1.3-.35.5-.53 1.05-.53 1.67 0 .58.1 1.1.3 1.52a3 3 0 0 0 .76 1.05c.34.27.73.46 1.17.6a6.13 6.13 0 0 0 1.45.17 7.28 7.28 0 0 0 3.5-.81 11.95 11.95 0 0 0 2.82-2.2v-4.62zm-12.65-9.11a12.73 12.73 0 0 1 3.98-2.66c1.43-.59 3-.88 4.73-.88 1.25 0 2.36.2 3.33.61a6.81 6.81 0 0 1 3.94 4.38c.33 1.04.5 2.19.5 3.43V93h-1.74a1.8 1.8 0 0 1-.88-.18c-.2-.13-.36-.38-.48-.74l-.44-2.12-1.72 1.46a9.48 9.48 0 0 1-3.74 1.7c-.69.15-1.46.23-2.3.23-.87 0-1.69-.12-2.45-.35a5.34 5.34 0 0 1-3.34-2.93 6.64 6.64 0 0 1-.49-2.64c0-.88.25-1.72.73-2.53a6.33 6.33 0 0 1 2.35-2.17c1.09-.63 2.5-1.15 4.25-1.54 1.75-.41 3.89-.65 6.42-.7v-1.75c0-1.73-.37-3.03-1.12-3.91-.75-.9-1.84-1.34-3.28-1.34-.97 0-1.78.12-2.44.37-.64.23-1.2.5-1.7.81l-1.23.82c-.33.23-.67.35-1 .35-.27 0-.5-.07-.69-.2a2.1 2.1 0 0 1-.48-.53l-.7-1.25zm27.67 19.5c-1.76 0-3.12-.5-4.07-1.48-.94-.98-1.41-2.4-1.41-4.25V74h-2.68a.9.9 0 0 1-.6-.2c-.16-.14-.24-.36-.24-.66v-1.56l3.65-.46.9-6.89a.9.9 0 0 1 .29-.52.88.88 0 0 1 .62-.22H142v7.67h6.44V74H142v13.38c0 .94.22 1.63.68 2.09.45.45 1.04.68 1.76.68a3.21 3.21 0 0 0 1.85-.53l.55-.35c.16-.12.3-.18.41-.18.2 0 .4.13.55.38l1.15 1.87a7.45 7.45 0 0 1-2.44 1.5 8.53 8.53 0 0 1-2.95.52zm19.68-10.4c-1.8.07-3.34.21-4.62.45-1.26.22-2.3.51-3.1.88-.8.36-1.37.8-1.74 1.3-.35.5-.53 1.05-.53 1.67 0 .58.1 1.1.3 1.52a2.9 2.9 0 0 0 .76 1.05c.34.27.73.46 1.17.6a6.13 6.13 0 0 0 1.45.17 7.3 7.3 0 0 0 3.5-.81 12.04 12.04 0 0 0 2.82-2.2v-4.62zm-12.65-9.1a12.72 12.72 0 0 1 3.99-2.66c1.42-.59 3-.88 4.72-.88 1.25 0 2.36.2 3.33.61a6.81 6.81 0 0 1 3.94 4.38c.33 1.04.5 2.19.5 3.43V93h-1.74a1.8 1.8 0 0 1-.88-.18c-.2-.13-.36-.38-.48-.74l-.44-2.12-1.72 1.46a9.48 9.48 0 0 1-3.74 1.7c-.69.15-1.46.23-2.3.23-.87 0-1.69-.12-2.45-.35a5.33 5.33 0 0 1-3.34-2.93 6.62 6.62 0 0 1-.49-2.64c0-.88.25-1.72.73-2.53a6.33 6.33 0 0 1 2.35-2.17c1.09-.63 2.5-1.15 4.25-1.54a31.2 31.2 0 0 1 6.42-.7v-1.75c0-1.73-.37-3.03-1.12-3.91-.75-.9-1.84-1.34-3.28-1.34-.97 0-1.78.12-2.44.37-.64.23-1.2.5-1.7.81l-1.22.82c-.34.23-.68.35-1.02.35-.26 0-.49-.07-.68-.2a1.88 1.88 0 0 1-.48-.53l-.7-1.25z" fill="#fff"/><path fill="#D42B21" d="M0 106.79h210V120H0z"/></g><defs><clipPath id="a"><path fill="#fff" d="M0 0h210v120H0z"/></clipPath></defs></svg></g><a href="https://ourworldindata.org/grapher/share-elec-by-source" style="font-family:&quot;Playfair Display&quot;,Georgia,&quot;Times New Roman&quot;,serif" target="_blank" rel="noopener"><text font-size="25.2" x="15" y="36.9" fill="#555"><tspan x="15" y="36.92">Share of electricity production by source, World</tspan></text></a></g><g class="LineChart"><defs><clipPath id="b"><path d="M42.56 56h840v500.14h-840z"/></clipPath></defs><path fill="transparent" d="M15 66h820v480.14H15z"/><g class="DualAxisView"><g class="HorizontalAxis"><path stroke="#999" d="M52.6 524.94v5M693.1 524.94v5M141.5 524.94v5M230.5 524.94v5M319.4 524.94v5M408.4 524.94v5M497.4 524.94v5M586.3 524.94v5"/><text x="52.56" y="546.14" fill="#666" text-anchor="start" font-size="16.2">1985</text><text x="693.08" y="546.14" fill="#666" text-anchor="end" font-size="16.2">2021</text><text x="141.5" y="546.14" fill="#666" text-anchor="middle" font-size="16.2">1990</text><text x="230.5" y="546.14" fill="#666" text-anchor="middle" font-size="16.2">1995</text><text x="319.4" y="546.14" fill="#666" text-anchor="middle" font-size="16.2">2000</text><text x="408.4" y="546.14" fill="#666" text-anchor="middle" font-size="16.2">2005</text><text x="497.4" y="546.14" fill="#666" text-anchor="middle" font-size="16.2">2010</text><text x="586.3" y="546.14" fill="#666" text-anchor="middle" font-size="16.2">2015</text></g><g class="VerticalAxis" text-anchor="end" fill="#666" font-size="16.2"><text x="47.56" y="524.9" dy=".32em">0%</text><text x="47.56" y="469.1" dy=".32em">5%</text><text x="47.56" y="413.4" dy=".32em">10%</text><text x="47.56" y="357.6" dy=".32em">15%</text><text x="47.56" y="301.8" dy=".32em">20%</text><text x="47.56" y="246" dy=".32em">25%</text><text x="47.56" y="190.2" dy=".32em">30%</text><text x="47.56" y="134.4" dy=".32em">35%</text><text x="47.56" y="78.6" dy=".32em">40%</text></g><g class="AxisGridLines horizontalLines"><path stroke="#999" d="M52.56 524.9h640.52"/><path stroke="#ddd" stroke-dasharray="3,2" d="M52.56 469.1h640.52M52.56 413.4h640.52M52.56 357.6h640.52M52.56 301.8h640.52M52.56 246h640.52M52.56 190.2h640.52M52.56 134.4h640.52M52.56 78.6h640.52"/></g></g><g clip-path="url(#b)"><g class="LineLabels" style="cursor:default"><g class="legendMark"><g class="indicator"><path d="M697.08 123.4h27" stroke="#999" stroke-width=".5" fill="none"/></g><text font-size="13.5" font-weight="400" x="728.1" y="128.4" fill="#c15065"><tspan x="728.08" y="128.4">Coal</tspan></text></g><g class="legendMark"><g class="indicator"><path d="M697.08 269.4h27" stroke="#999" stroke-width=".5" fill="none"/></g><text font-size="13.5" font-weight="400" x="728.1" y="274.4" fill="#2c8465"><tspan x="728.08" y="274.39">Gas</tspan></text></g><g class="legendMark"><g class="indicator"><path d="M697.08 357.4h27" stroke="#999" stroke-width=".5" fill="none"/></g><text font-size="13.5" font-weight="400" x="728.1" y="362.4" fill="#be5915"><tspan x="728.08" y="362.39">Hydropower</tspan></text></g><g class="legendMark"><g class="indicator"><path d="M697.08 415.2h27" stroke="#999" stroke-width=".5" fill="none"/></g><text font-size="13.5" font-weight="400" x="728.1" y="420.2" fill="#286bbb"><tspan x="728.08" y="420.19">Nuclear</tspan></text></g><g class="legendMark"><g class="indicator"><path d="M697.08 452h27" stroke="#999" stroke-width=".5" fill="none"/></g><text font-size="13.5" font-weight="400" x="728.1" y="457" fill="#cf0a66"><tspan x="728.08" y="457">Wind</tspan></text></g><g class="legendMark"><g class="indicator"><path d="M697.08 484.5h9v-7.93h18" stroke="#999" stroke-width=".5" fill="none"/></g><text font-size="13.5" font-weight="400" x="728.1" y="481.6" fill="#6d3e91"><tspan x="728.08" y="481.56">Solar</tspan></text></g><g class="legendMark"><g class="indicator"><path d="M697.08 495h18v-2.93h9" stroke="#999" stroke-width=".5" fill="none"/></g><text font-size="13.5" font-weight="400" x="728.1" y="497.1" fill="#883039"><tspan x="728.08" y="497.06">Other renewables</tspan></text></g><g class="legendMark"><g class="indicator"><path d="M697.08 496.7h18v10.87h9" stroke="#999" stroke-width=".5" fill="none"/></g><text font-size="13.5" font-weight="400" x="728.1" y="512.6" fill="#18470f"><tspan x="728.08" y="512.56">Oil</tspan></text></g></g><g class="Lines"><g><path stroke-linecap="round" stroke-linejoin="round" stroke="#ddd" d="m52.6 516 17.8-.5 17.7-.2 17.8.2 17.8-.6 17.8-.9 17.8-.2 17.8-.7 17.8-.2 17.8-.1 17.8-.1 17.8.1 17.8-.6 17.8-.2 17.8-.3h17.7l17.8-.3 17.8-.5 17.8-.3 17.8-.5 17.8-.6 17.8-.4 17.8-.6 17.8-.8 17.8-1.4 17.8-1 17.8-.5 17.8-1.2 17.7-1.1 17.8-1.2 17.8-1.7 17.8.3 17.8-.9 17.8-1 17.8-.9 17.8-1.4 17.8-.7" fill="none" stroke-width="1"/></g><g><path stroke-linecap="round" stroke-linejoin="round" stroke="#ddd" d="m52.6 356.8 17.8-6.7 17.7-6.6 17.8-8 17.8 3.3 17.8-.5 17.8-4.7 17.8.3 17.8-2.4 17.8 1.3 17.8-1.5 17.8-1 17.8 5.9 17.8 1.8 17.8-1.7 17.7 3.6 17.8-2.4L355 341l17.8 9.9 17.8.3 17.8 6.4 17.8 4.1 17.8 10.5 17.8 3.3 17.8.9 17.8 5.4 17.8 10.2 17.8 12.1 17.7 2.3 17.8.6 17.8-.4 17.8 1.3 17.8 2.3 17.8 1.8 17.8-2.5 17.8 3.6 17.8 2.1" fill="none" stroke-width="1"/></g><g><path stroke-linecap="round" stroke-linejoin="round" stroke="#ddd" d="m52.6 399.8 17.8-2.7 17.7 4.3 17.8-2.1 17.8-3.3 17.8 1.6 17.8 4.1 17.8 3.1 17.8 8 17.8-.3 17.8 7.4 17.8 4.3 17.8 2.4 17.8-1.2 17.8 4.8 17.7 5.7 17.8 3.8 17.8 4.2 17.8 2.4 17.8 5.1 17.8 2.6 17.8 8.8 17.8 1.7 17.8 2.4 17.8 3.3 17.8 5.5 17.8-2.9 17.8-3.5 17.7 4.4 17.8 3.6 17.8.7 17.8 4.4 17.8 5 17.8 5.1 17.8 3.5 17.8 1.5 17.8-.8" fill="none" stroke-width="1"/></g><g><path stroke-linecap="round" stroke-linejoin="round" stroke="#ddd" d="M52.6 524.9h53.3l17.8-.2 17.8-.1h17.8l17.8-.1 17.8-.1 17.8-.1h17.8l17.8-.1 17.8-.2 17.8-.3 17.8-.3 17.7-.7 17.8-.5 17.8-.8 17.8-.6 17.8-1.2 17.8-1 17.8-1.4 17.8-1.8 17.8-2.5 17.8-3.2 17.8-2.7 17.8-4.1L533 499l17.7-4.3 17.8-2.5 17.8-5.4 17.8-4.9 17.8-6.6 17.8-3.5 17.8-5.5 17.8-7.6 17.8-6.7" fill="none" stroke-width="1"/></g><g><path stroke-linecap="round" stroke-linejoin="round" stroke="#ddd" d="M52.6 524.9H319.4l17.8-.1H390.6l17.8-.1 17.8-.1 17.8-.1 17.8-.3 17.8-.4 17.8-.6 17.8-1.5L533 520l17.7-1.7 17.8-2.5 17.8-2.6 17.8-2.9 17.8-4.7 17.8-4.8 17.8-4.9 17.8-6.1 17.8-5.3" fill="none" stroke-width="1"/></g><g><path stroke-linecap="round" stroke-linejoin="round" stroke="#ddd" d="m52.6 301.4 17.8 3.6 17.7 7.2 17.8 2.5 17.8 10.4 17.8-1.5 17.8-.3 17.8 1.9 17.8-7.6 17.8 3.9 17.8-3.6 17.8 3.5 17.8 1.3 17.8 3.8 17.8 4 17.7 4.7 17.8 7.6 17.8 3 17.8 6.3 17.8-4.3 17.8 1.2h17.8l17.8 5 17.8-6.6 17.8-1.1 17.8 1.3 17.8 2.3 17.8-3.1 17.7-2.1 17.8-.2 17.8 2.3 17.8-1.5 17.8 2.6 17.8 2.1 17.8.3 17.8-5.7 17.8 12.8" fill="none" stroke-width="1"/></g><g><path stroke-linecap="round" stroke-linejoin="round" stroke="#ddd" d="m52.6 363.9 17.8 4 17.7-1.6 17.8 4.3 17.8-11.1 17.8-1.5 17.8 1.2 17.8.3 17.8.4 17.8-1.2 17.8-3.6 17.8-.1 17.8-9.4 17.8-5.8 17.8-9.2 17.7-4.4 17.8-9.7 17.8-6.8 17.8-2.7 17.8-6.2 17.8-3.2 17.8-4.2 17.8-7.8 17.8-3.5 17.8-3 17.8-6.9 17.8 4.7 17.8-8.4 17.7 12.5 17.8-1 17.8-13.3 17.8-4 17.8 3 17.8-.4 17.8-5.4 17.8.6 17.8 8.9" fill="none" stroke-width="1"/></g><g><path stroke-linecap="round" stroke-linejoin="round" stroke="#ddd" d="m52.6 101.8 17.8 2.3 17.7-3.6 17.8 3.6 17.8 1.9 17.8 2.9 17.8.1 17.8-4.5 17.8 2 17.8-3.8 17.8 2.2 17.8-6.8 17.8.9 17.8 2.7 17.8 2.9 17.7-8.8 17.8.7L355 94l17.8-14.6 17.8 6.1 17.8-5.2 17.8-7.1L444 66l17.8 7.6 17.8 4.8 17.8.1 17.8-8.3 17.8 9.4 17.7-10.3 17.8 3.2 17.8 20.4 17.8 10.2 17.8-.9 17.8.4 17.8 15.3 17.8 15.3 17.8-9.8" fill="none" stroke-width="1"/></g><g><path fill="none" stroke-linecap="butt" stroke-linejoin="round" stroke="#fff" stroke-width="2.5" d="m52.6 516 17.8-.5 17.7-.2 17.8.2 17.8-.6 17.8-.9 17.8-.2 17.8-.7 17.8-.2 17.8-.1 17.8-.1 17.8.1 17.8-.6 17.8-.2 17.8-.3h17.7l17.8-.3 17.8-.5 17.8-.3 17.8-.5 17.8-.6 17.8-.4 17.8-.6 17.8-.8 17.8-1.4 17.8-1 17.8-.5 17.8-1.2 17.7-1.1 17.8-1.2 17.8-1.7 17.8.3 17.8-.9 17.8-1 17.8-.9 17.8-1.4 17.8-.7"/><path stroke-linejoin="round" stroke-width="1.5" stroke="#883039" fill="none" stroke-linecap="butt" d="m52.6 516 17.8-.5 17.7-.2 17.8.2 17.8-.6 17.8-.9 17.8-.2 17.8-.7 17.8-.2 17.8-.1 17.8-.1 17.8.1 17.8-.6 17.8-.2 17.8-.3h17.7l17.8-.3 17.8-.5 17.8-.3 17.8-.5 17.8-.6 17.8-.4 17.8-.6 17.8-.8 17.8-1.4 17.8-1 17.8-.5 17.8-1.2 17.7-1.1 17.8-1.2 17.8-1.7 17.8.3 17.8-.9 17.8-1 17.8-.9 17.8-1.4 17.8-.7"/><g fill="#883039"><circle cx="52.6" cy="516" r="1.8"/><circle cx="70.4" cy="515.5" r="1.8"/><circle cx="88.1" cy="515.3" r="1.8"/><circle cx="105.9" cy="515.5" r="1.8"/><circle cx="123.7" cy="514.9" r="1.8"/><circle cx="141.5" cy="514" r="1.8"/><circle cx="159.3" cy="513.8" r="1.8"/><circle cx="177.1" cy="513.1" r="1.8"/><circle cx="194.9" cy="512.9" r="1.8"/><circle cx="212.7" cy="512.8" r="1.8"/><circle cx="230.5" cy="512.7" r="1.8"/><circle cx="248.3" cy="512.8" r="1.8"/><circle cx="266.1" cy="512.2" r="1.8"/><circle cx="283.9" cy="512" r="1.8"/><circle cx="301.7" cy="511.7" r="1.8"/><circle cx="319.4" cy="511.7" r="1.8"/><circle cx="337.2" cy="511.4" r="1.8"/><circle cx="355" cy="510.9" r="1.8"/><circle cx="372.8" cy="510.6" r="1.8"/><circle cx="390.6" cy="510.1" r="1.8"/><circle cx="408.4" cy="509.5" r="1.8"/><circle cx="426.2" cy="509.1" r="1.8"/><circle cx="444" cy="508.5" r="1.8"/><circle cx="461.8" cy="507.7" r="1.8"/><circle cx="479.6" cy="506.3" r="1.8"/><circle cx="497.4" cy="505.3" r="1.8"/><circle cx="515.2" cy="504.8" r="1.8"/><circle cx="533" cy="503.6" r="1.8"/><circle cx="550.7" cy="502.5" r="1.8"/><circle cx="568.5" cy="501.3" r="1.8"/><circle cx="586.3" cy="499.6" r="1.8"/><circle cx="604.1" cy="499.9" r="1.8"/><circle cx="621.9" cy="499" r="1.8"/><circle cx="639.7" cy="498" r="1.8"/><circle cx="657.5" cy="497.1" r="1.8"/><circle cx="675.3" cy="495.7" r="1.8"/><circle cx="693.1" cy="495" r="1.8"/></g></g><g><path fill="none" stroke-linecap="butt" stroke-linejoin="round" stroke="#fff" stroke-width="2.5" d="m52.6 356.8 17.8-6.7 17.7-6.6 17.8-8 17.8 3.3 17.8-.5 17.8-4.7 17.8.3 17.8-2.4 17.8 1.3 17.8-1.5 17.8-1 17.8 5.9 17.8 1.8 17.8-1.7 17.7 3.6 17.8-2.4L355 341l17.8 9.9 17.8.3 17.8 6.4 17.8 4.1 17.8 10.5 17.8 3.3 17.8.9 17.8 5.4 17.8 10.2 17.8 12.1 17.7 2.3 17.8.6 17.8-.4 17.8 1.3 17.8 2.3 17.8 1.8 17.8-2.5 17.8 3.6 17.8 2.1"/><path stroke-linejoin="round" stroke-width="1.5" stroke="#286BBB" fill="none" stroke-linecap="butt" d="m52.6 356.8 17.8-6.7 17.7-6.6 17.8-8 17.8 3.3 17.8-.5 17.8-4.7 17.8.3 17.8-2.4 17.8 1.3 17.8-1.5 17.8-1 17.8 5.9 17.8 1.8 17.8-1.7 17.7 3.6 17.8-2.4L355 341l17.8 9.9 17.8.3 17.8 6.4 17.8 4.1 17.8 10.5 17.8 3.3 17.8.9 17.8 5.4 17.8 10.2 17.8 12.1 17.7 2.3 17.8.6 17.8-.4 17.8 1.3 17.8 2.3 17.8 1.8 17.8-2.5 17.8 3.6 17.8 2.1"/><g fill="#286BBB"><circle cx="52.6" cy="356.8" r="1.8"/><circle cx="70.4" cy="350.1" r="1.8"/><circle cx="88.1" cy="343.5" r="1.8"/><circle cx="105.9" cy="335.5" r="1.8"/><circle cx="123.7" cy="338.8" r="1.8"/><circle cx="141.5" cy="338.3" r="1.8"/><circle cx="159.3" cy="333.6" r="1.8"/><circle cx="177.1" cy="333.9" r="1.8"/><circle cx="194.9" cy="331.5" r="1.8"/><circle cx="212.7" cy="332.8" r="1.8"/><circle cx="230.5" cy="331.3" r="1.8"/><circle cx="248.3" cy="330.3" r="1.8"/><circle cx="266.1" cy="336.2" r="1.8"/><circle cx="283.9" cy="338" r="1.8"/><circle cx="301.7" cy="336.3" r="1.8"/><circle cx="319.4" cy="339.9" r="1.8"/><circle cx="337.2" cy="337.5" r="1.8"/><circle cx="355" cy="341" r="1.8"/><circle cx="372.8" cy="350.9" r="1.8"/><circle cx="390.6" cy="351.2" r="1.8"/><circle cx="408.4" cy="357.6" r="1.8"/><circle cx="426.2" cy="361.7" r="1.8"/><circle cx="444" cy="372.2" r="1.8"/><circle cx="461.8" cy="375.5" r="1.8"/><circle cx="479.6" cy="376.4" r="1.8"/><circle cx="497.4" cy="381.8" r="1.8"/><circle cx="515.2" cy="392" r="1.8"/><circle cx="533" cy="404.1" r="1.8"/><circle cx="550.7" cy="406.4" r="1.8"/><circle cx="568.5" cy="407" r="1.8"/><circle cx="586.3" cy="406.6" r="1.8"/><circle cx="604.1" cy="407.9" r="1.8"/><circle cx="621.9" cy="410.2" r="1.8"/><circle cx="639.7" cy="412" r="1.8"/><circle cx="657.5" cy="409.5" r="1.8"/><circle cx="675.3" cy="413.1" r="1.8"/><circle cx="693.1" cy="415.2" r="1.8"/></g></g><g><path fill="none" stroke-linecap="butt" stroke-linejoin="round" stroke="#fff" stroke-width="2.5" d="m52.6 399.8 17.8-2.7 17.7 4.3 17.8-2.1 17.8-3.3 17.8 1.6 17.8 4.1 17.8 3.1 17.8 8 17.8-.3 17.8 7.4 17.8 4.3 17.8 2.4 17.8-1.2 17.8 4.8 17.7 5.7 17.8 3.8 17.8 4.2 17.8 2.4 17.8 5.1 17.8 2.6 17.8 8.8 17.8 1.7 17.8 2.4 17.8 3.3 17.8 5.5 17.8-2.9 17.8-3.5 17.7 4.4 17.8 3.6 17.8.7 17.8 4.4 17.8 5 17.8 5.1 17.8 3.5 17.8 1.5 17.8-.8"/><path stroke-linejoin="round" stroke-width="1.5" stroke="#18470F" fill="none" stroke-linecap="butt" d="m52.6 399.8 17.8-2.7 17.7 4.3 17.8-2.1 17.8-3.3 17.8 1.6 17.8 4.1 17.8 3.1 17.8 8 17.8-.3 17.8 7.4 17.8 4.3 17.8 2.4 17.8-1.2 17.8 4.8 17.7 5.7 17.8 3.8 17.8 4.2 17.8 2.4 17.8 5.1 17.8 2.6 17.8 8.8 17.8 1.7 17.8 2.4 17.8 3.3 17.8 5.5 17.8-2.9 17.8-3.5 17.7 4.4 17.8 3.6 17.8.7 17.8 4.4 17.8 5 17.8 5.1 17.8 3.5 17.8 1.5 17.8-.8"/><g fill="#18470F"><circle cx="52.6" cy="399.8" r="1.8"/><circle cx="70.4" cy="397.1" r="1.8"/><circle cx="88.1" cy="401.4" r="1.8"/><circle cx="105.9" cy="399.3" r="1.8"/><circle cx="123.7" cy="396" r="1.8"/><circle cx="141.5" cy="397.6" r="1.8"/><circle cx="159.3" cy="401.7" r="1.8"/><circle cx="177.1" cy="404.8" r="1.8"/><circle cx="194.9" cy="412.8" r="1.8"/><circle cx="212.7" cy="412.5" r="1.8"/><circle cx="230.5" cy="419.9" r="1.8"/><circle cx="248.3" cy="424.2" r="1.8"/><circle cx="266.1" cy="426.6" r="1.8"/><circle cx="283.9" cy="425.4" r="1.8"/><circle cx="301.7" cy="430.2" r="1.8"/><circle cx="319.4" cy="435.9" r="1.8"/><circle cx="337.2" cy="439.7" r="1.8"/><circle cx="355" cy="443.9" r="1.8"/><circle cx="372.8" cy="446.3" r="1.8"/><circle cx="390.6" cy="451.4" r="1.8"/><circle cx="408.4" cy="454" r="1.8"/><circle cx="426.2" cy="462.8" r="1.8"/><circle cx="444" cy="464.5" r="1.8"/><circle cx="461.8" cy="466.9" r="1.8"/><circle cx="479.6" cy="470.2" r="1.8"/><circle cx="497.4" cy="475.7" r="1.8"/><circle cx="515.2" cy="472.8" r="1.8"/><circle cx="533" cy="469.3" r="1.8"/><circle cx="550.7" cy="473.7" r="1.8"/><circle cx="568.5" cy="477.3" r="1.8"/><circle cx="586.3" cy="478" r="1.8"/><circle cx="604.1" cy="482.4" r="1.8"/><circle cx="621.9" cy="487.4" r="1.8"/><circle cx="639.7" cy="492.5" r="1.8"/><circle cx="657.5" cy="496" r="1.8"/><circle cx="675.3" cy="497.5" r="1.8"/><circle cx="693.1" cy="496.7" r="1.8"/></g></g><g><path fill="none" stroke-linecap="butt" stroke-linejoin="round" stroke="#fff" stroke-width="2.5" d="M52.6 524.9h53.3l17.8-.2 17.8-.1h17.8l17.8-.1 17.8-.1 17.8-.1h17.8l17.8-.1 17.8-.2 17.8-.3 17.8-.3 17.7-.7 17.8-.5 17.8-.8 17.8-.6 17.8-1.2 17.8-1 17.8-1.4 17.8-1.8 17.8-2.5 17.8-3.2 17.8-2.7 17.8-4.1L533 499l17.7-4.3 17.8-2.5 17.8-5.4 17.8-4.9 17.8-6.6 17.8-3.5 17.8-5.5 17.8-7.6 17.8-6.7"/><path stroke-linejoin="round" stroke-width="1.5" stroke="#CF0A66" fill="none" stroke-linecap="butt" d="M52.6 524.9h53.3l17.8-.2 17.8-.1h17.8l17.8-.1 17.8-.1 17.8-.1h17.8l17.8-.1 17.8-.2 17.8-.3 17.8-.3 17.7-.7 17.8-.5 17.8-.8 17.8-.6 17.8-1.2 17.8-1 17.8-1.4 17.8-1.8 17.8-2.5 17.8-3.2 17.8-2.7 17.8-4.1L533 499l17.7-4.3 17.8-2.5 17.8-5.4 17.8-4.9 17.8-6.6 17.8-3.5 17.8-5.5 17.8-7.6 17.8-6.7"/><g fill="#CF0A66"><circle cx="52.6" cy="524.9" r="1.8"/><circle cx="70.4" cy="524.9" r="1.8"/><circle cx="88.1" cy="524.9" r="1.8"/><circle cx="105.9" cy="524.9" r="1.8"/><circle cx="123.7" cy="524.7" r="1.8"/><circle cx="141.5" cy="524.6" r="1.8"/><circle cx="159.3" cy="524.6" r="1.8"/><circle cx="177.1" cy="524.5" r="1.8"/><circle cx="194.9" cy="524.4" r="1.8"/><circle cx="212.7" cy="524.3" r="1.8"/><circle cx="230.5" cy="524.3" r="1.8"/><circle cx="248.3" cy="524.2" r="1.8"/><circle cx="266.1" cy="524" r="1.8"/><circle cx="283.9" cy="523.7" r="1.8"/><circle cx="301.7" cy="523.4" r="1.8"/><circle cx="319.4" cy="522.7" r="1.8"/><circle cx="337.2" cy="522.2" r="1.8"/><circle cx="355" cy="521.4" r="1.8"/><circle cx="372.8" cy="520.8" r="1.8"/><circle cx="390.6" cy="519.6" r="1.8"/><circle cx="408.4" cy="518.6" r="1.8"/><circle cx="426.2" cy="517.2" r="1.8"/><circle cx="444" cy="515.4" r="1.8"/><circle cx="461.8" cy="512.9" r="1.8"/><circle cx="479.6" cy="509.7" r="1.8"/><circle cx="497.4" cy="507" r="1.8"/><circle cx="515.2" cy="502.9" r="1.8"/><circle cx="533" cy="499" r="1.8"/><circle cx="550.7" cy="494.7" r="1.8"/><circle cx="568.5" cy="492.2" r="1.8"/><circle cx="586.3" cy="486.8" r="1.8"/><circle cx="604.1" cy="481.9" r="1.8"/><circle cx="621.9" cy="475.3" r="1.8"/><circle cx="639.7" cy="471.8" r="1.8"/><circle cx="657.5" cy="466.3" r="1.8"/><circle cx="675.3" cy="458.7" r="1.8"/><circle cx="693.1" cy="452" r="1.8"/></g></g><g><path fill="none" stroke-linecap="butt" stroke-linejoin="round" stroke="#fff" stroke-width="2.5" d="M52.6 524.9H319.4l17.8-.1H390.6l17.8-.1 17.8-.1 17.8-.1 17.8-.3 17.8-.4 17.8-.6 17.8-1.5L533 520l17.7-1.7 17.8-2.5 17.8-2.6 17.8-2.9 17.8-4.7 17.8-4.8 17.8-4.9 17.8-6.1 17.8-5.3"/><path stroke-linejoin="round" stroke-width="1.5" stroke="#6D3E91" fill="none" stroke-linecap="butt" d="M52.6 524.9H319.4l17.8-.1H390.6l17.8-.1 17.8-.1 17.8-.1 17.8-.3 17.8-.4 17.8-.6 17.8-1.5L533 520l17.7-1.7 17.8-2.5 17.8-2.6 17.8-2.9 17.8-4.7 17.8-4.8 17.8-4.9 17.8-6.1 17.8-5.3"/><g fill="#6D3E91"><circle cx="52.6" cy="524.9" r="1.8"/><circle cx="70.4" cy="524.9" r="1.8"/><circle cx="88.1" cy="524.9" r="1.8"/><circle cx="105.9" cy="524.9" r="1.8"/><circle cx="123.7" cy="524.9" r="1.8"/><circle cx="141.5" cy="524.9" r="1.8"/><circle cx="159.3" cy="524.9" r="1.8"/><circle cx="177.1" cy="524.9" r="1.8"/><circle cx="194.9" cy="524.9" r="1.8"/><circle cx="212.7" cy="524.9" r="1.8"/><circle cx="230.5" cy="524.9" r="1.8"/><circle cx="248.3" cy="524.9" r="1.8"/><circle cx="266.1" cy="524.9" r="1.8"/><circle cx="283.9" cy="524.9" r="1.8"/><circle cx="301.7" cy="524.9" r="1.8"/><circle cx="319.4" cy="524.9" r="1.8"/><circle cx="337.2" cy="524.8" r="1.8"/><circle cx="355" cy="524.8" r="1.8"/><circle cx="372.8" cy="524.8" r="1.8"/><circle cx="390.6" cy="524.8" r="1.8"/><circle cx="408.4" cy="524.7" r="1.8"/><circle cx="426.2" cy="524.6" r="1.8"/><circle cx="444" cy="524.5" r="1.8"/><circle cx="461.8" cy="524.2" r="1.8"/><circle cx="479.6" cy="523.8" r="1.8"/><circle cx="497.4" cy="523.2" r="1.8"/><circle cx="515.2" cy="521.7" r="1.8"/><circle cx="533" cy="520" r="1.8"/><circle cx="550.7" cy="518.3" r="1.8"/><circle cx="568.5" cy="515.8" r="1.8"/><circle cx="586.3" cy="513.2" r="1.8"/><circle cx="604.1" cy="510.3" r="1.8"/><circle cx="621.9" cy="505.6" r="1.8"/><circle cx="639.7" cy="500.8" r="1.8"/><circle cx="657.5" cy="495.9" r="1.8"/><circle cx="675.3" cy="489.8" r="1.8"/><circle cx="693.1" cy="484.5" r="1.8"/></g></g><g><path fill="none" stroke-linecap="butt" stroke-linejoin="round" stroke="#fff" stroke-width="2.5" d="m52.6 301.4 17.8 3.6 17.7 7.2 17.8 2.5 17.8 10.4 17.8-1.5 17.8-.3 17.8 1.9 17.8-7.6 17.8 3.9 17.8-3.6 17.8 3.5 17.8 1.3 17.8 3.8 17.8 4 17.7 4.7 17.8 7.6 17.8 3 17.8 6.3 17.8-4.3 17.8 1.2h17.8l17.8 5 17.8-6.6 17.8-1.1 17.8 1.3 17.8 2.3 17.8-3.1 17.7-2.1 17.8-.2 17.8 2.3 17.8-1.5 17.8 2.6 17.8 2.1 17.8.3 17.8-5.7 17.8 12.8"/><path stroke-linejoin="round" stroke-width="1.5" stroke="#BE5915" fill="none" stroke-linecap="butt" d="m52.6 301.4 17.8 3.6 17.7 7.2 17.8 2.5 17.8 10.4 17.8-1.5 17.8-.3 17.8 1.9 17.8-7.6 17.8 3.9 17.8-3.6 17.8 3.5 17.8 1.3 17.8 3.8 17.8 4 17.7 4.7 17.8 7.6 17.8 3 17.8 6.3 17.8-4.3 17.8 1.2h17.8l17.8 5 17.8-6.6 17.8-1.1 17.8 1.3 17.8 2.3 17.8-3.1 17.7-2.1 17.8-.2 17.8 2.3 17.8-1.5 17.8 2.6 17.8 2.1 17.8.3 17.8-5.7 17.8 12.8"/><g fill="#BE5915"><circle cx="52.6" cy="301.4" r="1.8"/><circle cx="70.4" cy="305" r="1.8"/><circle cx="88.1" cy="312.2" r="1.8"/><circle cx="105.9" cy="314.7" r="1.8"/><circle cx="123.7" cy="325.1" r="1.8"/><circle cx="141.5" cy="323.6" r="1.8"/><circle cx="159.3" cy="323.3" r="1.8"/><circle cx="177.1" cy="325.2" r="1.8"/><circle cx="194.9" cy="317.6" r="1.8"/><circle cx="212.7" cy="321.5" r="1.8"/><circle cx="230.5" cy="317.9" r="1.8"/><circle cx="248.3" cy="321.4" r="1.8"/><circle cx="266.1" cy="322.7" r="1.8"/><circle cx="283.9" cy="326.5" r="1.8"/><circle cx="301.7" cy="330.5" r="1.8"/><circle cx="319.4" cy="335.2" r="1.8"/><circle cx="337.2" cy="342.8" r="1.8"/><circle cx="355" cy="345.8" r="1.8"/><circle cx="372.8" cy="352.1" r="1.8"/><circle cx="390.6" cy="347.8" r="1.8"/><circle cx="408.4" cy="349" r="1.8"/><circle cx="426.2" cy="349" r="1.8"/><circle cx="444" cy="354" r="1.8"/><circle cx="461.8" cy="347.4" r="1.8"/><circle cx="479.6" cy="346.3" r="1.8"/><circle cx="497.4" cy="347.6" r="1.8"/><circle cx="515.2" cy="349.9" r="1.8"/><circle cx="533" cy="346.8" r="1.8"/><circle cx="550.7" cy="344.7" r="1.8"/><circle cx="568.5" cy="344.5" r="1.8"/><circle cx="586.3" cy="346.8" r="1.8"/><circle cx="604.1" cy="345.3" r="1.8"/><circle cx="621.9" cy="347.9" r="1.8"/><circle cx="639.7" cy="350" r="1.8"/><circle cx="657.5" cy="350.3" r="1.8"/><circle cx="675.3" cy="344.6" r="1.8"/><circle cx="693.1" cy="357.4" r="1.8"/></g></g><g><path fill="none" stroke-linecap="butt" stroke-linejoin="round" stroke="#fff" stroke-width="2.5" d="m52.6 363.9 17.8 4 17.7-1.6 17.8 4.3 17.8-11.1 17.8-1.5 17.8 1.2 17.8.3 17.8.4 17.8-1.2 17.8-3.6 17.8-.1 17.8-9.4 17.8-5.8 17.8-9.2 17.7-4.4 17.8-9.7 17.8-6.8 17.8-2.7 17.8-6.2 17.8-3.2 17.8-4.2 17.8-7.8 17.8-3.5 17.8-3 17.8-6.9 17.8 4.7 17.8-8.4 17.7 12.5 17.8-1 17.8-13.3 17.8-4 17.8 3 17.8-.4 17.8-5.4 17.8.6 17.8 8.9"/><path stroke-linejoin="round" stroke-width="1.5" stroke="#2C8465" fill="none" stroke-linecap="butt" d="m52.6 363.9 17.8 4 17.7-1.6 17.8 4.3 17.8-11.1 17.8-1.5 17.8 1.2 17.8.3 17.8.4 17.8-1.2 17.8-3.6 17.8-.1 17.8-9.4 17.8-5.8 17.8-9.2 17.7-4.4 17.8-9.7 17.8-6.8 17.8-2.7 17.8-6.2 17.8-3.2 17.8-4.2 17.8-7.8 17.8-3.5 17.8-3 17.8-6.9 17.8 4.7 17.8-8.4 17.7 12.5 17.8-1 17.8-13.3 17.8-4 17.8 3 17.8-.4 17.8-5.4 17.8.6 17.8 8.9"/><g fill="#2C8465"><circle cx="52.6" cy="363.9" r="1.8"/><circle cx="70.4" cy="367.9" r="1.8"/><circle cx="88.1" cy="366.3" r="1.8"/><circle cx="105.9" cy="370.6" r="1.8"/><circle cx="123.7" cy="359.5" r="1.8"/><circle cx="141.5" cy="358" r="1.8"/><circle cx="159.3" cy="359.2" r="1.8"/><circle cx="177.1" cy="359.5" r="1.8"/><circle cx="194.9" cy="359.9" r="1.8"/><circle cx="212.7" cy="358.7" r="1.8"/><circle cx="230.5" cy="355.1" r="1.8"/><circle cx="248.3" cy="355" r="1.8"/><circle cx="266.1" cy="345.6" r="1.8"/><circle cx="283.9" cy="339.8" r="1.8"/><circle cx="301.7" cy="330.6" r="1.8"/><circle cx="319.4" cy="326.2" r="1.8"/><circle cx="337.2" cy="316.5" r="1.8"/><circle cx="355" cy="309.7" r="1.8"/><circle cx="372.8" cy="307" r="1.8"/><circle cx="390.6" cy="300.8" r="1.8"/><circle cx="408.4" cy="297.6" r="1.8"/><circle cx="426.2" cy="293.4" r="1.8"/><circle cx="444" cy="285.6" r="1.8"/><circle cx="461.8" cy="282.1" r="1.8"/><circle cx="479.6" cy="279.1" r="1.8"/><circle cx="497.4" cy="272.2" r="1.8"/><circle cx="515.2" cy="276.9" r="1.8"/><circle cx="533" cy="268.5" r="1.8"/><circle cx="550.7" cy="281" r="1.8"/><circle cx="568.5" cy="280" r="1.8"/><circle cx="586.3" cy="266.7" r="1.8"/><circle cx="604.1" cy="262.7" r="1.8"/><circle cx="621.9" cy="265.7" r="1.8"/><circle cx="639.7" cy="265.3" r="1.8"/><circle cx="657.5" cy="259.9" r="1.8"/><circle cx="675.3" cy="260.5" r="1.8"/><circle cx="693.1" cy="269.4" r="1.8"/></g></g><g><path fill="none" stroke-linecap="butt" stroke-linejoin="round" stroke="#fff" stroke-width="2.5" d="m52.6 101.8 17.8 2.3 17.7-3.6 17.8 3.6 17.8 1.9 17.8 2.9 17.8.1 17.8-4.5 17.8 2 17.8-3.8 17.8 2.2 17.8-6.8 17.8.9 17.8 2.7 17.8 2.9 17.7-8.8 17.8.7L355 94l17.8-14.6 17.8 6.1 17.8-5.2 17.8-7.1L444 66l17.8 7.6 17.8 4.8 17.8.1 17.8-8.3 17.8 9.4 17.7-10.3 17.8 3.2 17.8 20.4 17.8 10.2 17.8-.9 17.8.4 17.8 15.3 17.8 15.3 17.8-9.8"/><path stroke-linejoin="round" stroke-width="1.5" stroke="#C15065" fill="none" stroke-linecap="butt" d="m52.6 101.8 17.8 2.3 17.7-3.6 17.8 3.6 17.8 1.9 17.8 2.9 17.8.1 17.8-4.5 17.8 2 17.8-3.8 17.8 2.2 17.8-6.8 17.8.9 17.8 2.7 17.8 2.9 17.7-8.8 17.8.7L355 94l17.8-14.6 17.8 6.1 17.8-5.2 17.8-7.1L444 66l17.8 7.6 17.8 4.8 17.8.1 17.8-8.3 17.8 9.4 17.7-10.3 17.8 3.2 17.8 20.4 17.8 10.2 17.8-.9 17.8.4 17.8 15.3 17.8 15.3 17.8-9.8"/><g fill="#C15065"><circle cx="52.6" cy="101.8" r="1.8"/><circle cx="70.4" cy="104.1" r="1.8"/><circle cx="88.1" cy="100.5" r="1.8"/><circle cx="105.9" cy="104.1" r="1.8"/><circle cx="123.7" cy="106" r="1.8"/><circle cx="141.5" cy="108.9" r="1.8"/><circle cx="159.3" cy="109" r="1.8"/><circle cx="177.1" cy="104.5" r="1.8"/><circle cx="194.9" cy="106.5" r="1.8"/><circle cx="212.7" cy="102.7" r="1.8"/><circle cx="230.5" cy="104.9" r="1.8"/><circle cx="248.3" cy="98.1" r="1.8"/><circle cx="266.1" cy="99" r="1.8"/><circle cx="283.9" cy="101.7" r="1.8"/><circle cx="301.7" cy="104.6" r="1.8"/><circle cx="319.4" cy="95.8" r="1.8"/><circle cx="337.2" cy="96.5" r="1.8"/><circle cx="355" cy="94" r="1.8"/><circle cx="372.8" cy="79.4" r="1.8"/><circle cx="390.6" cy="85.5" r="1.8"/><circle cx="408.4" cy="80.3" r="1.8"/><circle cx="426.2" cy="73.2" r="1.8"/><circle cx="444" cy="66" r="1.8"/><circle cx="461.8" cy="73.6" r="1.8"/><circle cx="479.6" cy="78.4" r="1.8"/><circle cx="497.4" cy="78.5" r="1.8"/><circle cx="515.2" cy="70.2" r="1.8"/><circle cx="533" cy="79.6" r="1.8"/><circle cx="550.7" cy="69.3" r="1.8"/><circle cx="568.5" cy="72.5" r="1.8"/><circle cx="586.3" cy="92.9" r="1.8"/><circle cx="604.1" cy="103.1" r="1.8"/><circle cx="621.9" cy="102.2" r="1.8"/><circle cx="639.7" cy="102.6" r="1.8"/><circle cx="657.5" cy="117.9" r="1.8"/><circle cx="675.3" cy="133.2" r="1.8"/><circle cx="693.1" cy="123.4" r="1.8"/></g></g></g></g></g><g class="SourcesFooter" style="fill:#777"><g style="fill:#777"><text font-size="12.6" x="15" y="582.7"><tspan x="15" y="582.73">Source: Our World in Data based on BP Statistical Review of World Energy &amp; Ember</tspan></text></g><text font-size="12.6" x="627.9" y="582.7"><tspan x="627.86" y="582.73"><a target="_blank" style="fill:#777" href="https://ourworldindata.org/energy">OurWorldInData.org/energy</a> • <a style="fill:#777" class="cclogo" href="http://creativecommons.org/licenses/by/4.0/deed.en_US" target="_blank">CC BY</a></tspan></text></g></svg>